<svg xmlns="http://www.w3.org/2000/svg" width="25" height="25" viewBox="0 0 25 25"><defs><style>.a{fill:#256ae5;}</style></defs><g transform="translate(0 0)"><path class="a" d="M5.729,277.332a5.729,5.729,0,1,0,5.729,5.729A5.736,5.736,0,0,0,5.729,277.332Zm0,10.417a4.688,4.688,0,1,1,4.688-4.688A4.693,4.693,0,0,1,5.729,287.749Zm0,0" transform="translate(0 -263.79)"/><path class="a" d="M66.083,343.936H64v1.042h2.6a.52.52,0,0,0,.521-.521v-3.125H66.083Zm0,0" transform="translate(-60.875 -324.665)"/><path class="a" d="M44.249,2.084H42.166V1.042A1.043,1.043,0,0,0,41.124,0H40.083a1.043,1.043,0,0,0-1.042,1.042V2.084H27.582V1.042A1.043,1.043,0,0,0,26.541,0H25.5a1.043,1.043,0,0,0-1.042,1.042V2.084H22.374a1.043,1.043,0,0,0-1.042,1.042V13.542h1.042V6.25h18.75V5.209H22.374V3.125h2.083A1.043,1.043,0,0,0,25.5,4.167h1.042a1.043,1.043,0,0,0,1.042-1.042H39.041a1.043,1.043,0,0,0,1.042,1.042h1.042a1.043,1.043,0,0,0,1.042-1.042h2.083V5.209H42.166V6.25h2.083V21.875H32.27v1.042h11.98a1.043,1.043,0,0,0,1.042-1.042V3.125A1.043,1.043,0,0,0,44.249,2.084ZM25.5,3.125V1.042h1.042V3.125Zm14.583,0V1.042h1.042V3.125Zm0,0" transform="translate(-20.291)"/><path class="a" d="M67.125,173.793a1.043,1.043,0,0,0,1.042-1.042V171.71a1.043,1.043,0,0,0-1.042-1.042H65.042A1.043,1.043,0,0,0,64,171.71v1.042a1.043,1.043,0,0,0,1.042,1.042Zm-2.083-2.083h2.083v1.042H65.042Zm0,0" transform="translate(-60.875 -162.334)"/><path class="a" d="M174.835,172.751V171.71a1.043,1.043,0,0,0-1.042-1.042H171.71a1.043,1.043,0,0,0-1.042,1.042v1.042a1.043,1.043,0,0,0,1.042,1.042h2.083A1.043,1.043,0,0,0,174.835,172.751Zm-3.125,0V171.71h2.083v1.042Zm0,0" transform="translate(-162.334 -162.334)"/><path class="a" d="M278.374,173.793h2.083a1.043,1.043,0,0,0,1.042-1.042V171.71a1.043,1.043,0,0,0-1.042-1.042h-2.083a1.043,1.043,0,0,0-1.042,1.042v1.042A1.043,1.043,0,0,0,278.374,173.793Zm0-2.083h2.083v1.042h-2.084Zm0,0" transform="translate(-263.79 -162.334)"/><path class="a" d="M385.042,173.793h2.083a1.043,1.043,0,0,0,1.042-1.042V171.71a1.043,1.043,0,0,0-1.042-1.042h-2.083A1.043,1.043,0,0,0,384,171.71v1.042A1.043,1.043,0,0,0,385.042,173.793Zm0-2.083h2.083v1.042h-2.084Zm0,0" transform="translate(-365.25 -162.334)"/><path class="a" d="M277.332,258.083a1.043,1.043,0,0,0,1.042,1.042h2.083a1.043,1.043,0,0,0,1.042-1.042v-1.042A1.043,1.043,0,0,0,280.457,256h-2.083a1.043,1.043,0,0,0-1.042,1.042Zm1.042-1.042h2.083v1.042h-2.084Zm0,0" transform="translate(-263.79 -243.5)"/><path class="a" d="M384,258.083a1.043,1.043,0,0,0,1.042,1.042h2.083a1.043,1.043,0,0,0,1.042-1.042v-1.042A1.043,1.043,0,0,0,387.125,256h-2.083A1.043,1.043,0,0,0,384,257.042Zm1.042-1.042h2.083v1.042h-2.084Zm0,0" transform="translate(-365.25 -243.5)"/><path class="a" d="M277.332,343.415a1.043,1.043,0,0,0,1.042,1.042h2.083a1.043,1.043,0,0,0,1.042-1.042v-1.042a1.043,1.043,0,0,0-1.042-1.042h-2.083a1.043,1.043,0,0,0-1.042,1.042Zm1.042-1.042h2.083v1.042h-2.084Zm0,0" transform="translate(-263.79 -324.665)"/><path class="a" d="M384,343.415a1.043,1.043,0,0,0,1.042,1.042h2.083a1.043,1.043,0,0,0,1.042-1.042v-1.042a1.043,1.043,0,0,0-1.042-1.042h-2.083A1.043,1.043,0,0,0,384,342.374Zm1.042-1.042h2.083v1.042h-2.084Zm0,0" transform="translate(-365.25 -324.665)"/></g></svg>