<svg xmlns="http://www.w3.org/2000/svg" xmlns:xlink="http://www.w3.org/1999/xlink" width="655" height="412.928" viewBox="0 0 655 412.928">
  <defs>
    <radialGradient id="radial-gradient" cx="0.5" cy="0.5" r="0.5" gradientTransform="translate(0)" gradientUnits="objectBoundingBox">
      <stop offset="0" stop-color="#3996f7"/>
      <stop offset="1" stop-color="#6840d5"/>
    </radialGradient>
    <linearGradient id="linear-gradient" x1="0.493" y1="1.024" x2="0.493" y2="-0.012" gradientUnits="objectBoundingBox">
      <stop offset="0" stop-color="#1c257b"/>
      <stop offset="1" stop-color="#6a2c9a"/>
    </linearGradient>
    <radialGradient id="radial-gradient-2" cx="0.529" cy="0.094" r="0.692" gradientTransform="matrix(1.122, -0.018, 0.02, 1, -0.066, 0.009)" xlink:href="#radial-gradient"/>
    <linearGradient id="linear-gradient-2" x1="0.484" y1="0.99" x2="0.484" y2="-0.02" xlink:href="#linear-gradient"/>
    <radialGradient id="radial-gradient-3" cx="0.36" cy="0.123" r="0.849" gradientTransform="matrix(0.457, -0.018, 0.008, 1, 0.181, 0.006)" xlink:href="#radial-gradient"/>
    <linearGradient id="linear-gradient-3" x1="0.495" y1="1.002" x2="0.495" y2="0.002" gradientUnits="objectBoundingBox">
      <stop offset="0" stop-color="#4c25a6"/>
      <stop offset="0.601" stop-color="#457ae2"/>
      <stop offset="1" stop-color="#6dd9f7"/>
    </linearGradient>
    <radialGradient id="radial-gradient-4" cx="0.909" cy="0.44" r="0.713" gradientTransform="matrix(0.233, 0.972, -0.972, 0.233, 0.496, -0.448)" xlink:href="#radial-gradient"/>
    <linearGradient id="linear-gradient-4" x1="0.494" y1="1.003" x2="0.494" y2="0.003" gradientUnits="objectBoundingBox">
      <stop offset="0" stop-color="#ddcdff"/>
      <stop offset="1" stop-color="#9f9cff"/>
    </linearGradient>
    <linearGradient id="linear-gradient-5" x1="0.493" y1="1.003" x2="0.493" y2="0.003" gradientUnits="objectBoundingBox">
      <stop offset="0" stop-color="#eef0ff"/>
      <stop offset="1" stop-color="#ddcdff"/>
    </linearGradient>
    <linearGradient id="linear-gradient-6" x1="0.388" y1="0.916" x2="0.388" y2="-0.084" gradientUnits="objectBoundingBox">
      <stop offset="0" stop-color="#1c257b"/>
      <stop offset="1" stop-color="#482c83"/>
    </linearGradient>
    <linearGradient id="linear-gradient-7" x1="0.39" y1="1.185" x2="0.39" y2="0.185" xlink:href="#linear-gradient-6"/>
    <linearGradient id="linear-gradient-8" x1="0.526" y1="1.053" x2="0.526" y2="0.053" xlink:href="#linear-gradient-6"/>
  </defs>
  <g id="Group_1" data-name="Group 1" transform="translate(-874.543 -135.191)">
    <path id="Path_100" data-name="Path 100" d="M173.8,335.315H114.355c-31.994,0-58.169,26.638-58.169,59.2h0c0,32.558,26.175,59.2,58.169,59.2h502.64c51.806,0,94.191-43.135,94.191-95.856v0c0-52.72-42.385-95.855-94.191-95.857h0c-21.9,0-39.825-18.24-39.825-40.531h0c0-22.292,17.921-40.529,39.825-40.529h47.933c22.773,0,41.4-18.963,41.4-42.139h0c0-23.176-18.631-42.138-41.4-42.138H604.315A16.312,16.312,0,0,1,588.2,80.251h0a16.311,16.311,0,0,1,16.119-16.4H615a11.258,11.258,0,0,0,11.126-11.322h0A11.259,11.259,0,0,0,615,41.2H544.89c-14.765,0-16.41,17.752-53.706,17.752H404.7a14.69,14.69,0,0,0-14.517,14.774h0A14.69,14.69,0,0,0,404.7,88.5h13.94a21.288,21.288,0,0,1,21.036,21.406h0a21.288,21.288,0,0,1-21.036,21.406H376.683c-56.657,0-64.661,15.068-74.584,45.039s-61.459,32.386-61.459,32.386H170.171c-17.434,0-31.7,14.516-31.7,32.258h0c0,17.743,14.265,32.26,31.7,32.26H173.8c16.769,0,30.489,13.962,30.489,31.027h0c0,17.067-13.721,31.029-30.489,31.029ZM646.221,63.846a11.324,11.324,0,1,1,11.125-11.322A11.226,11.226,0,0,1,646.221,63.846Z" transform="translate(818.357 93.989)" fill="#72dd97" fill-rule="evenodd" opacity="0.09"/>
    <g id="Group_59" data-name="Group 59" transform="translate(1246.929 239.416)">
      <g id="Group_57" data-name="Group 57" transform="translate(109.151 51.212)">
        <path id="Path_101" data-name="Path 101" d="M559.912,310.772c6.023-8.892,18.649-23.682,42.784-38.4,38.177-23.283,67.1-54.142,54.389-72.4-12.474-17.919-68.386,16.688-114.819,103.192A100.9,100.9,0,0,0,559.912,310.772Z" transform="translate(-542.267 -195.382)" fill="#b4c5e6" fill-rule="evenodd"/>
        <path id="Path_102" data-name="Path 102" d="M552.517,302.815a22.986,22.986,0,0,1,7.531,1.049.483.483,0,0,0,.6-.333.5.5,0,0,0-.327-.613,24.862,24.862,0,0,0-7.229-1.1q1.236-2.139,2.475-4.215c1.685-.038,7.121-.149,9.161-.034a.494.494,0,0,0,.055-.987c-1.875-.1-6.484-.026-8.62.018q2.321-3.874,4.645-7.531a110.817,110.817,0,0,1,12.283.946.485.485,0,0,0,.545-.424.492.492,0,0,0-.414-.556,112.694,112.694,0,0,0-11.8-.942q2.345-3.68,4.689-7.145a157.74,157.74,0,0,1,17.541,1.347.485.485,0,0,0,.545-.424.492.492,0,0,0-.414-.557,159.1,159.1,0,0,0-17.01-1.342q3.082-4.538,6.139-8.717c2.337-.1,12.029-.356,19.306,2.022a.482.482,0,0,0,.611-.319.494.494,0,0,0-.311-.622c-6.782-2.213-15.58-2.194-18.871-2.093q3.761-5.111,7.463-9.7c3.189.184,16.019,1.174,22.023,5.5a.478.478,0,0,0,.675-.121.5.5,0,0,0-.118-.687c-5.824-4.2-17.682-5.351-21.813-5.634q3.932-4.845,7.767-9.14a99.718,99.718,0,0,1,21.218,7.624.482.482,0,0,0,.652-.217.5.5,0,0,0-.215-.662,100.551,100.551,0,0,0-20.911-7.583q2.274-2.524,4.5-4.866a107.845,107.845,0,0,1,24.268,8.856.482.482,0,0,0,.648-.229.5.5,0,0,0-.225-.659,111.386,111.386,0,0,0-23.888-8.8q5.295-5.506,10.294-10.035c2.816.949,17.085,5.866,24.588,10.722a.478.478,0,0,0,.668-.151.5.5,0,0,0-.148-.68c-7.207-4.666-20.484-9.356-24.267-10.645q2.911-2.615,5.7-4.925a141.449,141.449,0,0,1,23.561,10.747.481.481,0,0,0,.662-.178.5.5,0,0,0-.175-.676,142.325,142.325,0,0,0-23.156-10.625c4.345-3.557,8.435-6.569,12.209-9.106,2.385.572,13.161,3.319,21.25,8.094a.478.478,0,0,0,.662-.178.5.5,0,0,0-.174-.675c-7.44-4.389-17.083-7.084-20.623-7.982q2.342-1.541,4.5-2.845a73.915,73.915,0,0,1,18.35,4.756.486.486,0,0,0,.629-.282.5.5,0,0,0-.278-.639,77.94,77.94,0,0,0-17.32-4.658c11.617-6.829,18.834-8.565,18.895-8.58a.741.741,0,0,0,.526-.9.725.725,0,0,0-.883-.537,55.2,55.2,0,0,0-8.724,3.255,44.192,44.192,0,0,1,4.215-4.965.5.5,0,0,0,.161-.678.48.48,0,0,0-.666-.163c-.877.546-4.421,5.119-5.637,6.7-2.235,1.068-4.775,2.384-7.592,4.006l4.789-9.69a.5.5,0,0,0-.215-.661.481.481,0,0,0-.65.218l-5.45,11.026c-1.931,1.149-3.979,2.437-6.127,3.872l5.162-11.484a.5.5,0,0,0-.237-.654.482.482,0,0,0-.644.242L623.732,217.9c-3.22,2.208-6.652,4.74-10.267,7.659l4.476-11.9a.5.5,0,0,0-.28-.639.483.483,0,0,0-.627.283l-5.069,13.487c-1.648,1.362-3.331,2.8-5.046,4.316l3.792-10.724a.5.5,0,0,0-.288-.633.484.484,0,0,0-.623.3l-4.391,12.411q-4.766,4.314-9.823,9.491l2.857-10.472a.5.5,0,0,0-.338-.608.484.484,0,0,0-.6.343L594.181,243.4q-2,2.093-4.037,4.336l1.6-8a.5.5,0,0,0-.379-.582.484.484,0,0,0-.57.384l-1.922,9.6q-3.785,4.228-7.666,8.978L582.7,249.2a.49.49,0,0,0-.4-.569.485.485,0,0,0-.559.4l-1.776,10.6q-3.4,4.22-6.847,8.872l.973-7.918a.486.486,0,1,0-.963-.125l-1.183,9.636q-3.009,4.111-6.044,8.557l.048-7.147a.485.485,0,1,0-.969-.01l-.06,8.6q-2.193,3.25-4.4,6.688l-.753-6.093a.485.485,0,1,0-.962.123l.9,7.256q-2.024,3.19-4.054,6.536l-.7-3.937a.487.487,0,0,0-.565-.4.493.493,0,0,0-.389.576l.9,5.022q-1.508,2.521-3.022,5.137l-1.6-3.231a.478.478,0,0,0-.65-.217.5.5,0,0,0-.215.661l1.887,3.8q-1.233,2.142-2.464,4.343c.449.209.895.414,1.333.611Q551.339,304.865,552.517,302.815Z" transform="translate(-542.328 -195.333)" fill="#fff" fill-rule="evenodd"/>
      </g>
      <g id="Group_58" data-name="Group 58" transform="translate(113.419 118.91)">
        <path id="Path_103" data-name="Path 103" d="M553.032,315.243c6.451-4.151,17.832-9.715,35.023-12.209,29.174-4.232,55.211-16.406,53.24-32.638-1.9-15.639-43.252-9.616-94.72,32.815l6.43,11.987Z" transform="translate(-546.575 -262.518)" fill="#9fb2d9" fill-rule="evenodd"/>
        <path id="Path_104" data-name="Path 104" d="M633.446,272.779a1.019,1.019,0,0,0-.013-2.037,70.115,70.115,0,0,0-8.841.755l4.76-3.27a.687.687,0,0,0,.179-.942.659.659,0,0,0-.924-.182l-7.072,4.86c-2.587.433-5.532,1.014-8.778,1.806l5-4.859a.689.689,0,0,0,.021-.962.657.657,0,0,0-.942-.022l-6.7,6.513c-3.372.9-7.022,2.007-10.891,3.39l4.185-4.381a.688.688,0,0,0-.014-.96.657.657,0,0,0-.94.012l-6.11,6.4c-4.046,1.546-8.3,3.383-12.708,5.571l3.537-4.626a.684.684,0,0,0-.114-.95.659.659,0,0,0-.935.117l-5.254,6.876c-4.129,2.162-8.372,4.628-12.683,7.45l1.451-3.145a.684.684,0,0,0-.321-.9.661.661,0,0,0-.887.327l-2.371,5.139c-3.269,2.216-6.568,4.632-9.881,7.277l1.327-3.2a.684.684,0,0,0-.355-.889.664.664,0,0,0-.875.361l-2.282,5.5q-2.418,2-4.839,4.166l.983,1.834q2.421-2.178,4.837-4.186c1.65.107,5.6.45,7.263,1.337a.663.663,0,0,0,.9-.281.687.687,0,0,0-.278-.919c-1.468-.784-4.357-1.183-6.374-1.374q1.912-1.549,3.82-3a27.873,27.873,0,0,1,8.244,2.6.662.662,0,0,0,.909-.257.686.686,0,0,0-.254-.925,26.735,26.735,0,0,0-7.44-2.52q3.939-2.927,7.821-5.444c2.221.933,9.251,3.977,12.01,6.285a.657.657,0,0,0,.936-.094.686.686,0,0,0-.089-.954c-2.589-2.166-8.618-4.891-11.481-6.122q4.158-2.642,8.21-4.862c2.219.868,9.44,3.85,14.2,7.686a.658.658,0,0,0,.936-.112.687.687,0,0,0-.11-.953c-4.289-3.455-10.487-6.226-13.489-7.458q2-1.072,3.969-2.043a64.2,64.2,0,0,1,17.3,8.815.66.66,0,0,0,.931-.149.687.687,0,0,0-.146-.948,65.511,65.511,0,0,0-16.36-8.56,141.876,141.876,0,0,1,13.6-5.669c2.546,1.605,12.412,7.917,16.727,12.091a.658.658,0,0,0,.942-.024.687.687,0,0,0-.025-.959c-3.994-3.864-12.527-9.451-16.015-11.678,3.206-1.1,6.247-2,9.084-2.756,2.288,1.782,10.744,8.369,12.7,10.09a.656.656,0,0,0,.938-.068.686.686,0,0,0-.065-.956c-1.8-1.577-8.875-7.111-11.928-9.491,3.713-.931,7.044-1.589,9.9-2.053,2.057,1.819,7,6.212,8.161,7.389a.657.657,0,0,0,.942,0,.687.687,0,0,0,0-.961c-1.031-1.047-5.023-4.607-7.373-6.694A70.891,70.891,0,0,1,633.446,272.779Z" transform="translate(-546.599 -262.48)" fill="#b4c5e6" fill-rule="evenodd"/>
      </g>
      <path id="Path_105" data-name="Path 105" d="M.382,115.8q-.441-6.56-.373-12.742.064-6.278.63-12.114A106.722,106.722,0,0,1,11.076,53.064,87.472,87.472,0,0,1,34.03,24.337a100.414,100.414,0,0,1,28.8-16.286A131.411,131.411,0,0,1,98.207.467C102.311.142,106.45-.009,110.6,0c4.2.01,8.384.19,12.538.53v0a1.69,1.69,0,0,1,1.162.594,1.66,1.66,0,0,1,.386,1.232l-.017.119c-.18,1.6-4.135,35.988-21.242,67.142C86.12,101.129,55.417,129.352,1.7,117.353a1.685,1.685,0,0,1-.936-.574,1.665,1.665,0,0,1-.376-.983ZM122.785,3.224a184.45,184.45,0,0,0-21.961,10.734c4.521.77,14.772,2.59,19.369,4.018,1.573-7.307,2.325-12.653,2.592-14.751Zm-2.943,16.351-.02-.006c-5.311-1.685-19.175-3.992-21.241-4.332-5.795,3.347-12.324,7.436-19.264,12.335l35.952,9.146c1.96-6.284,3.452-12.123,4.573-17.142Zm-5.064,18.7-37.2-9.463A252.915,252.915,0,0,0,57.484,44.848c7.377,2.182,42.639,12.677,48.606,15.634a183.792,183.792,0,0,0,8.689-22.208Zm-9.392,23.68c-6-3.015-44.93-14.531-49.331-15.83-5.478,4.928-10.991,10.332-16.416,16.237L95.031,79.544a.85.85,0,0,1,.191.088c2.41-3.528,4.618-7.161,6.64-10.842q1.867-3.4,3.524-6.837ZM94.261,81.017,38.425,63.695c-4.219,4.664-8.374,9.634-12.407,14.923C35.041,81.586,81.271,95.556,81.41,95.6a.789.789,0,0,1,.329.193A103.332,103.332,0,0,0,94.261,81.017Zm-13.8,15.994c-4.9-1.48-48.166-14.569-55.478-17.019Q19.794,86.9,14.934,94.522c10.908,5.28,47.637,14.5,47.747,14.524a.8.8,0,0,1,.5.373A81.141,81.141,0,0,0,80.456,97.011ZM61.305,110.383c-5.887-1.5-37.306-9.605-47.248-14.469q-3.088,4.947-6,10.2c4.19,1.615,22.965,8.644,35.114,9.8a.807.807,0,0,1,.707.583,75.438,75.438,0,0,0,17.424-6.112Zm-21.023,6.812c-12.44-1.844-29.436-8.254-33.011-9.637q-2.193,4.042-4.263,8.267c13.962,3.013,26.329,3.243,37.274,1.369ZM2.058,114.061Q3.977,110.193,6,106.479c-1.648-4.6-2.844-12.579-3.423-17.054-.059.549-.118,1.1-.171,1.654q-.555,5.763-.623,11.962-.053,5.322.274,11.018ZM3.107,85.237a.807.807,0,0,1,.71.712c0,.037,1.233,11.756,3.271,18.56q2.806-5.028,5.789-9.775A156.2,156.2,0,0,1,7.631,65.96,109.021,109.021,0,0,0,3.107,85.237Zm5.48-21.985a.8.8,0,0,1,.547.706,153.558,153.558,0,0,0,4.923,28.908q4.7-7.325,9.719-13.977c-.949-2.82-6.445-19.626-7.148-32.138q-2.114,3.394-3.961,7.075a93.105,93.105,0,0,0-4.079,9.426Zm9.25-18.39a.8.8,0,0,1,.381.655c.367,11.323,5.2,26.97,6.765,31.779,3.98-5.194,8.075-10.083,12.23-14.676C29.937,47.2,28.906,34.6,28.759,31.47A85.044,85.044,0,0,0,17.837,44.862ZM30.143,30.118a.792.792,0,0,1,.234.555c0,.039.068,13.432,8.036,30.631,5.437-5.922,10.967-11.344,16.463-16.29-3.261-7.354-6.34-25.7-6.753-28.206a92.789,92.789,0,0,0-12.974,8.88q-2.578,2.114-5.006,4.43ZM49.6,15.983a.754.754,0,0,1,.091.266c.01.058,3.141,19.6,6.476,27.607A254.464,254.464,0,0,1,76.515,27.59,90.521,90.521,0,0,1,74.337,6.251Q68.784,7.722,63.433,9.7A105.822,105.822,0,0,0,49.6,15.983ZM75.961,5.832a.8.8,0,0,1,.024.214A89.707,89.707,0,0,0,77.957,26.56c7.063-5.007,13.714-9.185,19.618-12.6A58.223,58.223,0,0,1,97.418,2.3,135.79,135.79,0,0,0,75.961,5.832Zm23.1-3.665a.727.727,0,0,1,0,.128,57.5,57.5,0,0,0,.058,10.774A196.242,196.242,0,0,1,121.131,2.144q-5.254-.369-10.561-.384Q104.843,1.746,99.064,2.168Z" transform="matrix(0.921, -0.391, 0.391, 0.921, 0, 48.72)" fill="#27aae1" fill-rule="evenodd" opacity="0.51"/>
    </g>
    <g id="Group_61" data-name="Group 61" transform="translate(1088.583 226.536)">
      <path id="Path_106" data-name="Path 106" d="M320.511,361.4s-21.471-11.273-17.536-38.948-12.691-36.428-16.909-44.661,5.239-21.511,4.164-33.136-14.249-14.737-8.076-30.685.952-22-7.175-39.087,3.915-43.19,9.638-43.045-1.254,6.25,3.776,17.606,26.249,14.812,32.89,24.307-5.031,22.075,2.545,34.893,30.15,8.84,36.12,21.279-8.263,27.343-4.123,40.384,19.384,20.43,25.8,30.906,18.433,30.543-1.246,54.5S320.511,361.4,320.511,361.4Z" transform="translate(-272.246 -131.833)" fill="#27aae1" fill-rule="evenodd" opacity="0.32"/>
      <g id="Group_60" data-name="Group 60" transform="translate(9.922 21.763)" opacity="0.18">
        <path id="Path_107" data-name="Path 107" d="M282.355,155.348a1.429,1.429,0,0,1,.8-1.837,1.389,1.389,0,0,1,1.806.815l88.819,234.86-3.342-.926Z" transform="translate(-282.261 -153.415)" fill="#359d9e" fill-rule="evenodd"/>
        <path id="Path_108" data-name="Path 108" d="M302.8,333.145q-.169-1.638-.206-3.381l58.337,33.372-5.16-13.647a1.5,1.5,0,0,1-.066-.174l-2.646-7-49.4-28.258c0-1.149-.046-2.262-.124-3.333l47.946,27.427-4.668-12.345-45.634-26.1a37.51,37.51,0,0,0-1.974-4.393l46.035,26.333-2.318-6.128a1.634,1.634,0,0,1-.07-.188l-10.137-26.807-45.68-26.13c.269-.921.549-1.851.827-2.79l43.279,24.757-5.062-13.382-35.988-20.586a28.987,28.987,0,0,0,.3-3.095l34.118,19.516L320.7,256.744c-.021-.046-.039-.095-.054-.142l-11.061-29.249-26.708-15.277c.335-.955.626-1.874.877-2.763l24.256,13.876-9.657-25.537a1.281,1.281,0,0,1-.056-.149l-15.943-42.154a1.429,1.429,0,0,1,.8-1.837,1.389,1.389,0,0,1,1.806.815l14.486,38.305,8.279-28.787c.855.439,1.7.877,2.537,1.32L301.1,197.009l10.885,28.783c.016.037.031.077.043.115L322.1,252.526l15.9-34.686c.895.292,1.8.571,2.7.841l-17.2,37.538,3.836,10.144,20.942-45.343c.9.313,1.78.645,2.63,1l-21.879,47.37.333.191a1.436,1.436,0,0,1,.537,1.936,1.4,1.4,0,0,1-.431.48l5.654,14.952c.019.044.036.086.049.13l9.155,24.2L359.834,277.7c.61.848,1.261,1.676,1.945,2.485l-16.065,34.785,2.355,6.224,17.2-37.246q1.052,1.047,2.14,2.068l-17.95,38.862,6,15.874c.017.041.031.081.045.123l1.662,4.393,22.038-47.714c.689.833,1.331,1.682,1.916,2.549l-22.562,48.85,6.35,16.784c.016.038.031.078.044.119l.02.049q-1.649.525-3.334.9Z" transform="translate(-282.261 -153.415)" fill="#359d9e" fill-rule="evenodd"/>
      </g>
    </g>
    <g id="Group_62" data-name="Group 62" transform="translate(986.477 406.952)">
      <path id="Path_109" data-name="Path 109" d="M236.091,451.7c-5.908-4.679-11.98-6.8-15.194-9.827-6.4-6.026-2.086-21.067-6.729-31.176s-17.478-8.59-16.966-24.96-6.1-20.107-18.813-32.816-10.131-40.138-4.936-41.884.847,6.036,8.963,14.605,28.3,4.727,37.274,11.094,2.453,21.509,13.321,30.558,29.921-1.921,39.222,7.314,1.212,27.306,9.059,37.682,23.9,12.032,32.983,19.354c5.108,4.117,12.767,10.383,16.692,20.056Z" transform="translate(-169.176 -310.791)" fill="#359d9e" fill-rule="evenodd" opacity="0.39"/>
      <path id="Path_110" data-name="Path 110" d="M279.232,451.534l-12.908-15.257-49.357-8.547c-.049-.916-.091-1.844-.138-2.78l46.763,8.1-8.785-10.38-38.885-6.733a27.44,27.44,0,0,0-.712-2.881l36.865,6.384-6.608-7.81a1.447,1.447,0,0,1-.094-.113l-19.2-22.689-28.858-5c0-.969-.029-1.891-.084-2.772l26.209,4.537L206.68,365.78a1.337,1.337,0,0,1-.1-.116l-27.67-32.7a1.374,1.374,0,0,1,.14-1.915,1.316,1.316,0,0,1,1.881.143L206.077,360.9l-1.652-28.611c.908.114,1.811.231,2.7.357l1.828,31.651,18.892,22.329c.027.028.052.06.075.09l17.472,20.651,3.335-36.413c.9-.029,1.8-.076,2.7-.128l-3.608,39.405,6.659,7.868,4.506-47.652c.91-.012,1.806,0,2.684.041l-4.709,49.784.361.065a1.354,1.354,0,0,1,1.1,1.564,1.388,1.388,0,0,1-.237.575l9.814,11.6c.03.032.058.066.085.1l14.681,17.352Zm4.863,0,3.2-33.871c.817.563,1.665,1.094,2.535,1.6l-3.052,32.274Zm7.23,0,2.84-30.034c.852.4,1.713.784,2.579,1.161l-2.731,28.873Zm17.568,0,2.114-22.358c.884.524,1.73,1.078,2.53,1.668l-1.958,20.69Z" transform="translate(-169.264 -310.624)" fill="#e1e8f6" fill-rule="evenodd"/>
    </g>
    <path id="Path_121" data-name="Path 121" d="M271.332,148.969a1.131,1.131,0,1,0-2.263,0v2.709H266.41a1.151,1.151,0,0,0,0,2.3h2.659v2.705a1.132,1.132,0,1,0,2.263,0v-2.705h2.659a1.151,1.151,0,0,0,0-2.3h-2.659Z" transform="translate(816.402 94.86)" fill-rule="evenodd" opacity="0.38" fill="url(#radial-gradient)"/>
    <g id="Group_66" data-name="Group 66" transform="translate(1040.452 336.736)">
      <path id="Path_124" data-name="Path 124" d="M315.173,317.825c16.027-8.671,20.1,10.195,13.863,25.816s-38.2,68.163-39.873,89c-.647,8.076-2.127,7.195-3.393,1.531C279.454,405.926,293.111,329.759,315.173,317.825Z" transform="translate(-224.226 -240.535)" fill="#359d9e" fill-rule="evenodd"/>
      <g id="Group_63" data-name="Group 63" transform="translate(29.795)">
        <path id="Path_125" data-name="Path 125" d="M280.953,246.872c-18.377-16.842-29.867,6.732-26.69,29.475s28.417,102.931,23.873,131.039c-1.762,10.895.481,10.226,3.988,3.163C299.627,375.327,306.25,270.056,280.953,246.872Z" transform="translate(-253.737 -241.159)" fill="#72dd97" fill-rule="evenodd"/>
        <path id="Path_126" data-name="Path 126" d="M277.881,415.113c.393,1.045,1.266.527,2.437-1.211,19.152-64.941-10.683-161.969-10.776-162.281a.993.993,0,0,0-1.245-.669,1.014,1.014,0,0,0-.657,1.267C267.733,252.534,297.976,350.885,277.881,415.113Z" transform="translate(-253.866 -241.077)" fill="#1b7154" fill-rule="evenodd"/>
      </g>
      <g id="Group_64" data-name="Group 64" transform="translate(0 57.925)">
        <path id="Path_127" data-name="Path 127" d="M240.535,300.35c-17.807-7.891-20.6,12.581-12.675,28.717s46.336,69.473,49.824,91.56c1.352,8.562,2.858,7.5,3.746,1.347C285.853,391.3,265.046,311.209,240.535,300.35Z" transform="translate(-223.66 -298.602)" fill="#5acb97" fill-rule="evenodd"/>
        <path id="Path_128" data-name="Path 128" d="M279.383,426.475c.549.679,1.072.071,1.519-1.52C279.29,371.73,233.34,307.014,233.195,306.8a.774.774,0,0,0-1.092-.181.8.8,0,0,0-.179,1.11C232.07,307.942,278.646,373.54,279.383,426.475Z" transform="translate(-223.736 -298.536)" fill="#5f9850" fill-rule="evenodd"/>
      </g>
      <g id="Group_65" data-name="Group 65" transform="translate(30.184 163.433)">
        <path id="Path_129" data-name="Path 129" d="M265.92,413.791h34.209l8.931,8.2-7.3,28.609h-37.48L256.988,422Z" transform="translate(-254.156 -403.146)" fill="#3b405f" fill-rule="evenodd"/>
        <path id="Rectangle_1960" data-name="Rectangle 1960" d="M2.857,0h52.02a2.858,2.858,0,0,1,2.858,2.858V15.992a2.858,2.858,0,0,1-2.858,2.858H2.859A2.859,2.859,0,0,1,0,15.991V2.857A2.857,2.857,0,0,1,2.857,0Z" fill="#3b405f"/>
        <path id="Path_130" data-name="Path 130" d="M309.06,421.928l-1.5,5.88H258.487l-1.5-5.88Z" transform="translate(-254.156 -403.078)" fill="#101537" fill-rule="evenodd"/>
      </g>
    </g>
    <g id="Group_68" data-name="Group 68" transform="translate(1128.007 403.264)">
      <path id="Path_132" data-name="Path 132" d="M413.118,445.875s-27.952-35.614-20.089-81.571c0,0,67.978,34.26,71.559,77.383l46.66.316s52.423-49.031,106.5-52.662c0,0-7.394,52.925-55.77,60.247Z" transform="translate(-312.741 -323.752)" fill="url(#linear-gradient)"/>
      <path id="Path_133" data-name="Path 133" d="M526.284,433.735s1.551-86.36,91.644-104.858c0,0,10.826,82.454-80.665,105.176Z" transform="translate(-314 -324.049)" fill="url(#radial-gradient-2)"/>
      <path id="Path_134" data-name="Path 134" d="M372.3,446.816s-55.7-25.731-60.3-122.727c0,0,74.542,7.708,100.377,122.123Z" transform="translate(-311.997 -324.089)" fill="url(#linear-gradient-2)"/>
      <path id="Path_135" data-name="Path 135" d="M617.928,328.877,526.284,433.735l13.686-3.21S617.569,411.716,617.928,328.877Z" transform="translate(-314 -324.049)" fill="#bde0ff" style="mix-blend-mode: soft-light;isolation: isolate"/>
      <path id="Path_136" data-name="Path 136" d="M316.665,329.8l77.108,116.611-18.993-1.773S315.554,407.242,316.665,329.8Z" transform="translate(-312.041 -324.041)" fill="#bde0ff" style="mix-blend-mode: soft-light;isolation: isolate"/>
      <path id="Path_137" data-name="Path 137" d="M83.595,28.018S44.455-18.647,0,8.471C0,8.471,29.669,60.708,83.595,28.018Z" transform="matrix(0.978, -0.208, 0.208, 0.978, 34.117, 102.351)" fill="url(#radial-gradient-3)"/>
      <path id="Path_138" data-name="Path 138" d="M0,0,79.931,16.972S41.125,50.646,0,0Z" transform="matrix(0.978, -0.208, 0.208, 0.978, 35.878, 110.637)" fill="#bde0ff" style="mix-blend-mode: soft-light;isolation: isolate"/>
    </g>
    <g id="Group_69" data-name="Group 69" transform="translate(1163.687 323.346)">
      <path id="Path_165" data-name="Path 165" d="M102.746,0C159.273-.218,204.919,44.7,204.7,100.337S158.482,201.246,101.955,201.465-.218,156.761,0,101.128,46.22.219,102.746,0Z" transform="translate(20.478 224.773) rotate(-90)" fill="url(#linear-gradient-3)"/>
      <path id="Path_139" data-name="Path 139" d="M466.275,255.865l-.143-8.108s44.225-4.981,77.919,32.6l-6.351,4.9S510.841,253.821,466.275,255.865Z" transform="translate(-349.162 -227.715)" fill="#fff" style="mix-blend-mode: soft-light;isolation: isolate"/>
      <path id="Path_140" data-name="Path 140" d="M545.014,292.805l6.681-4.364s7.931,10.634,11.41,19.753l-7.832,1.961A102.679,102.679,0,0,0,545.014,292.805Z" transform="translate(-349.899 -227.372)" fill="#fff" style="mix-blend-mode: soft-light;isolation: isolate"/>
      <path id="Path_166" data-name="Path 166" d="M97.7,0c53.756-.2,97.173,42.522,96.974,95.421s-43.939,95.943-97.7,96.142S-.2,149.041,0,96.143,43.94.2,97.7,0Z" transform="translate(25.361 215.933) rotate(-90)" fill="url(#radial-gradient-4)"/>
      <path id="Path_167" data-name="Path 167" d="M75.186,0c41.371-.153,74.785,32.726,74.632,73.436S116,147.272,74.633,147.425-.152,114.7,0,73.989,33.815.153,75.186,0Z" transform="translate(33.057 175.919) rotate(-77.592)" fill="url(#linear-gradient-4)"/>
      <path id="Path_168" data-name="Path 168" d="M67.676,0c37.239-.137,67.316,29.457,67.178,66.1s-30.437,66.461-67.676,66.6S-.137,103.243,0,66.6,30.437.138,67.676,0Z" transform="translate(41.949 174.75) rotate(-77.608)" fill="url(#linear-gradient-5)"/>
      <ellipse id="Ellipse_54" data-name="Ellipse 54" cx="3.903" cy="3.973" rx="3.903" ry="3.973" transform="translate(58.61 113.895)" fill="url(#linear-gradient-6)"/>
      <ellipse id="Ellipse_55" data-name="Ellipse 55" cx="3.903" cy="3.973" rx="3.903" ry="3.973" transform="translate(175.598 111.755)" fill="url(#linear-gradient-7)"/>
      <ellipse id="Ellipse_56" data-name="Ellipse 56" cx="3.903" cy="3.973" rx="3.903" ry="3.973" transform="translate(117.612 52.394)" fill="url(#linear-gradient-8)"/>
      <path id="Path_144" data-name="Path 144" d="M452.229,276.283l8.747,23.684s35.4-.1,53.431,21.541l17.485-9.158C527.718,297.045,495.759,264.824,452.229,276.283Z" transform="translate(-349.032 -227.494)" fill="#fff" opacity="0.73"/>
      <path id="Path_145" data-name="Path 145" d="M428.525,402.65,436.86,390.3s19.59,13.55,49.77,10.934l4.565,13.107S458.307,425.671,428.525,402.65Z" transform="translate(-348.81 -226.519)" fill="#fff" style="mix-blend-mode: soft-light;isolation: isolate"/>
      <path id="Path_146" data-name="Path 146" d="M488.849,250.661s12.384,31.475,37.854,16.768A82.96,82.96,0,0,0,488.849,250.661Z" transform="translate(-349.374 -227.689)" fill="#fff"/>
    </g>
  </g>
</svg>
