<svg xmlns="http://www.w3.org/2000/svg" width="39.096" height="39.107" viewBox="0 0 39.096 39.107"><defs><style>.a{fill:#256ae5;}</style></defs><g transform="translate(-0.073)"><g transform="translate(0.073)"><path class="a" d="M39.169,5.41a5.41,5.41,0,0,0-10.7-1.141h-7.5a3.794,3.794,0,0,0-2.7,1.118L1.192,22.458a3.819,3.819,0,0,0,0,5.4L11.321,37.989a3.819,3.819,0,0,0,5.4,0l5.907-5.907A.764.764,0,1,0,21.549,31l-5.907,5.907a2.294,2.294,0,0,1-3.24,0L2.272,26.779a2.291,2.291,0,0,1,0-3.241L19.347,6.468a2.276,2.276,0,0,1,1.62-.671h7.4a5.369,5.369,0,0,0,1.569,3.439.764.764,0,1,0,1.08-1.08A3.853,3.853,0,0,1,29.9,5.8h1.2a2.294,2.294,0,0,1,2.291,2.291V18.213a2.276,2.276,0,0,1-.671,1.62L26.41,26.141a.764.764,0,0,0,1.08,1.08L33.8,20.913a3.794,3.794,0,0,0,1.119-2.7V10.7A5.39,5.39,0,0,0,39.169,5.41ZM34.916,9.118V8.088A3.823,3.823,0,0,0,31.1,4.269H30.048a3.883,3.883,0,1,1,4.868,4.849Z" transform="translate(-0.073)"/><path class="a" d="M99.978,313.087a.764.764,0,1,0-1.08-1.08l-1.839,1.839a.764.764,0,0,0,0,1.08l4.537,4.537a.764.764,0,1,0,1.08-1.08l-1.771-1.771,1.153-1.153a.764.764,0,1,0-1.08-1.08l-1.153,1.153-1.145-1.145Z" transform="translate(-89.445 -287.969)"/><path class="a" d="M162.254,260.739a.764.764,0,0,0,.048-1.526l-2.525-.161a2.554,2.554,0,0,0,.346-1.207,2.366,2.366,0,0,0-.687-1.768,2.483,2.483,0,0,0-3.505.067l-1.206,1.206h0a.764.764,0,0,0,0,1.08l4.537,4.537a.764.764,0,0,0,1.08-1.08l-1.356-1.356,3.22.205Zm-5.243-3.515a.967.967,0,0,1,1.345-.067.853.853,0,0,1,.241.64,1.054,1.054,0,0,1-.307.7c-.153.153-.417.419-.658.662l-.643-.639-.64-.638Z" transform="translate(-142.705 -235.88)"/><path class="a" d="M282.784,138.471l1.912-1.912a.764.764,0,0,0-1.08-1.08l-1.371,1.371-1.188-1.188,1.23-1.231a.764.764,0,0,0-1.08-1.08l-1.23,1.231-1.188-1.188,1.372-1.371a.764.764,0,1,0-1.08-1.08l-1.912,1.912a.764.764,0,0,0,0,1.08l2.268,2.268h0l2.268,2.268a.764.764,0,0,0,1.08,0Z" transform="translate(-255.796 -120.735)"/><path class="a" d="M224.249,196.693a.764.764,0,0,0,.54-.224l1.912-1.912a.764.764,0,0,0-1.08-1.08l-1.371,1.371-1.188-1.188,1.231-1.231a.764.764,0,0,0-1.08-1.08l-1.231,1.231-1.188-1.188,1.372-1.371a.764.764,0,0,0-1.08-1.08l-1.912,1.912a.764.764,0,0,0,0,1.08l4.537,4.537A.764.764,0,0,0,224.249,196.693Z" transform="translate(-202.231 -174.303)"/><path class="a" d="M310.9,371.139a.764.764,0,1,0,.54.224A.77.77,0,0,0,310.9,371.139Z" transform="translate(-286.456 -342.792)"/></g></g></svg>