<svg xmlns="http://www.w3.org/2000/svg" xmlns:xlink="http://www.w3.org/1999/xlink" width="20" height="20" viewBox="0 0 20 20"><defs><style>.a{fill:#4267b2;}.b{clip-path:url(#a);}.c{fill:#fbbd00;}.d{fill:#0f9d58;}.e{fill:#31aa52;}.f{fill:#3c79e6;}.g{fill:#cf2d48;}.h{fill:#eb4132;}</style><clipPath id="a"><path class="a" d="M18.9,0H1.1A1.1,1.1,0,0,0,0,1.1V18.9A1.1,1.1,0,0,0,1.1,20H18.9A1.1,1.1,0,0,0,20,18.9h0V1.1A1.1,1.1,0,0,0,18.9,0Zm0,0"/></clipPath></defs><g transform="translate(0)"><g class="b"><g transform="translate(0)"><path class="c" d="M4.687,10a5.28,5.28,0,0,1,.747-2.714V3.915H2.063a10.005,10.005,0,0,0,0,12.171H5.435V12.714A5.28,5.28,0,0,1,4.687,10Z"/><path class="d" d="M10,15.312,7.656,17.656,10,20a9.924,9.924,0,0,0,6.085-2.063V14.569H12.718A5.312,5.312,0,0,1,10,15.312Z"/><path class="e" d="M5.435,12.714,2.063,16.085a10.159,10.159,0,0,0,.866.986A9.935,9.935,0,0,0,10,20V15.312a5.315,5.315,0,0,1-4.565-2.6Z"/><path class="f" d="M20,10a10.088,10.088,0,0,0-.164-1.812l-.088-.48H10V12.4h4.744a5.288,5.288,0,0,1-2.027,2.173l3.368,3.368a10.159,10.159,0,0,0,.986-.866A9.935,9.935,0,0,0,20,10Z"/><path class="g" d="M13.757,6.243l.414.414,3.315-3.315-.414-.414A9.935,9.935,0,0,0,10,0L7.656,2.344,10,4.687A5.278,5.278,0,0,1,13.757,6.243Z"/><path class="h" d="M10,4.687V0A9.935,9.935,0,0,0,2.929,2.929a10.15,10.15,0,0,0-.866.986L5.435,7.286A5.315,5.315,0,0,1,10,4.687Z"/></g></g></g></svg>