<svg xmlns="http://www.w3.org/2000/svg" xmlns:xlink="http://www.w3.org/1999/xlink" width="558" height="345" viewBox="0 0 558 345"><defs><style>.a{fill:none;}.b{fill:#72dd97;opacity:0.15;}.b,.i,.j,.k{fill-rule:evenodd;}.c{opacity:0.17;fill:url(#a);}.d{opacity:0.23;fill:url(#b);}.e,.j,.x{fill:#fff;}.f{fill:#5134a1;}.g{fill:#3996f7;}.h{fill:#6840d5;}.i{fill:url(#c);}.k{fill:url(#e);}.l{fill:url(#i);}.m{fill:#bde0ff;}.m,.x{mix-blend-mode:soft-light;}.ab,.ac,.m,.u,.x{isolation:isolate;}.n{fill:url(#j);}.o{fill:url(#k);}.p{fill:url(#l);}.q{fill:url(#m);}.r{fill:url(#n);}.s{fill:url(#o);}.t{fill:url(#s);}.ab,.ac,.u{mix-blend-mode:multiply;}.u{fill:url(#t);}.v{fill:#3d267d;}.w{fill:url(#v);}.y{fill:url(#w);}.z{fill:#251468;}.aa{fill:url(#x);}.ab{fill:#5b39b8;opacity:0.62;}.ac{fill:#c99ac7;opacity:0.86;}.ad{clip-path:url(#z);}.ae{filter:url(#g);}</style><linearGradient id="a" x1="1.178" y1="3.528" x2="0.121" y2="4.105" gradientUnits="objectBoundingBox"><stop offset="0" stop-color="#6840d5"/><stop offset="1" stop-color="#3996f7"/></linearGradient><linearGradient id="b" x1="1.198" y1="6.453" x2="0.141" y2="7.03" xlink:href="#a"/><linearGradient id="c" x1="0.5" x2="0.5" y2="1" gradientUnits="objectBoundingBox"><stop offset="0" stop-color="#359d9e"/><stop offset="1" stop-color="#72dd97"/></linearGradient><linearGradient id="e" y1="1" y2="0" xlink:href="#c"/><filter id="g" x="306.411" y="267.985" width="90.638" height="53.839" filterUnits="userSpaceOnUse"><feOffset dy="3" input="SourceAlpha"/><feGaussianBlur stdDeviation="3" result="h"/><feFlood flood-color="#fff" flood-opacity="0.161"/><feComposite operator="in" in2="h"/><feComposite in="SourceGraphic"/></filter><radialGradient id="i" cx="0.4" cy="0.013" r="0.838" gradientTransform="matrix(-0.762, 0.18, 0.139, 0.984, 0.707, -0.098)" gradientUnits="objectBoundingBox"><stop offset="0" stop-color="#3996f7"/><stop offset="1" stop-color="#6840d5"/></radialGradient><linearGradient id="j" x1="0.296" y1="-0.16" x2="0.296" y2="1.416" gradientUnits="objectBoundingBox"><stop offset="0" stop-color="#1c257b"/><stop offset="1" stop-color="#6a2c9a"/></linearGradient><linearGradient id="k" x1="1" y1="0.5" x2="0" y2="0.5" gradientUnits="objectBoundingBox"><stop offset="0" stop-color="#3d2c97"/><stop offset="1" stop-color="#183683"/></linearGradient><linearGradient id="l" x1="0.5" y1="1" x2="0.5" gradientUnits="objectBoundingBox"><stop offset="0" stop-color="#7459f1"/><stop offset="1" stop-color="#60b3f7"/></linearGradient><linearGradient id="m" x1="0.5" y1="1" x2="0.5" gradientUnits="objectBoundingBox"><stop offset="0" stop-color="#744fd8"/><stop offset="1" stop-color="#3996f7"/></linearGradient><linearGradient id="n" x1="1" y1="0.5" x2="0" y2="0.5" xlink:href="#k"/><linearGradient id="o" x1="1" y1="0.5" x2="0" y2="0.5" xlink:href="#k"/><linearGradient id="s" x1="0.5" y1="1" x2="0.5" y2="0" xlink:href="#k"/><linearGradient id="t" x1="0.5" y1="1" x2="0.5" gradientUnits="objectBoundingBox"><stop offset="0" stop-color="#8b8be0"/><stop offset="1" stop-color="#a177b7"/></linearGradient><linearGradient id="v" x1="0.5" y1="1" x2="0.5" gradientUnits="objectBoundingBox"><stop offset="0" stop-color="#5d39c1"/><stop offset="0.468" stop-color="#6840d5"/><stop offset="1" stop-color="#3996f7"/></linearGradient><linearGradient id="w" x1="0.5" y1="1" x2="0.5" y2="0" xlink:href="#a"/><linearGradient id="x" x1="0.5" y1="1" x2="0.5" gradientUnits="objectBoundingBox"><stop offset="0" stop-color="#3d2cb0"/><stop offset="1" stop-color="#0355c7"/></linearGradient><clipPath id="z"><path class="a" d="M320.821,76.784l49.616,28.276-6.549,82.315-7.965,74.761a22.717,22.717,0,0,1-44.5,6.441l-.034,0-40.29-59.5L239.312,96.171Z" transform="translate(-239.312 -76.784)"/></clipPath></defs><g transform="translate(0 0)"><path class="b" d="M513.99,287.183h50.641a49.677,49.677,0,0,1,49.555,49.51h0A49.677,49.677,0,0,1,564.631,386.2h-428.2c-44.134,0-80.242-36.076-80.242-80.169v0c0-44.092,36.108-80.169,80.242-80.169h0a34.013,34.013,0,0,0,33.927-33.9h0a34.011,34.011,0,0,0-33.927-33.9H95.594a35.361,35.361,0,0,1-35.273-35.243h0A35.361,35.361,0,0,1,95.594,87.582H147.23a13.767,13.767,0,0,0,13.732-13.721h0a13.766,13.766,0,0,0-13.732-13.72h-9.1a9.5,9.5,0,0,1-9.478-9.469h0a9.5,9.5,0,0,1,9.478-9.47h59.727c12.578,0,13.98,14.847,45.753,14.847h73.676A12.4,12.4,0,0,1,329.65,68.4h0a12.4,12.4,0,0,1-12.367,12.356H305.407a17.966,17.966,0,0,0-17.921,17.9h0a17.966,17.966,0,0,0,17.921,17.9h35.745c48.267,0,55.085,12.6,63.539,37.668s52.357,27.086,52.357,27.086h60.032A27.072,27.072,0,0,1,544.086,208.3h0a27.073,27.073,0,0,1-27.005,26.981H513.99a26.038,26.038,0,0,0-25.974,25.95h0a26.039,26.039,0,0,0,25.974,25.951ZM111.53,60.141a9.469,9.469,0,1,0-9.478-9.469A9.474,9.474,0,0,0,111.53,60.141Z" transform="translate(-56.186 -41.202)"/><g transform="translate(116.189 98.618)"><g transform="translate(0 0)"><g transform="translate(258.522)"><path class="c" d="M380.4,100.543c.657-5.621-5.741-13.551-17.316-6.545-.318-2.661-14.84-10.942-21.566,6.478-1.15-4.225-11.69-2.106-13.586,5.035-3.962-1.763-13.491,7.087-.88,8.615,16.1,1.951,53,1.386,59.618-8.277S380.4,100.543,380.4,100.543Z" transform="translate(-278.274 -89.692)"/><path class="d" d="M531.012,156.529c.364-3.107-3.173-7.49-9.57-3.618-.176-1.471-8.2-6.047-11.92,3.581-.636-2.335-6.461-1.164-7.509,2.783-2.19-.974-7.456,3.917-.486,4.762,8.9,1.078,29.294.766,32.951-4.575S531.012,156.529,531.012,156.529Z" transform="translate(-498.04 -125.547)"/></g><path class="e" d="M.43,1.012,1.586.722A.373.373,0,0,0,1.851.28.347.347,0,0,0,1.43.01h0L.274.3A.372.372,0,0,0,.009.743.345.345,0,0,0,.43,1.012Z" transform="translate(156.507 235.725) rotate(-159)"/><path class="e" d="M.433,1.02l1.155-.3A.375.375,0,0,0,1.854.279.348.348,0,0,0,1.429.011h0L.274.307A.375.375,0,0,0,.009.752.348.348,0,0,0,.433,1.02Z" transform="translate(152.563 235.263) rotate(-159)"/><path class="e" d="M.437,1.028l1.154-.3A.377.377,0,0,0,1.857.28.35.35,0,0,0,1.428.011h0L.274.311A.376.376,0,0,0,.01.759.349.349,0,0,0,.437,1.028Z" transform="translate(148.617 234.815) rotate(-159)"/><path class="e" d="M.44,1.033l1.153-.3A.379.379,0,0,0,1.86.281a.352.352,0,0,0-.431-.27h0L.276.313A.379.379,0,0,0,.01.764.352.352,0,0,0,.44,1.033Z" transform="translate(144.67 234.375) rotate(-159)"/><path class="e" d="M.443,1.037,1.6.737A.381.381,0,0,0,1.864.283.355.355,0,0,0,1.431.011h0L.277.313A.381.381,0,0,0,.01.766.353.353,0,0,0,.443,1.037Z" transform="translate(140.724 233.936) rotate(-159)"/><path class="e" d="M.445,1.04,1.6.742A.383.383,0,0,0,1.869.286.356.356,0,0,0,1.434.011h0L.279.311A.383.383,0,0,0,.01.766.356.356,0,0,0,.445,1.04Z" transform="translate(136.779 233.492) rotate(-159)"/><path class="e" d="M.446,1.041,1.6.746A.386.386,0,0,0,1.874.288.359.359,0,0,0,1.437.011h0L.282.307A.385.385,0,0,0,.01.765.357.357,0,0,0,.446,1.041Z" transform="translate(132.835 233.04) rotate(-159)"/><path class="e" d="M.448,1.041,1.6.75A.387.387,0,0,0,1.879.291a.359.359,0,0,0-.438-.28h0L.285.3A.387.387,0,0,0,.009.761.36.36,0,0,0,.448,1.041Z" transform="translate(128.893 232.574) rotate(-159)"/><path class="e" d="M.448,1.039,1.6.755a.39.39,0,0,0,.281-.46A.362.362,0,0,0,1.446.01h0L.288.3a.389.389,0,0,0-.279.46A.362.362,0,0,0,.448,1.039Z" transform="translate(124.956 232.089) rotate(-159)"/><path class="e" d="M.448,1.036,1.606.76A.391.391,0,0,0,1.891.3.365.365,0,0,0,1.452.01h0L.292.288A.391.391,0,0,0,.008.749.364.364,0,0,0,.448,1.036Z" transform="translate(121.021 231.581) rotate(-159)"/><path class="e" d="M.448,1.032,1.608.765A.394.394,0,0,0,1.9.3a.367.367,0,0,0-.44-.295h0L.3.278A.393.393,0,0,0,.008.74.366.366,0,0,0,.448,1.032Z" transform="translate(117.092 231.044) rotate(-159)"/><path class="e" d="M.447,1.026,1.609.77A.4.4,0,0,0,1.9.309a.369.369,0,0,0-.439-.3h0L.3.267A.4.4,0,0,0,.007.728.368.368,0,0,0,.447,1.026Z" transform="translate(113.169 230.473) rotate(-159)"/><path class="e" d="M.447,1.02,1.61.775a.4.4,0,0,0,.3-.46A.371.371,0,0,0,1.473.008h0L.307.254a.4.4,0,0,0-.3.461A.371.371,0,0,0,.447,1.02Z" transform="translate(109.253 229.865) rotate(-159)"/><path class="e" d="M.445,1.011,1.61.78A.4.4,0,0,0,1.92.32.374.374,0,0,0,1.482.007h0L.312.24A.4.4,0,0,0,.006.7.374.374,0,0,0,.445,1.011Z" transform="translate(105.345 229.214) rotate(-159)"/><path class="e" d="M.443,1,1.611.785A.4.4,0,0,0,1.927.327.376.376,0,0,0,1.491.006h0L.319.224A.4.4,0,0,0,0,.683.376.376,0,0,0,.443,1Z" transform="translate(101.446 228.514) rotate(-159)"/><path class="e" d="M.44.99,1.61.79A.4.4,0,0,0,1.934.335.378.378,0,0,0,1.5.005h0L.325.207A.4.4,0,0,0,0,.663.379.379,0,0,0,.44.99Z" transform="translate(97.56 227.762) rotate(-159)"/><path class="e" d="M.437.977,1.609.795A.4.4,0,0,0,1.942.342.381.381,0,0,0,1.51,0h0L.332.189A.4.4,0,0,0,0,.642.381.381,0,0,0,.437.977Z" transform="translate(93.686 226.954) rotate(-159)"/><path class="e" d="M.433.963,1.608.8A.406.406,0,0,0,1.949.35.383.383,0,0,0,1.521,0h0L.34.168A.405.405,0,0,0,0,.619.383.383,0,0,0,.433.963Z" transform="translate(89.827 226.084) rotate(-159)"/><path class="e" d="M.429.946,1.606.8h0A.408.408,0,0,0,1.956.357.385.385,0,0,0,1.53,0h0L.349.146A.407.407,0,0,0,0,.594.385.385,0,0,0,.427.947Z" transform="translate(85.986 225.148) rotate(-159)"/><path class="e" d="M.424.93,1.6.81h0A.409.409,0,0,0,1.962.366.388.388,0,0,0,1.541,0h0L.358.124A.408.408,0,0,0,0,.567.387.387,0,0,0,.423.93Z" transform="translate(82.163 224.142) rotate(-159)"/><path class="e" d="M.419.911,1.6.814h0A.411.411,0,0,0,1.969.376.391.391,0,0,0,1.552,0h0L.367.1A.41.41,0,0,0,0,.538.39.39,0,0,0,.417.911Z" transform="translate(78.362 223.062) rotate(-159)"/><path class="e" d="M.413.89,1.595.819h0A.412.412,0,0,0,1.974.386.393.393,0,0,0,1.563,0h0L.377.074A.411.411,0,0,0,0,.507.392.392,0,0,0,.412.89Z" transform="translate(74.586 221.903) rotate(-159)"/><path class="e" d="M.407.869,1.589.824h0A.413.413,0,0,0,1.98.4.4.4,0,0,0,1.575,0h0L.387.047A.413.413,0,0,0,0,.474a.4.4,0,0,0,.4.4Z" transform="translate(70.836 220.664) rotate(-159)"/><path class="e" d="M.4.846,1.583.828h0a.415.415,0,0,0,.4-.42A.4.4,0,0,0,1.586,0h0L.4.019a.414.414,0,0,0-.4.42A.4.4,0,0,0,.4.846Z" transform="translate(67.117 219.34) rotate(-159)"/><path class="e" d="M.394.831l1.181.01h0a.416.416,0,0,0,.41-.413A.4.4,0,0,0,1.6.009h0L.409,0A.415.415,0,0,0,0,.412.4.4,0,0,0,.391.831Z" transform="translate(63.428 217.937) rotate(-159)"/><path class="e" d="M.386.835l1.18.042h0a.417.417,0,0,0,.422-.4A.405.405,0,0,0,1.609.041h0L.422,0A.416.416,0,0,0,0,.4.4.4,0,0,0,.382.835Z" transform="translate(59.768 216.462) rotate(-159)"/><path class="e" d="M.376.839,1.554.916h0A.418.418,0,0,0,1.993.523.408.408,0,0,0,1.621.077h0L.435,0A.417.417,0,0,0,0,.394.407.407,0,0,0,.373.839Z" transform="translate(56.154 214.884) rotate(-159)"/><path class="e" d="M.367.842,1.541.954h0A.419.419,0,0,0,1.992.572.411.411,0,0,0,1.631.113h0L.449,0A.418.418,0,0,0,0,.384.41.41,0,0,0,.363.842Z" transform="translate(52.588 213.2) rotate(-159)"/><path class="e" d="M.357.845l1.17.146h0a.419.419,0,0,0,.46-.371.414.414,0,0,0-.35-.472h0L.463,0A.419.419,0,0,0,0,.374a.413.413,0,0,0,.35.471Z" transform="translate(49.075 211.413) rotate(-159)"/><path class="e" d="M.347.848l1.166.181h0A.421.421,0,0,0,1.988.67.417.417,0,0,0,1.649.186h0L.477,0A.42.42,0,0,0,.006.364.416.416,0,0,0,.344.848Z" transform="translate(45.616 209.523) rotate(-159)"/><path class="e" d="M.337.85l1.16.216h0A.422.422,0,0,0,1.984.72a.421.421,0,0,0-.326-.5h0L.491.007A.421.421,0,0,0,.008.353a.419.419,0,0,0,.327.5Z" transform="translate(42.217 207.531) rotate(-159)"/><path class="e" d="M.327.852,1.479,1.1h0a.422.422,0,0,0,.5-.333A.423.423,0,0,0,1.665.26h0L.5.009A.422.422,0,0,0,.01.343.424.424,0,0,0,.324.851Z" transform="translate(38.878 205.437) rotate(-159)"/><path class="e" d="M.317.853l1.144.287h0a.423.423,0,0,0,.508-.32A.427.427,0,0,0,1.671.3h0L.52.012a.423.423,0,0,0-.506.32.427.427,0,0,0,.3.521Z" transform="translate(35.606 203.242) rotate(-159)"/><path class="e" d="M.306.855l1.134.323h0a.423.423,0,0,0,.519-.3A.43.43,0,0,0,1.677.34h0L.535.015A.423.423,0,0,0,.017.32.43.43,0,0,0,.3.854Z" transform="translate(32.403 200.945) rotate(-159)"/><path class="e" d="M.294.855l1.123.36,0,0a.425.425,0,0,0,.53-.289.434.434,0,0,0-.27-.546h0L.549.019A.423.423,0,0,0,.021.308a.433.433,0,0,0,.27.545Z" transform="translate(29.276 198.544) rotate(-159)"/><path class="e" d="M.283.855l1.11.4h0A.425.425,0,0,0,1.939.983.437.437,0,0,0,1.685.425h0L.565.024A.425.425,0,0,0,.025.3.437.437,0,0,0,.279.853Z" transform="translate(26.231 196.04) rotate(-159)"/><path class="e" d="M.271.854l1.1.439,0,0a.426.426,0,0,0,.553-.254A.441.441,0,0,0,1.687.47h0L.582.029A.425.425,0,0,0,.03.283.44.44,0,0,0,.267.852Z" transform="translate(23.273 193.43) rotate(-159)"/><path class="e" d="M.258.852l1.079.479,0,0A.427.427,0,0,0,1.9,1.1.444.444,0,0,0,1.687.517h0L.6.035A.426.426,0,0,0,.037.27a.443.443,0,0,0,.218.58Z" transform="translate(20.41 190.714) rotate(-159)"/><path class="e" d="M.245.85l1.06.522,0,0a.427.427,0,0,0,.574-.213.448.448,0,0,0-.2-.593h0L.616.042A.427.427,0,0,0,.043.256a.448.448,0,0,0,.2.592Z" transform="translate(17.652 187.888) rotate(-159)"/><path class="e" d="M.231.846l1.038.565,0,0a.428.428,0,0,0,.584-.191.452.452,0,0,0-.175-.6h0L.635.05A.427.427,0,0,0,.051.241a.451.451,0,0,0,.175.6Z" transform="translate(15.006 184.952) rotate(-159)"/><path class="e" d="M.216.841l1.013.611,0,0a.428.428,0,0,0,.594-.166.455.455,0,0,0-.15-.614h0L.654.06A.428.428,0,0,0,.061.226.454.454,0,0,0,.211.838Z" transform="translate(12.484 181.904) rotate(-159)"/><path class="e" d="M.2.835l.984.658,0,0a.429.429,0,0,0,.6-.138A.458.458,0,0,0,1.669.734h0l-1-.663a.428.428,0,0,0-.6.139A.458.458,0,0,0,.2.832Z" transform="translate(10.099 178.743) rotate(-159)"/><path class="e" d="M.184.827l.952.706.005,0a.429.429,0,0,0,.611-.109A.463.463,0,0,0,1.657.8h0L.694.083a.429.429,0,0,0-.61.109.462.462,0,0,0,.1.632Z" transform="translate(7.864 175.469) rotate(-159)"/><path class="e" d="M.168.817l.915.756.005,0A.43.43,0,0,0,1.705,1.5a.466.466,0,0,0-.064-.64h0L.714.1A.429.429,0,0,0,.1.174.465.465,0,0,0,.163.813Z" transform="translate(8.344 165.435) rotate(-159)"/><path class="e" d="M.151.806l.873.807.005,0a.431.431,0,0,0,.623-.042A.469.469,0,0,0,1.621.929h0L.736.113A.43.43,0,0,0,.114.156.468.468,0,0,0,.145.8Z" transform="translate(6.628 161.481) rotate(-159)"/><path class="e" d="M.133.792l.825.858.005.006a.432.432,0,0,0,.627,0A.472.472,0,0,0,1.6,1h0L.758.132A.431.431,0,0,0,.132.137a.472.472,0,0,0,0,.65Z" transform="translate(5.122 157.39) rotate(-159)"/><path class="e" d="M.114.776l.772.91.006.007a.433.433,0,0,0,.628.036.477.477,0,0,0,.044-.653h0L.779.153A.432.432,0,0,0,.152.118.476.476,0,0,0,.109.77Z" transform="translate(3.844 153.164) rotate(-159)"/><path class="e" d="M.1.757l.712.96.005.007a.434.434,0,0,0,.627.078.479.479,0,0,0,.085-.652h0L.8.177A.433.433,0,0,0,.176.1.477.477,0,0,0,.092.75Z" transform="translate(2.812 148.813) rotate(-159)"/><path class="e" d="M.079.736.727,1.745l0,.008a.436.436,0,0,0,.622.122.481.481,0,0,0,.127-.648h0L.822.2A.435.435,0,0,0,.2.081.48.48,0,0,0,.074.729Z" transform="translate(2.043 144.348) rotate(-159)"/><path class="e" d="M.064.713l.58,1.053,0,.008a.438.438,0,0,0,.615.166.482.482,0,0,0,.17-.641h0L.843.231A.438.438,0,0,0,.228.065.482.482,0,0,0,.059.705Z" transform="translate(1.548 139.786) rotate(-159)"/><path class="e" d="M.049.689.558,1.78l0,.009a.441.441,0,0,0,.6.21.484.484,0,0,0,.212-.631h0L.86.259A.44.44,0,0,0,.256.05.483.483,0,0,0,.045.681Z" transform="translate(1.329 135.149) rotate(-159)"/><path class="e" d="M.036.663.474,1.789l0,.009a.444.444,0,0,0,.592.253.486.486,0,0,0,.253-.618h0L.876.289A.443.443,0,0,0,.285.037.484.484,0,0,0,.033.655Z" transform="translate(1.387 130.457) rotate(-159)"/><path class="e" d="M.025.637.39,1.792l0,.009A.447.447,0,0,0,.969,2.1a.486.486,0,0,0,.293-.6h0L.891.32A.447.447,0,0,0,.314.026a.486.486,0,0,0-.292.6Z" transform="translate(1.718 125.732) rotate(-159)"/><path class="e" d="M.017.61.309,1.788l0,.009a.45.45,0,0,0,.558.334A.487.487,0,0,0,1.2,1.546h0L.9.351A.45.45,0,0,0,.344.017.486.486,0,0,0,.015.6Z" transform="translate(2.316 120.996) rotate(-159)"/><path class="e" d="M.01.584l.22,1.2,0,.009a.454.454,0,0,0,.54.372.487.487,0,0,0,.367-.566h0L.913.381A.454.454,0,0,0,.374.01.486.486,0,0,0,.008.575Z" transform="translate(3.17 116.268) rotate(-159)"/><path class="e" d="M0,.557l.15,1.209v.008a.458.458,0,0,0,.518.408.487.487,0,0,0,.4-.545h0L.921.412A.458.458,0,0,0,.4,0,.486.486,0,0,0,0,.55Z" transform="translate(4.272 111.565) rotate(-159)"/><path class="e" d="M0,.531.082,1.749v.008a.463.463,0,0,0,.5.441.487.487,0,0,0,.432-.522h0L.928.441A.461.461,0,0,0,.432,0,.486.486,0,0,0,0,.523Z" transform="translate(5.609 106.907) rotate(-159)"/><path class="e" d="M0,.506.014,1.727v.008a.467.467,0,0,0,.473.472.487.487,0,0,0,.462-.5h0L.933.471A.466.466,0,0,0,.461,0,.486.486,0,0,0,0,.5Z" transform="translate(7.169 102.305) rotate(-159)"/><path class="e" d="M.051.481,0,1.7v.008a.471.471,0,0,0,.448.5.486.486,0,0,0,.489-.473h0L.988.5A.471.471,0,0,0,.54,0,.486.486,0,0,0,.052.474Z" transform="translate(8.988 97.792) rotate(-159)"/><path class="e" d="M.116.457,0,1.675v.008a.476.476,0,0,0,.423.528A.486.486,0,0,0,.94,1.763h0L1.054.528A.475.475,0,0,0,.631,0,.485.485,0,0,0,.117.45Z" transform="translate(11.017 93.366) rotate(-159)"/><path class="e" d="M.181.433.006,1.645v.008a.48.48,0,0,0,.4.552.485.485,0,0,0,.538-.422h0L1.117.556A.48.48,0,0,0,.719,0,.485.485,0,0,0,.182.426Z" transform="translate(13.232 89.032) rotate(-159)"/><path class="e" d="M.243.41l-.232,1.2,0,.007A.485.485,0,0,0,.382,2.2a.485.485,0,0,0,.56-.4h0L1.175.582A.483.483,0,0,0,.8.008.484.484,0,0,0,.245.4Z" transform="translate(15.622 84.798) rotate(-159)"/><path class="e" d="M.3.389.016,1.579l0,.007a.489.489,0,0,0,.346.6.485.485,0,0,0,.58-.369h0l.29-1.2a.488.488,0,0,0-.347-.6A.484.484,0,0,0,.306.382Z" transform="translate(18.171 80.671) rotate(-159)"/><path class="e" d="M.365.367.023,1.543l0,.007a.493.493,0,0,0,.32.616.484.484,0,0,0,.6-.341h0L1.283.634A.493.493,0,0,0,.964.019a.484.484,0,0,0-.6.342Z" transform="translate(20.872 76.658) rotate(-159)"/><path class="e" d="M.425.346.03,1.5l0,.007a.5.5,0,0,0,.292.634.484.484,0,0,0,.615-.313h0l.4-1.172A.5.5,0,0,0,1.041.026.484.484,0,0,0,.427.34Z" transform="translate(23.718 72.768) rotate(-159)"/><path class="e" d="M.484.325.039,1.464l0,.006a.5.5,0,0,0,.265.65.484.484,0,0,0,.63-.285h0L1.381.683A.5.5,0,0,0,1.116.034.483.483,0,0,0,.487.319Z" transform="translate(26.7 69.006) rotate(-159)"/><path class="e" d="M.543.305l-.5,1.117,0,.006a.506.506,0,0,0,.236.666.485.485,0,0,0,.645-.256h0l.5-1.13A.505.505,0,0,0,1.189.043.484.484,0,0,0,.546.3Z" transform="translate(29.81 65.38) rotate(-159)"/><path class="e" d="M.6.286.058,1.38l0,.006a.51.51,0,0,0,.208.679A.484.484,0,0,0,.92,1.839h0L1.468.731A.509.509,0,0,0,1.26.053.484.484,0,0,0,.6.28Z" transform="translate(33.038 61.895) rotate(-159)"/><path class="e" d="M.658.267.069,1.336l0,.006a.515.515,0,0,0,.18.692.485.485,0,0,0,.669-.2h0L1.508.754a.514.514,0,0,0-.18-.69.484.484,0,0,0-.667.2Z" transform="translate(36.377 58.555) rotate(-159)"/><path class="e" d="M.713.248.08,1.29l0,.006A.517.517,0,0,0,.228,2a.485.485,0,0,0,.678-.167h0L1.545.776a.517.517,0,0,0-.151-.7A.485.485,0,0,0,.716.243Z" transform="translate(39.819 55.365) rotate(-159)"/><path class="e" d="M.767.231.092,1.245l0,.005a.521.521,0,0,0,.122.711A.485.485,0,0,0,.9,1.824h0L1.579.8a.521.521,0,0,0-.123-.71A.484.484,0,0,0,.771.226Z" transform="translate(43.354 52.329) rotate(-159)"/><path class="e" d="M.82.214.106,1.2l0,0A.525.525,0,0,0,.2,1.922.486.486,0,0,0,.89,1.814h0l.721-1A.524.524,0,0,0,1.517.1.486.486,0,0,0,.824.209Z" transform="translate(47.033 49.35) rotate(-163)"/><path class="e" d="M.872.2l-.753.953,0,0a.528.528,0,0,0,.065.726A.486.486,0,0,0,.88,1.8h0l.76-.964A.527.527,0,0,0,1.575.114a.487.487,0,0,0-.7.079Z" transform="translate(50.535 46.377) rotate(-163)"/><path class="e" d="M.922.182.133,1.1l0,0a.531.531,0,0,0,.037.732A.487.487,0,0,0,.87,1.791h0l.8-.931A.531.531,0,0,0,1.631.128a.487.487,0,0,0-.7.05Z" transform="translate(54.119 43.561) rotate(-163)"/><path class="e" d="M.972.167l-.824.888,0,0A.535.535,0,0,0,.151,1.8.489.489,0,0,0,.86,1.776h0l.832-.9A.534.534,0,0,0,1.684.142a.488.488,0,0,0-.708.02Z" transform="translate(57.779 40.903) rotate(-163)"/><path class="e" d="M1.019.152l-.857.854,0,0a.537.537,0,0,0-.02.739.49.49,0,0,0,.712.01h0L1.714.9a.537.537,0,0,0,.02-.738A.489.489,0,0,0,1.023.149Z" transform="translate(61.243 38.424) rotate(-163)"/><path class="e" d="M1.066.139.178.958l0,0A.54.54,0,0,0,.125,1.7a.492.492,0,0,0,.713.039h0l.9-.828a.54.54,0,0,0,.048-.74A.491.491,0,0,0,1.07.135Z" transform="translate(64.879 36.587) rotate(-163)"/><path class="e" d="M1.111.126.193.909l0,0a.544.544,0,0,0-.076.742.493.493,0,0,0,.714.068h0L1.753.931A.542.542,0,0,0,1.828.189.493.493,0,0,0,1.115.122Z" transform="translate(68.577 34.893) rotate(-163)"/><path class="e" d="M1.155.113.21.86l0,0a.545.545,0,0,0-.1.742.494.494,0,0,0,.713.1h0L1.768.947a.546.546,0,0,0,.1-.742.5.5,0,0,0-.713-.1Z" transform="translate(72.329 33.341) rotate(-163)"/><path class="e" d="M1.2.1.226.811l0,0a.547.547,0,0,0-.131.741A.5.5,0,0,0,.8,1.68h0l.98-.717a.547.547,0,0,0,.131-.74A.5.5,0,0,0,1.2.1Z" transform="translate(76.131 31.934) rotate(-163)"/><path class="e" d="M1.238.091l-1,.672,0,0A.549.549,0,0,0,.08,1.5a.5.5,0,0,0,.709.153h0l1-.68A.549.549,0,0,0,1.951.24.5.5,0,0,0,1.243.088Z" transform="translate(79.975 30.669) rotate(-163)"/><path class="e" d="M1.278.081.26.715l-.005,0a.552.552,0,0,0-.184.735.5.5,0,0,0,.705.18h0L1.8.992A.551.551,0,0,0,1.987.257.5.5,0,0,0,1.282.078Z" transform="translate(83.856 29.548) rotate(-163)"/><path class="e" d="M1.315.071.277.668l0,0a.553.553,0,0,0-.21.731.5.5,0,0,0,.7.207h0l1.047-.6A.553.553,0,0,0,2.02.275a.5.5,0,0,0-.7-.206Z" transform="translate(87.768 28.568) rotate(-163)"/><path class="e" d="M1.351.062.294.623l0,0a.555.555,0,0,0-.235.726.5.5,0,0,0,.7.233h0l1.066-.567A.554.554,0,0,0,2.051.292a.5.5,0,0,0-.7-.232Z" transform="translate(91.704 27.726) rotate(-163)"/><path class="e" d="M1.384.054.31.578l0,0A.557.557,0,0,0,.047,1.3a.508.508,0,0,0,.691.258h0L1.821,1.03A.557.557,0,0,0,2.079.309a.507.507,0,0,0-.69-.257Z" transform="translate(95.661 27.019) rotate(-163)"/><path class="e" d="M1.417.047.327.535l0,0a.558.558,0,0,0-.282.715.51.51,0,0,0,.685.282h0l1.1-.493A.558.558,0,0,0,2.1.326.51.51,0,0,0,1.421.045Z" transform="translate(99.633 26.444) rotate(-163)"/><path class="e" d="M1.447.04.344.493l0,0A.56.56,0,0,0,.034,1.2a.513.513,0,0,0,.678.306h0l1.112-.457a.56.56,0,0,0,.3-.708.512.512,0,0,0-.678-.3Z" transform="translate(103.615 25.997) rotate(-163)"/><path class="e" d="M1.476.034.361.452l0,0a.562.562,0,0,0-.327.7A.515.515,0,0,0,.7,1.484h0l1.124-.422a.561.561,0,0,0,.326-.7A.514.514,0,0,0,1.48.033Z" transform="translate(107.604 25.677) rotate(-163)"/><path class="e" d="M1.5.029.377.411l0,0a.563.563,0,0,0-.348.694.518.518,0,0,0,.663.351h0l1.136-.386A.562.562,0,0,0,2.17.378a.517.517,0,0,0-.663-.35Z" transform="translate(111.595 25.481) rotate(-163)"/><path class="e" d="M1.53.024.393.372h0a.565.565,0,0,0-.369.686.521.521,0,0,0,.655.373h0L1.821,1.08A.563.563,0,0,0,2.189.395.52.52,0,0,0,1.534.023Z" transform="translate(115.585 25.406) rotate(-163)"/><path class="e" d="M1.555.02.41.333h0a.565.565,0,0,0-.389.677.523.523,0,0,0,.646.394h0l1.154-.317A.565.565,0,0,0,2.206.412.523.523,0,0,0,1.559.019Z" transform="translate(119.571 25.451) rotate(-163)"/><path class="e" d="M1.579.016.426.3h0A.566.566,0,0,0,.012.965.526.526,0,0,0,.65,1.38h0L1.812,1.1A.566.566,0,0,0,2.221.428.527.527,0,0,0,1.583.015Z" transform="translate(123.549 25.612) rotate(-163)"/><path class="e" d="M1.6.012.443.258h0A.568.568,0,0,0,.009.918a.53.53,0,0,0,.628.435h0L1.806,1.1A.567.567,0,0,0,2.234.446.529.529,0,0,0,1.606.012Z" transform="translate(127.516 25.889) rotate(-163)"/><path class="e" d="M1.624.009.459.221h0A.568.568,0,0,0,.007.871a.533.533,0,0,0,.618.455h0L1.8,1.111A.568.568,0,0,0,2.246.463.532.532,0,0,0,1.628.009Z" transform="translate(131.47 26.279) rotate(-163)"/><path class="e" d="M1.645.007.476.186h0A.57.57,0,0,0,0,.825.536.536,0,0,0,.613,1.3h0l1.179-.182A.569.569,0,0,0,2.257.479.535.535,0,0,0,1.649.006Z" transform="translate(135.406 26.78) rotate(-163)"/><path class="e" d="M1.666,0,.492.15h0A.57.57,0,0,0,0,.779a.539.539,0,0,0,.6.494h0l1.183-.148A.57.57,0,0,0,2.267.5.539.539,0,0,0,1.67,0Z" transform="translate(139.324 27.393) rotate(-163)"/><path class="e" d="M1.685,0,.509.115h0A.571.571,0,0,0,0,.732a.543.543,0,0,0,.586.513h0L1.774,1.13a.57.57,0,0,0,.5-.616A.541.541,0,0,0,1.689,0Z" transform="translate(143.219 28.114) rotate(-163)"/><path class="e" d="M1.7,0,.525.081h0a.572.572,0,0,0-.52.6.546.546,0,0,0,.575.531h0l1.188-.082a.571.571,0,0,0,.519-.6A.545.545,0,0,0,1.708,0Z" transform="translate(147.09 28.944) rotate(-163)"/><path class="e" d="M1.722,0,.542.048h0A.572.572,0,0,0,0,.64a.549.549,0,0,0,.562.549h0L1.752,1.14A.572.572,0,0,0,2.288.548.548.548,0,0,0,1.725,0Z" transform="translate(150.932 29.881) rotate(-163)"/><path class="e" d="M1.739,0,.558.014h0A.574.574,0,0,0,0,.593.552.552,0,0,0,.55,1.16h0L1.74,1.145A.573.573,0,0,0,2.292.566.552.552,0,0,0,1.743,0Z" transform="translate(154.745 30.923) rotate(-163)"/><path class="e" d="M1.755.019.576,0h0A.574.574,0,0,0,0,.566a.556.556,0,0,0,.537.584h0l1.188.018A.574.574,0,0,0,2.3.6.555.555,0,0,0,1.759.019Z" transform="translate(158.52 32.089) rotate(-163)"/><path class="e" d="M1.771.053.592,0h0A.575.575,0,0,0,0,.553a.559.559,0,0,0,.523.6h0l1.187.051A.574.574,0,0,0,2.3.653a.558.558,0,0,0-.523-.6Z" transform="translate(162.254 33.373) rotate(-163)"/><path class="e" d="M1.677.079.609,0h0A.575.575,0,0,0,0,.539a.562.562,0,0,0,.509.618h0l1.076.077A.575.575,0,0,0,2.189.7.561.561,0,0,0,1.68.079Z" transform="translate(165.849 34.721) rotate(-163)"/><g transform="translate(186.527 52.892) rotate(-159)"><path class="f" d="M3.531,7.43,6.165,0,0,1.411Z" transform="translate(31.394 10.779)"/><path class="g" d="M0,10.629,26.305.142a2,2,0,0,1,2.619,1.185l9.535,26.808a.8.8,0,0,1-1.108.985Z"/><path class="h" d="M34.922,7.578,0,0,33.4,3.247l.818-2.03Z" transform="translate(0 10.63)"/><path class="f" d="M0,.536,5.085,0,.924,3.1Z" transform="translate(32.473 10.779)"/></g></g></g><g transform="translate(116.625 178.07)"><g transform="translate(0 0)"><path class="i" d="M627.637,291.955c-5.131-7.442-15.887-19.82-36.448-32.139-32.523-19.487-57.164-45.313-46.334-60.594,10.627-15,58.258,13.966,97.815,86.365A86.786,86.786,0,0,1,627.637,291.955Z" transform="translate(-542.267 -195.382)"/><path class="j" d="M633.633,286.264a19.913,19.913,0,0,0-6.416.878.413.413,0,0,1-.234-.792,21.532,21.532,0,0,1,6.158-.922q-1.053-1.79-2.108-3.528c-1.436-.032-6.066-.125-7.8-.029a.414.414,0,0,1-.046-.826c1.6-.087,5.524-.022,7.343.015q-1.978-3.242-3.957-6.3a96.07,96.07,0,0,0-10.464.792.414.414,0,0,1-.111-.819,97.693,97.693,0,0,1,10.053-.788q-2-3.08-3.994-5.98a136.744,136.744,0,0,0-14.944,1.128.414.414,0,0,1-.111-.82,137.918,137.918,0,0,1,14.491-1.123q-2.626-3.8-5.23-7.3c-1.991-.085-10.247-.3-16.447,1.692a.414.414,0,0,1-.256-.787c5.778-1.852,13.273-1.836,16.076-1.752q-3.2-4.278-6.357-8.12c-2.717.154-13.647.982-18.762,4.6a.413.413,0,0,1-.474-.676c4.962-3.512,15.064-4.479,18.583-4.715q-3.35-4.055-6.617-7.65a85.974,85.974,0,0,0-18.076,6.381.412.412,0,1,1-.372-.736,86.676,86.676,0,0,1,17.814-6.346q-1.937-2.113-3.834-4.073a92.979,92.979,0,0,0-20.674,7.412.413.413,0,1,1-.36-.743,96.012,96.012,0,0,1,20.35-7.366q-4.511-4.608-8.769-8.4c-2.4.794-14.555,4.909-20.947,8.974a.412.412,0,0,1-.443-.7c6.14-3.9,17.45-7.83,20.673-8.91q-2.48-2.189-4.854-4.122a121.585,121.585,0,0,0-20.072,8.995.413.413,0,0,1-.414-.715,122.319,122.319,0,0,1,19.727-8.893c-3.7-2.977-7.186-5.5-10.4-7.621-2.032.479-11.212,2.777-18.1,6.774a.413.413,0,0,1-.415-.714c6.338-3.674,14.553-5.929,17.569-6.681q-2-1.29-3.836-2.381a63.9,63.9,0,0,0-15.632,3.98.414.414,0,1,1-.3-.771,67.355,67.355,0,0,1,14.755-3.9c-9.9-5.715-16.045-7.168-16.1-7.181a.62.62,0,0,1,.3-1.2,47.581,47.581,0,0,1,7.432,2.724,37.174,37.174,0,0,0-3.591-4.156.412.412,0,1,1,.43-.7c.747.457,3.766,4.284,4.8,5.609,1.9.894,4.068,2,6.468,3.353l-4.08-8.109a.413.413,0,0,1,.737-.371l4.643,9.228c1.645.961,3.39,2.04,5.22,3.241l-4.4-9.612a.413.413,0,1,1,.75-.345l4.953,10.826c2.743,1.848,5.667,3.967,8.747,6.41l-3.813-9.96a.414.414,0,0,1,.773-.3l4.319,11.288c1.4,1.14,2.837,2.339,4.3,3.612l-3.231-8.975a.413.413,0,1,1,.776-.282l3.741,10.387q4.06,3.61,8.368,7.943l-2.434-8.764a.413.413,0,0,1,.8-.222l2.833,10.2q1.7,1.752,3.439,3.629l-1.365-6.693a.413.413,0,0,1,.809-.165l1.637,8.034q3.224,3.538,6.53,7.514l-1.271-7.461a.412.412,0,1,1,.813-.138l1.513,8.869q2.893,3.532,5.833,7.425l-.829-6.627a.413.413,0,1,1,.82-.1l1.008,8.065q2.563,3.441,5.149,7.162l-.041-5.982a.413.413,0,0,1,.825-.008l.051,7.195q1.869,2.72,3.745,5.6l.641-5.1a.413.413,0,0,1,.819.1l-.764,6.073q1.724,2.67,3.453,5.47l.6-3.295a.413.413,0,1,1,.813.149l-.763,4.2q1.285,2.11,2.574,4.3l1.367-2.7a.413.413,0,0,1,.737.372l-1.608,3.178q1.051,1.793,2.1,3.635c-.382.175-.762.347-1.136.511Q634.637,287.98,633.633,286.264Z" transform="translate(-541.91 -196.309)"/></g><g transform="translate(15.985 56.659)"><path class="i" d="M621.857,306.645c-5.5-3.474-15.191-8.131-29.837-10.218-24.853-3.542-47.035-13.731-45.355-27.316,1.617-13.089,36.847-8.048,80.693,27.464l-5.478,10.032Z" transform="translate(-546.575 -262.518)"/><path class="j" d="M550.022,271.835a.852.852,0,1,1,.011-1.7,60.764,60.764,0,0,1,7.531.632l-4.055-2.737a.567.567,0,1,1,.635-.94l6.025,4.068c2.2.362,4.713.849,7.478,1.512l-4.259-4.067a.569.569,0,0,1,.785-.824l5.708,5.451c2.873.75,5.982,1.679,9.278,2.837l-3.566-3.667a.568.568,0,0,1,.813-.793l5.205,5.356c3.447,1.294,7.073,2.831,10.826,4.663l-3.013-3.872a.567.567,0,1,1,.894-.7l4.476,5.755c3.518,1.809,7.132,3.874,10.805,6.235l-1.236-2.632a.568.568,0,1,1,1.029-.482l2.02,4.3c2.785,1.855,5.6,3.877,8.418,6.091L614.7,293.64a.568.568,0,0,1,1.047-.442l1.944,4.607q2.06,1.675,4.123,3.486l-.837,1.535q-2.062-1.823-4.121-3.5c-1.406.089-4.772.376-6.188,1.119a.568.568,0,1,1-.531-1,17.7,17.7,0,0,1,5.43-1.15q-1.629-1.3-3.254-2.512a24.056,24.056,0,0,0-7.023,2.172.568.568,0,1,1-.559-.989,23.058,23.058,0,0,1,6.338-2.109q-3.356-2.45-6.663-4.556c-1.892.781-7.881,3.329-10.231,5.26a.568.568,0,0,1-.722-.877c2.205-1.813,7.342-4.093,9.781-5.124q-3.542-2.212-6.994-4.069c-1.89.727-8.042,3.222-12.1,6.433a.568.568,0,1,1-.7-.891,50.947,50.947,0,0,1,11.491-6.242q-1.706-.9-3.381-1.71a55.091,55.091,0,0,0-14.739,7.378.568.568,0,0,1-.669-.918,56.186,56.186,0,0,1,13.937-7.164,122.069,122.069,0,0,0-11.583-4.745c-2.169,1.344-10.574,6.626-14.25,10.12a.567.567,0,1,1-.781-.823c3.4-3.234,10.672-7.909,13.643-9.774-2.731-.919-5.322-1.678-7.739-2.307-1.949,1.491-9.153,7-10.823,8.445a.567.567,0,0,1-.744-.857c1.532-1.32,7.561-5.951,10.162-7.943-3.163-.779-6-1.33-8.436-1.718-1.752,1.522-5.967,5.2-6.952,6.184a.568.568,0,0,1-.8-.8c.879-.876,4.279-3.856,6.282-5.6A61.445,61.445,0,0,0,550.022,271.835Z" transform="translate(-543.225 -263.215)"/></g></g><g transform="translate(259.777 138.617)"><g transform="translate(129.269 89.541) rotate(158)"><path class="k" d="M85.37,0C80.239,7.442,69.483,19.82,48.922,32.139,16.4,51.626-8.242,77.452,2.588,92.734c10.627,15,58.258-13.966,97.815-86.365A86.789,86.789,0,0,0,85.37,0Z"/><path class="j" d="M84.806,3.478A19.913,19.913,0,0,1,78.39,2.6a.413.413,0,0,0-.234.792,21.534,21.534,0,0,0,6.158.922Q83.261,6.1,82.206,7.842c-1.435.032-6.066.125-7.8.029a.414.414,0,0,0-.046.826c1.6.087,5.524.022,7.343-.015q-1.977,3.242-3.957,6.3a96.068,96.068,0,0,1-10.464-.792.414.414,0,0,0-.111.819,97.7,97.7,0,0,0,10.053.788q-2,3.08-3.995,5.98a136.751,136.751,0,0,1-14.944-1.128.414.414,0,0,0-.111.82A137.916,137.916,0,0,0,72.661,22.6q-2.626,3.8-5.23,7.3c-1.991.085-10.247.3-16.447-1.692a.414.414,0,0,0-.256.787C56.506,30.84,64,30.824,66.8,30.74q-3.2,4.278-6.357,8.12c-2.717-.154-13.647-.982-18.762-4.6a.413.413,0,0,0-.474.676c4.962,3.512,15.064,4.479,18.583,4.715q-3.35,4.055-6.617,7.65A85.973,85.973,0,0,1,35.1,40.916a.412.412,0,1,0-.372.736A86.679,86.679,0,0,0,52.544,48q-1.937,2.113-3.834,4.073A92.976,92.976,0,0,1,28.035,44.66a.413.413,0,0,0-.36.744,96.017,96.017,0,0,0,20.35,7.366q-4.51,4.608-8.769,8.4c-2.4-.794-14.555-4.909-20.947-8.974a.412.412,0,0,0-.443.7c6.14,3.9,17.45,7.83,20.673,8.91q-2.48,2.189-4.854,4.122a121.587,121.587,0,0,1-20.072-8.995.413.413,0,0,0-.414.715,122.326,122.326,0,0,0,19.727,8.893c-3.7,2.977-7.186,5.5-10.4,7.621-2.032-.479-11.212-2.777-18.1-6.774a.413.413,0,0,0-.415.714c6.338,3.674,14.553,5.929,17.569,6.681q-1.995,1.29-3.836,2.381a63.9,63.9,0,0,1-15.632-3.98.414.414,0,1,0-.3.771,67.356,67.356,0,0,0,14.755,3.9C6.667,83.561.518,85.014.467,85.027a.62.62,0,0,0,.3,1.2A47.577,47.577,0,0,0,8.2,83.5,37.17,37.17,0,0,1,4.612,87.66a.412.412,0,1,0,.43.7c.747-.457,3.766-4.284,4.8-5.609,1.9-.894,4.068-2,6.468-3.353l-4.08,8.109a.413.413,0,0,0,.737.371l4.643-9.228c1.645-.961,3.39-2.04,5.22-3.241l-4.4,9.612a.413.413,0,1,0,.75.345l4.953-10.826c2.743-1.848,5.667-3.967,8.747-6.41L29.071,78.1a.414.414,0,0,0,.773.3l4.318-11.288c1.4-1.14,2.837-2.339,4.3-3.612l-3.231,8.975a.413.413,0,1,0,.776.282l3.741-10.387q4.06-3.61,8.369-7.943l-2.434,8.764a.413.413,0,0,0,.8.222l2.833-10.2q1.7-1.752,3.439-3.629L51.386,56.27a.413.413,0,0,0,.809.165L53.832,48.4q3.224-3.538,6.53-7.514l-1.271,7.461a.412.412,0,1,0,.813.138l1.513-8.869q2.893-3.532,5.833-7.425l-.829,6.627a.414.414,0,1,0,.82.1l1.008-8.065Q70.814,27.418,73.4,23.7l-.041,5.982a.413.413,0,0,0,.825.008l.051-7.195q1.868-2.72,3.745-5.6l.641,5.1a.413.413,0,0,0,.819-.1l-.764-6.073q1.724-2.67,3.453-5.47l.6,3.295a.413.413,0,1,0,.813-.149l-.763-4.2q1.285-2.11,2.574-4.3l1.367,2.7a.413.413,0,0,0,.737-.372L85.851,4.146Q86.9,2.354,87.95.511C87.567.337,87.188.165,86.814,0Q85.81,1.762,84.806,3.478Z" transform="translate(6.917 3.14)"/></g><g transform="translate(53.439 131.596)"><path class="i" d="M552.076,306.645c5.5-3.474,15.191-8.131,29.837-10.218,24.853-3.542,47.035-13.731,45.355-27.316-1.617-13.089-36.847-8.048-80.693,27.464l5.478,10.032Z" transform="translate(-546.575 -262.518)"/><g class="ae" transform="matrix(1, 0, 0, 1, -313.22, -270.21)"><path class="j" d="M620.966,271.835a.852.852,0,1,0-.011-1.7,60.781,60.781,0,0,0-7.531.632l4.055-2.737a.567.567,0,1,0-.635-.94l-6.025,4.068c-2.2.362-4.713.849-7.478,1.512L607.6,268.6a.569.569,0,0,0-.785-.824l-5.708,5.451c-2.873.75-5.982,1.679-9.278,2.837l3.566-3.667a.568.568,0,0,0-.813-.793l-5.205,5.356c-3.447,1.294-7.073,2.831-10.826,4.663l3.013-3.872a.567.567,0,1,0-.894-.7l-4.476,5.755c-3.518,1.809-7.132,3.874-10.805,6.235l1.236-2.632a.568.568,0,0,0-1.029-.482l-2.02,4.3c-2.785,1.855-5.6,3.877-8.418,6.091l1.131-2.679a.568.568,0,0,0-1.047-.442L553.3,297.8q-2.06,1.675-4.123,3.486l.837,1.535q2.062-1.823,4.121-3.5c1.406.089,4.772.376,6.188,1.119a.568.568,0,1,0,.531-1,17.7,17.7,0,0,0-5.43-1.15q1.629-1.3,3.254-2.512a24.053,24.053,0,0,1,7.023,2.172.568.568,0,1,0,.559-.989,23.056,23.056,0,0,0-6.338-2.109q3.356-2.45,6.663-4.556c1.892.781,7.881,3.328,10.231,5.26a.568.568,0,0,0,.722-.877c-2.205-1.813-7.341-4.093-9.781-5.124q3.542-2.212,6.994-4.07c1.89.727,8.042,3.222,12.1,6.433a.568.568,0,1,0,.7-.891,50.951,50.951,0,0,0-11.491-6.242q1.706-.9,3.381-1.71a55.092,55.092,0,0,1,14.74,7.378.568.568,0,0,0,.669-.918,56.185,56.185,0,0,0-13.937-7.164,122.069,122.069,0,0,1,11.583-4.745c2.169,1.344,10.574,6.626,14.25,10.12a.567.567,0,1,0,.781-.823c-3.4-3.234-10.672-7.909-13.643-9.774,2.731-.919,5.322-1.678,7.739-2.306,1.949,1.491,9.153,7,10.823,8.445a.567.567,0,0,0,.744-.857c-1.532-1.32-7.561-5.952-10.162-7.943,3.163-.779,6-1.33,8.436-1.718,1.752,1.522,5.967,5.2,6.952,6.184a.568.568,0,1,0,.8-.8c-.879-.876-4.279-3.856-6.281-5.6A61.443,61.443,0,0,1,620.966,271.835Z" transform="translate(-233.76 7)"/></g></g></g><g transform="translate(162.308 78.995)"><g transform="translate(0 165.769)"><path class="l" d="M348.429,206.182s-13.649-61.916-82.32-61.943c0,0,4.016,60.933,74.324,63.791Z" transform="translate(-266.109 -144.239)"/><path class="m" d="M266.109,144.239l82.32,61.943-10.491-.292S278.374,203.8,266.109,144.239Z" transform="translate(-266.109 -144.239)"/></g><g transform="translate(231.408 198.788) rotate(172)"><path class="n" d="M86.3.007S33.9-1.841,0,53.349c0,0,46.826,19.867,98.949-38.563Z" transform="translate(0 0)"/><path class="m" d="M0,48.123,83.334,5.174,71.466,0S24.214,2.495,0,48.123Z" transform="translate(4.602 3.37)"/></g><g transform="translate(33.629 58.854)"><path class="o" d="M282.166,146.833c0-.219,0-.437.017-.656l-8.9-.686a24.331,24.331,0,0,1,5.107-15.723l7.073,4.355a26.081,26.081,0,0,1,16.394-12.617l-1.811-7.463a24.409,24.409,0,0,1,16.521,0l-1.811,7.463a26.109,26.109,0,0,1,16.379,12.617l7.087-4.355a24.5,24.5,0,0,1,5.107,15.723l-8.916.686c.015.219.015.437.015.656a25.932,25.932,0,0,1-6.915,17.691l7.542,6.416a24.367,24.367,0,0,1-13.366,9.712l-3.905-9.476a26.177,26.177,0,0,1-18.972,0l-3.9,9.476a24.466,24.466,0,0,1-13.366-9.712l7.542-6.416A25.923,25.923,0,0,1,282.166,146.833Zm22.565,10.024a10.7,10.7,0,0,0,10.992-2.371,10.494,10.494,0,0,0,3.217-7.122,3.206,3.206,0,0,0,.029-.531,10.231,10.231,0,0,0-1.047-4.573,10.539,10.539,0,0,0-6.807-5.716,10.3,10.3,0,0,0-5.62,0,10.539,10.539,0,0,0-6.807,5.716,10.23,10.23,0,0,0-1.047,4.573,2.958,2.958,0,0,0,.032.531,10.473,10.473,0,0,0,3.217,7.122A9.988,9.988,0,0,0,304.73,156.857Z" transform="translate(-273.279 -105.433)"/><path class="p" d="M282.162,143.917c0-.219,0-.437.017-.656l-8.9-.686a24.336,24.336,0,0,1,5.107-15.725l7.073,4.357a26.081,26.081,0,0,1,16.394-12.617l-1.811-7.463a24.38,24.38,0,0,1,16.522,0l-1.811,7.463a26.1,26.1,0,0,1,16.379,12.617l7.087-4.357a24.5,24.5,0,0,1,5.107,15.725l-8.916.686c.015.219.015.437.015.656a25.937,25.937,0,0,1-6.915,17.691l7.542,6.416a24.366,24.366,0,0,1-13.366,9.712l-3.9-9.478a26.143,26.143,0,0,1-18.972,0l-3.9,9.478a24.479,24.479,0,0,1-13.366-9.712l7.542-6.416A25.927,25.927,0,0,1,282.162,143.917Zm22.565,10.024a10.7,10.7,0,0,0,10.992-2.374,10.48,10.48,0,0,0,3.214-7.119,2.962,2.962,0,0,0,.032-.531,10.249,10.249,0,0,0-1.047-4.576,10.528,10.528,0,0,0-6.807-5.714,10.3,10.3,0,0,0-5.62,0,10.528,10.528,0,0,0-6.807,5.714,10.249,10.249,0,0,0-1.047,4.576,2.962,2.962,0,0,0,.032.531,10.472,10.472,0,0,0,3.217,7.119A9.995,9.995,0,0,0,304.726,153.941Z" transform="translate(-273.265 -109.685)"/><path class="q" d="M321.648,175.221a22.776,22.776,0,0,0,10.683-7.8l-7.66-6.515.983-1.059a24.563,24.563,0,0,0,6.549-16.75c0-.184,0-.369-.012-.553l-.1-1.376,9.036-.7A23.313,23.313,0,0,0,337,127.887l-7.215,4.433-.7-1.263a24.789,24.789,0,0,0-15.509-11.946l-1.329-.337,1.836-7.571a21.552,21.552,0,0,0-6.412-.954,24.6,24.6,0,0,0-6.815.985l1.831,7.542-1.334.334a24.743,24.743,0,0,0-15.521,11.946l-.7,1.266L277.9,127.87a23.128,23.128,0,0,0-4.057,12.6l8.989.7-.1,1.376c-.015.184-.015.369-.015.553a24.563,24.563,0,0,0,6.549,16.75l.983,1.059-7.682,6.534a22.865,22.865,0,0,0,10.719,7.751l3.927-9.542,1.268.5a24.791,24.791,0,0,0,17.959,0l1.27-.5Zm-14.18-44.193a11.127,11.127,0,0,1,3.207.45,11.849,11.849,0,0,1,7.667,6.456,11.566,11.566,0,0,1,1.175,5.161,4.776,4.776,0,0,1-.052.769,11.664,11.664,0,0,1-3.625,7.881,12.081,12.081,0,0,1-16.762-.012,11.805,11.805,0,0,1-3.627-8.043,2.921,2.921,0,0,1-.034-.595,11.626,11.626,0,0,1,1.189-5.19,11.864,11.864,0,0,1,7.689-6.439A11.134,11.134,0,0,1,307.468,131.028Z" transform="translate(-272.431 -108.863)"/><path class="r" d="M293,133.425l-.01,7.168s4.743,7.689,13.366,9.712l.01-7.168S297.708,139.844,293,133.425Z" transform="translate(-284.724 -75.086)"/><path class="s" d="M276.661,143.137l-.01,7.168s8.921-2.516,13.366-9.712l.01-7.168S284.156,141.235,276.661,143.137Z" transform="translate(-228.243 -75.086)"/><path class="o" d="M298.175,123.069l-.01,7.169,8.9.687.01-7.169Z" transform="translate(-298.162 -90.18)"/><path class="o" d="M290.877,118.046l-.717-.6.01-7.169,1.811,7.464Z" transform="translate(-263.393 -108.831)"/><path class="o" d="M285.986,110.272l-.01,7.169-.705.6-1.1-.311Z" transform="translate(-242.69 -108.831)"/><path class="t" d="M282.209,123.069l-.01,7.169-8.916.687.01-7.169Z" transform="translate(-212.151 -90.18)"/><path class="u" d="M285.994,150.167,286,143l-3.9-9.478-.01,7.169Z" transform="translate(-237.586 -74.947)"/><path class="u" d="M295.292,140.69l.01-7.169L291.4,143v6.44Z" transform="translate(-269.759 -74.947)"/></g><g transform="translate(48.834 126.484)"><path class="v" d="M232.049,205.586c-2.4-7.077-4.143-23.963-.02-34.434l10.08,13.988a49.7,49.7,0,0,1,7.168-19.709l-7.66-5.261c2.725-5.672,9.65-12.894,15.784-15.811l4.908,7.168a49.527,49.527,0,0,1,19.709-8.586l-1.526-8.124c5.942-2.072,15.919-2.29,22.326,0l-1.526,8.124A49.208,49.208,0,0,1,321,151.554l4.908-7.2c5.642,2.752,12.867,9.678,15.784,15.811l-7.687,5.261a49.322,49.322,0,0,1,7.2,19.709l10.058-1.88c2.045,5.942,2.263,15.919,0,22.326l-10.9-2.045a49.236,49.236,0,0,1-8.559,18.374l9.9,6.76c-2.755,5.642-9.651,12.867-15.784,15.784L318.8,234.073a49.2,49.2,0,0,1-18.347,7.225l2.371,12.73c-5.942,2.045-15.947,2.263-22.326,0l2.371-12.7A49.6,49.6,0,0,1,264.49,234.1L257.4,244.461c-5.669-2.755-12.894-9.653-15.784-15.784l9.869-6.76a49.185,49.185,0,0,1-8.532-18.374Zm42.01.872a23.8,23.8,0,0,0,5.861,5.07,22.319,22.319,0,0,0,7.987,2.917,21.093,21.093,0,0,0,3.735.327,21.4,21.4,0,0,0,3.762-.327,22.661,22.661,0,0,0,7.96-2.89,23.427,23.427,0,0,0,5.888-5.1,23.016,23.016,0,0,0,4.2-7.962,22.783,22.783,0,0,0,.929-6.431c0-.627-.029-1.283-.084-1.882a22.887,22.887,0,0,0-2.833-9.324,23.465,23.465,0,0,0-5.891-6.788,22.645,22.645,0,0,0-9.321-4.278,23.089,23.089,0,0,0-9.216,0,22.705,22.705,0,0,0-9.3,4.278,23.456,23.456,0,0,0-5.888,6.788,22.888,22.888,0,0,0-2.833,9.324c-.057.6-.083,1.256-.083,1.882a22.7,22.7,0,0,0,.929,6.431A22.934,22.934,0,0,0,274.06,206.458Z" transform="translate(-229.551 -121.074)"/><path class="w" d="M231.185,200.647c-1.691-4.849-2.133-12.415-1-18.485a24.221,24.221,0,0,1,1-3.824l10.061,1.885a49.984,49.984,0,0,1,7.178-19.731l-7.65-5.239a30.162,30.162,0,0,1,4.185-6.264c3.271-3.934,7.594-7.675,11.585-9.56l4.905,7.178a49.45,49.45,0,0,1,19.7-8.591l-1.524-8.12c5.957-2.079,15.934-2.3,22.336,0l-1.524,8.12a49.118,49.118,0,0,1,19.7,8.618l4.905-7.205c5.652,2.743,12.858,9.673,15.8,15.824l-7.7,5.239a49.2,49.2,0,0,1,7.205,19.731l10.058-1.885a32.972,32.972,0,0,1,1.553,8.9,36.464,36.464,0,0,1-1.553,13.413l-10.918-2.022A49.466,49.466,0,0,1,330.953,217l9.894,6.763a34.988,34.988,0,0,1-5.765,7.955,35.393,35.393,0,0,1-10.031,7.815l-7.122-10.393a48.835,48.835,0,0,1-18.348,7.232l2.384,12.72c-5.959,2.052-15.964,2.273-22.336,0l2.384-12.693a49.963,49.963,0,0,1-18.374-7.232l-7.095,10.366c-5.682-2.745-12.887-9.646-15.77-15.77L250.641,217a49.006,49.006,0,0,1-8.535-18.372Zm42.013.887a23.436,23.436,0,0,0,5.876,5.07,22.422,22.422,0,0,0,7.982,2.912,20.678,20.678,0,0,0,3.74.332,20.926,20.926,0,0,0,3.743-.332,22.811,22.811,0,0,0,7.37-2.551c.224-.111.418-.221.612-.332a22.876,22.876,0,0,0,10.085-13.054c.057-.165.084-.359.14-.526a23.2,23.2,0,0,0,.777-5.93c0-.609-.029-1.275-.084-1.858a22.027,22.027,0,0,0-6.512-14.133,21.531,21.531,0,0,0-2.219-2,22.213,22.213,0,0,0-9.311-4.269,22.712,22.712,0,0,0-4.6-.469,21.876,21.876,0,0,0-2.354.111h-.027c-.749.084-1.5.221-2.246.359a22.288,22.288,0,0,0-9.284,4.269,23.867,23.867,0,0,0-5.9,6.79,22.992,22.992,0,0,0-2.826,9.338c-.056.582-.084,1.248-.084,1.858a22.512,22.512,0,0,0,.944,6.456,21.856,21.856,0,0,0,.8,2.273A23.506,23.506,0,0,0,273.2,201.534Z" transform="translate(-228.714 -128.253)"/><path class="x" d="M229.558,181.534,258.6,191.566a49.466,49.466,0,0,0,8.535-18.372l10.918,2.022a36.464,36.464,0,0,0,1.553-13.413l-45.033-16.1a22.027,22.027,0,0,1,6.512,14.133c.054.582.084,1.248.084,1.858a23.2,23.2,0,0,1-.777,5.93c-.056.167-.084.361-.14.526A22.876,22.876,0,0,1,230.17,181.2C229.976,181.313,229.782,181.424,229.558,181.534Z" transform="translate(-156.363 -102.822)"/><path class="x" d="M294.27,181.282a22.513,22.513,0,0,1-.944-6.456c0-.609.027-1.275.083-1.858a22.992,22.992,0,0,1,2.826-9.338,23.865,23.865,0,0,1,5.9-6.79,22.288,22.288,0,0,1,9.284-4.269c.75-.138,1.5-.275,2.246-.359l-43.455-15.521a30.159,30.159,0,0,0-4.185,6.264l7.65,5.239a49.983,49.983,0,0,0-7.178,19.731l-10.061-1.885a24.217,24.217,0,0,0-1,3.824l39.632,13.691A21.886,21.886,0,0,1,294.27,181.282Z" transform="translate(-253.969 -115.956)"/><path class="y" d="M289,246.3a38.089,38.089,0,0,0,8.134-.833L294.7,232.479l2.765-.482a45.822,45.822,0,0,0,17.305-6.824l2.271-1.487,7.235,10.557a40.394,40.394,0,0,0,11.258-11.282l-10.172-6.952,1.733-2.315a46.442,46.442,0,0,0,8.056-17.345l.6-2.575,11.049,2.047a39.334,39.334,0,0,0-.012-15.937l-10.437,1.956-.391-2.89a46.181,46.181,0,0,0-6.8-18.623l-1.433-2.266,7.829-5.323a39.5,39.5,0,0,0-11.285-11.3l-5.094,7.483-2.315-1.7a46.033,46.033,0,0,0-18.6-8.129l-2.7-.528,1.568-8.36a35.062,35.062,0,0,0-7.842-.823,37.416,37.416,0,0,0-8.117.843l1.565,8.341-2.7.528a46.336,46.336,0,0,0-18.6,8.107l-2.308,1.688-5.1-7.461a38.91,38.91,0,0,0-11.26,11.317l7.768,5.32-1.416,2.253a47.111,47.111,0,0,0-6.778,18.642l-.4,2.878-10.442-1.956a38.945,38.945,0,0,0,.007,15.937l11.054-2.047.595,2.588a45.991,45.991,0,0,0,8.053,17.335l1.73,2.312-10.179,6.977a38.861,38.861,0,0,0,11.275,11.253l7.2-10.518,2.271,1.482a46.415,46.415,0,0,0,5.672,3.136,45.385,45.385,0,0,0,11.658,3.686l2.772.477-2.438,12.988A35.327,35.327,0,0,0,289,246.3Zm.155-86.314a25.428,25.428,0,0,1,5.163.528,25.082,25.082,0,0,1,10.456,4.8,26.4,26.4,0,0,1,6.6,7.594,25.93,25.93,0,0,1,3.182,10.493c.061.624.093,1.386.093,2.084a26.019,26.019,0,0,1-.867,6.64c-.086.349-.133.528-.189.693a25.928,25.928,0,0,1-4.686,8.822,26.227,26.227,0,0,1-6.581,5.716,25.845,25.845,0,0,1-8.987,3.256,24.068,24.068,0,0,1-8.419-.01A24.944,24.944,0,0,1,276,207.332a26.14,26.14,0,0,1-6.569-5.669,25.708,25.708,0,0,1-5.768-16.182c0-.7.029-1.455.093-2.118a25.874,25.874,0,0,1,3.168-10.432,26.589,26.589,0,0,1,6.618-7.623,25.175,25.175,0,0,1,10.439-4.8A26.174,26.174,0,0,1,289.154,159.984Z" transform="translate(-227.072 -126.61)"/><path class="z" d="M271.716,139.235l.02,12.108,2.777,1.908,4.863-8.754Z" transform="translate(-259.669 -112.248)"/><path class="v" d="M268.422,179.221l-.02-12.11s7.176,11.427,15.784,15.784l.02,12.11S272,189.044,268.422,179.221Z" transform="translate(-256.354 -71.619)"/><path class="v" d="M249.906,179.221l-.02-12.11A39.511,39.511,0,0,1,234.1,182.9l.02,12.11S242.5,192.047,249.906,179.221Z" transform="translate(-137.763 -71.619)"/><path class="z" d="M228.909,183.065l-.02-12.108s3.254-11.174,0-22.326C228.89,148.631,236.215,165.224,228.909,183.065Z" transform="translate(-107.199 -98.553)"/><path class="z" d="M241.81,151.343l-.02-12.108L234.1,144.5l4.919,8.756Z" transform="translate(-129.668 -112.248)"/><path class="aa" d="M251.462,135.389l-.01-6.471-1.527,8.124h1.226Z" transform="translate(-178.204 -127.284)"/><path class="aa" d="M258.393,128.918l.01,6.471.356,1.9,1.16-.243Z" transform="translate(-207.472 -127.284)"/><path class="ab" d="M265.538,191.786l-.02-12.108,7.088-10.359.02,12.108Z" transform="translate(-237.686 -68.401)"/><path class="ab" d="M285.206,168.992l-.02-12.108-10.9,2.045.02,12.108Z" transform="translate(-271.803 -86.525)"/><path class="ab" d="M240.545,181.416l-.02-12.108,7.115,10.386.02,12.108Z" transform="translate(-151.302 -68.418)"/><path class="ab" d="M230.229,168.992l-.02-12.108,10.9,2.045.02,12.108Z" transform="translate(-119.422 -86.525)"/><path class="ac" d="M248.813,197.964l-2.384,12.693c7.886,3.608,19.4.794,22.336,0l-2.384-12.72a48.836,48.836,0,0,0,18.348-7.232l7.122,10.393a35.394,35.394,0,0,0,10.031-7.815l-22.336-38.661c-.056.167-.084.361-.14.526A22.876,22.876,0,0,1,269.321,168.2a22.972,22.972,0,0,1-7.982,2.883,20.929,20.929,0,0,1-3.743.332,20.682,20.682,0,0,1-3.74-.332,22.421,22.421,0,0,1-7.982-2.912A23.435,23.435,0,0,1,240,163.1l-3.546,30.954A47.873,47.873,0,0,0,248.813,197.964Z" transform="translate(-195.514 -89.822)"/><path class="v" d="M249.921,177.428l.02,12.108s8.061,3.873,22.326,0l-.02-12.108S263.774,179.976,249.921,177.428Z" transform="translate(-198.998 -56.583)"/></g></g></g></svg>