<svg xmlns="http://www.w3.org/2000/svg" width="20.306" height="20.643" viewBox="0 0 20.306 20.643"><defs><style>.a{fill:#fff;}</style></defs><g transform="translate(-3 -2)"><path class="a" d="M30.033,5a1.033,1.033,0,1,0,1.033,1.033A1.033,1.033,0,0,0,30.033,5Zm0,1.377a.344.344,0,1,1,.344-.344A.344.344,0,0,1,30.033,6.377Z" transform="translate(-17.052 -1.967)"/><path class="a" d="M30,13h1.377v.688H30Z" transform="translate(-17.707 -7.214)"/><path class="a" d="M22.962,16.052V6.818a1.036,1.036,0,0,0-1.033-1.033H15.046V2.344A.344.344,0,0,0,14.7,2H11.26a.344.344,0,0,0-.344.344V5.786H4.033A1.036,1.036,0,0,0,3,6.818V17.832a1.036,1.036,0,0,0,1.033,1.033h9.75a4.817,4.817,0,1,0,9.179-2.811ZM11.6,2.688h2.753V7.163H11.6Zm2.082,15.488H4.033a.344.344,0,0,1-.344-.344V6.818a.344.344,0,0,1,.344-.344h6.883V7.507a.344.344,0,0,0,.344.344H14.7a.344.344,0,0,0,.344-.344V6.474h6.883a.344.344,0,0,1,.344.344v8.043a4.813,4.813,0,0,0-8.6,2.97c0,.117.01.231.017.344Zm4.8,3.786a4.13,4.13,0,1,1,4.13-4.13A4.13,4.13,0,0,1,18.488,21.962Z"/><path class="a" d="M41.257,45.836,39.78,44.358l-.487.487,1.721,1.721a.344.344,0,0,0,.487,0l3.786-3.786-.487-.487Z" transform="translate(-23.802 -26.425)"/><path class="a" d="M12.851,21H7.344A.344.344,0,0,0,7,21.344v5.507a.344.344,0,0,0,.344.344h5.507a.344.344,0,0,0,.344-.344V21.344A.344.344,0,0,0,12.851,21ZM8.063,26.507a2.063,2.063,0,0,1,4.068,0Zm1.346-3.1a.688.688,0,1,1,.688.688.688.688,0,0,1-.688-.688Zm3.1,2.113a2.766,2.766,0,0,0-1.37-1.218,1.377,1.377,0,1,0-2.079,0,2.766,2.766,0,0,0-1.37,1.218V21.688h4.818Z" transform="translate(-2.623 -12.461)"/><path class="a" d="M27,22H37.325v.688H27Z" transform="translate(-15.74 -13.117)"/><path class="a" d="M27,27H37.325v.688H27Z" transform="translate(-15.74 -16.396)"/><path class="a" d="M27,32h3.442v.688H27Z" transform="translate(-15.74 -19.675)"/></g></svg>