<svg xmlns="http://www.w3.org/2000/svg" width="30.203" height="35.108" viewBox="0 0 30.203 35.108"><defs><style>.a{fill:#fff;}</style></defs><g transform="translate(-3.771)"><path class="a" d="M30.746,11.187a.653.653,0,0,0-.08-.04A10.064,10.064,0,0,0,20.648,0H8.624a.65.65,0,0,0-.644.559l-4.2,29.9a.65.65,0,0,0,.644.741h6.712c-.276,1.8-.543,3.107-.546,3.122a.649.649,0,0,0,.636.781h6.708a.65.65,0,0,0,.644-.557L19.8,26.074h5.634a8.455,8.455,0,0,0,8.544-8.343A8.242,8.242,0,0,0,30.746,11.187ZM9.189,1.3H20.649a8.775,8.775,0,1,1,0,17.551h-7.2a.65.65,0,0,0-.644.56L11.332,29.9H5.169ZM25.432,24.773h-6.2a.65.65,0,0,0-.644.557L17.37,33.807H12.012c.129-.694.322-1.794.506-3.069,0-.008,0-.015,0-.023a.532.532,0,0,0,.023-.071l1.474-10.493h6.634A10.085,10.085,0,0,0,30.393,12.6a6.925,6.925,0,0,1,2.283,5.131A7.153,7.153,0,0,1,25.432,24.773Z"/></g></svg>