<svg xmlns="http://www.w3.org/2000/svg" xmlns:xlink="http://www.w3.org/1999/xlink" width="651.999" height="403.118" viewBox="0 0 651.999 403.118"><defs><style>.a{fill:#98db98;fill-rule:evenodd;opacity:0.15;isolation:isolate;}.b{fill:#ebebeb;}.c{fill:#dbdbdb;}.d{fill:#263238;}.e{fill:#ffc727;}.f{fill:url(#a);}.g,.j{opacity:0.1;}.h{fill:url(#b);}.i,.j{fill:url(#c);}.k{fill:url(#e);}.l{fill:#a6a6a6;}.m,.s{fill:#6094f3;}.n{fill:#7ac3fb;}.o{fill:#fff;}.p{fill:#f8f8f8;}.q,.r{fill:url(#f);}.r{opacity:0.3;}.s{opacity:0.2;}</style><linearGradient id="a" x1="-0.025" y1="0.5" x2="1.025" y2="0.5" gradientUnits="objectBoundingBox"><stop offset="0" stop-color="#629b9b"/><stop offset="1" stop-color="#98db98"/></linearGradient><linearGradient id="b" y1="0.5" x2="1" y2="0.5" gradientUnits="objectBoundingBox"><stop offset="0" stop-color="#8989db"/><stop offset="1" stop-color="#9476b2"/></linearGradient><linearGradient id="c" y1="0.5" x2="1" y2="0.5" gradientUnits="objectBoundingBox"><stop offset="0" stop-color="#242a78"/><stop offset="1" stop-color="#5e3095"/></linearGradient><linearGradient id="e" x1="0.5" x2="0.5" y2="1" gradientUnits="objectBoundingBox"><stop offset="0" stop-color="#60ca99"/><stop offset="1" stop-color="#359d9e"/></linearGradient><linearGradient id="f" x1="0" y1="0.5" x2="1" y2="0.5" xlink:href="#a"/></defs><g transform="translate(0 0)"><g transform="translate(0 0)"><path class="a" d="M1149.684,420.444h59.172a58.045,58.045,0,0,1,57.9,57.85h0a58.046,58.046,0,0,1-57.9,57.848H708.52c-51.569,0-93.761-42.154-93.761-93.675h0c0-51.52,42.191-93.675,93.761-93.675h0a39.744,39.744,0,0,0,39.643-39.611h0a39.742,39.742,0,0,0-39.643-39.611H660.8a41.318,41.318,0,0,1-41.215-41.18h0A41.318,41.318,0,0,1,660.8,187.218h60.335a16.086,16.086,0,0,0,16.044-16.033h0a16.084,16.084,0,0,0-16.044-16.032H710.505A11.1,11.1,0,0,1,699.43,144.09h0a11.1,11.1,0,0,1,11.075-11.066h69.788c14.7,0,16.336,17.348,53.461,17.348h86.088A14.489,14.489,0,0,1,934.29,164.8h0a14.489,14.489,0,0,1-14.451,14.437H905.962a20.994,20.994,0,0,0-20.94,20.916h0a20.993,20.993,0,0,0,20.94,20.915h41.767c56.4,0,64.364,14.722,74.242,44.013s61.178,31.649,61.178,31.649h70.145a31.632,31.632,0,0,1,31.555,31.537h0A31.634,31.634,0,0,1,1153.3,359.8h-3.611a30.424,30.424,0,0,0-30.35,30.321h0a30.425,30.425,0,0,0,30.35,30.322ZM679.424,155.154a11.064,11.064,0,1,0-11.075-11.064A11.064,11.064,0,0,0,679.424,155.154Z" transform="translate(-614.76 -133.024)"/><g transform="translate(221.588 31.892)"><g transform="translate(197.784 143.54)"><path class="b" d="M1097.443,322.871c-38.436,0-38.5,54.655,0,54.655C1135.876,377.526,1135.94,322.871,1097.443,322.871Z" transform="translate(-1068.592 -322.871)"/><path class="c" d="M1121.218,355.7c-2.05,9.4-9.847,17.559-23.377,17.559-31.946,0-31.9-45.363,0-45.363.209,0,.418,0,.626.011-30.018.551-29.871,43.51.59,43.51C1111.481,371.42,1118.884,364.23,1121.218,355.7Z" transform="translate(-1068.996 -323.253)"/><g transform="translate(18.266 10.627)"><path class="c" d="M1099.172,334.371a.972.972,0,0,1,1,.913v1.522a14.3,14.3,0,0,1,7.4,2.663c.373.267.582.5.582.876a1.026,1.026,0,0,1-1.081.95,1.067,1.067,0,0,1-.749-.266,12.432,12.432,0,0,0-6.237-2.472v10.652c6.321,1.218,8.982,3.387,8.982,7.115,0,4.034-3.7,6.886-8.9,7.039v2.968a1,1,0,0,1-2,0v-3.006a16.373,16.373,0,0,1-9.355-3.691.969.969,0,0,1-.458-.8,1.044,1.044,0,0,1,1.04-.952,1.107,1.107,0,0,1,.75.267,14,14,0,0,0,8.109,3.462V350.769c-6.239-1.255-8.815-3.349-8.815-7.153,0-3.842,3.658-6.772,8.731-6.886v-1.446A.972.972,0,0,1,1099.172,334.371Zm-.914,14.458V338.442c-4.034.076-6.695,2.282-6.695,5.021C1091.563,346.052,1092.893,347.65,1098.258,348.829Zm1.829,2.321v10.5c4.158-.077,6.861-2.283,6.861-5.175C1106.948,353.851,1105.492,352.253,1100.086,351.15Z" transform="translate(-1088.36 -334.371)"/></g></g><path class="c" d="M881.434,168.429c27.979,5.02,20.589,46.469-7.436,41.44C846.02,204.85,853.409,163.4,881.434,168.429Z" transform="translate(-854.693 -167.572)"/><path class="b" d="M878.67,167.921c26.666,4.785,19.273,46.234-7.436,41.441C844.57,204.578,851.962,163.129,878.67,167.921Z" transform="translate(-854.556 -167.536)"/><path class="c" d="M858.327,189.933c.143,7.384,4.442,14.539,13.829,16.223,22.164,3.977,28.3-30.424,6.172-34.395-.144-.027-.289-.053-.435-.07,20.751,4.155,14.8,36.71-6.329,32.917C862.944,203.061,858.785,196.688,858.327,189.933Z" transform="translate(-854.843 -167.852)"/><g transform="translate(11.006 6.918)"><path class="c" d="M877.423,175.034a.714.714,0,0,1,.563.821l-.214,1.152a9.566,9.566,0,0,1,4.754,2.973.818.818,0,0,1,.28.738.752.752,0,0,1-.883.58.716.716,0,0,1-.481-.3,8.34,8.34,0,0,0-3.974-2.677l-1.5,8.067c4.208,1.737,5.747,3.723,5.22,6.547-.568,3.054-3.536,4.738-7.159,4.182l-.418,2.247a.7.7,0,0,1-1.383-.258l.424-2.276a11.017,11.017,0,0,1-5.963-4,.738.738,0,0,1,.651-1.25.739.739,0,0,1,.481.3,9.471,9.471,0,0,0,5.13,3.669l1.53-8.212c-4.146-1.756-5.637-3.673-5.1-6.554.542-2.91,3.49-4.657,7.022-4.088l.2-1.1A.713.713,0,0,1,877.423,175.034Zm-2.672,10.832L876.215,178c-2.806-.462-4.962.865-5.348,2.939C870.5,182.9,871.2,184.28,874.75,185.866Zm.94,1.993-1.481,7.953c2.892.48,5.077-.843,5.484-3.033C880.064,190.79,879.28,189.392,875.69,187.859Z" transform="translate(-866.467 -175.023)"/></g></g><g transform="translate(98.224 85.404)"><g transform="translate(0 89.404)"><rect class="b" width="191.999" height="92.479" transform="translate(8.113 0) rotate(5.033)"/><path class="c" d="M920.421,339.037l-5.791-.509L734.964,322.712l-5.8-.511-.51,5.791-7.084,80.529-.511,5.8,5.791.509,179.678,15.816,5.778.509h.013l8.117-92.122Zm-13.386,85.823L727.358,409.03l7.1-80.527L914.12,344.331Z" transform="translate(-721.056 -322.197)"/><ellipse class="c" cx="31.362" cy="26.893" rx="31.362" ry="26.893" transform="translate(70.046 84.488) rotate(-84.968)"/><path class="c" d="M779.593,375.3a7.206,7.206,0,1,1-6.546-7.81A7.205,7.205,0,0,1,779.593,375.3Z" transform="translate(-724.408 -325.633)"/><path class="c" d="M891.615,385.161a7.206,7.206,0,1,1-6.546-7.81A7.205,7.205,0,0,1,891.615,385.161Z" transform="translate(-732.914 -326.382)"/><path class="c" d="M740.7,416.243l-12.818-1.128,1.127-12.8A12.856,12.856,0,0,1,740.7,416.243Z" transform="translate(-721.573 -328.28)"/><path class="c" d="M922.388,419.422l-1.129,12.818-12.8-1.127A12.857,12.857,0,0,1,922.388,419.422Z" transform="translate(-735.285 -329.575)"/><path class="c" d="M916.111,344.919l12.818,1.128-1.128,12.8A12.857,12.857,0,0,1,916.111,344.919Z" transform="translate(-735.863 -323.922)"/><path class="c" d="M734.332,341.827l1.128-12.817,12.8,1.127A12.856,12.856,0,0,1,734.332,341.827Z" transform="translate(-722.064 -322.714)"/><g transform="translate(84.909 32.043)"><path class="b" d="M830,356.878a1.315,1.315,0,0,1,1.179,1.406l-.19,2.156a17.63,17.63,0,0,1,9.256,4.614,1.5,1.5,0,0,1,.645,1.306,1.385,1.385,0,0,1-1.518,1.224,1.324,1.324,0,0,1-.937-.462,15.417,15.417,0,0,0-7.772-4.214l-1.328,15.083c8.037,2.446,11.213,5.819,10.749,11.1-.5,5.709-5.653,9.329-12.406,8.95l-.371,4.2a1.3,1.3,0,0,1-2.585-.227l.375-4.256a20.313,20.313,0,0,1-11.661-6.294,1.361,1.361,0,0,1,.973-2.41,1.365,1.365,0,0,1,.936.462,17.464,17.464,0,0,0,10.073,5.827l1.351-15.352c-7.923-2.49-11-5.746-10.528-11.133.48-5.441,5.585-9.17,12.171-8.755l.181-2.047A1.314,1.314,0,0,1,830,356.878Zm-2.989,20.365,1.3-14.707c-5.235-.351-8.958,2.47-9.3,6.348C818.688,372.546,820.213,374.962,827.015,377.242Zm2.081,3.5-1.309,14.867c5.4.367,9.173-2.448,9.534-6.543C837.649,385.345,835.962,382.917,829.1,380.738Z" transform="translate(-812.941 -356.873)"/></g></g><g transform="translate(139.96 0)"><rect class="b" width="191.999" height="92.479" transform="translate(1.313 0) rotate(0.814)"/><path class="c" d="M1065.8,228.171l-5.813-.082-180.342-2.555-5.825-.082-.082,5.813L872.6,312.1l-.082,5.826,5.813.081,180.354,2.555,5.8.082h.013l1.318-92.47Zm-7.036,86.575-180.355-2.568,1.154-80.831,180.342,2.567Z" transform="translate(-872.516 -225.446)"/><ellipse class="c" cx="31.362" cy="26.893" rx="31.362" ry="26.893" transform="matrix(0.014, -1, 1, 0.014, 69.295, 79.703)"/><path class="c" d="M927.509,274.7a7.206,7.206,0,1,1-7.1-7.308A7.206,7.206,0,0,1,927.509,274.7Z" transform="translate(-875.597 -228.631)"/><path class="c" d="M1039.953,276.292a7.206,7.206,0,1,1-7.1-7.307A7.206,7.206,0,0,1,1039.953,276.292Z" transform="translate(-884.135 -228.752)"/><path class="c" d="M891.765,318.432l-12.866-.183.183-12.851A12.856,12.856,0,0,1,891.765,318.432Z" transform="translate(-873 -231.517)"/><path class="c" d="M1073.192,308.162l-.183,12.866-12.851-.183A12.856,12.856,0,0,1,1073.192,308.162Z" transform="translate(-886.764 -231.727)"/><path class="c" d="M1061.384,234.4l12.867.182-.183,12.852A12.857,12.857,0,0,1,1061.384,234.4Z" transform="translate(-886.857 -226.126)"/><path class="c" d="M879.943,244.686l.183-12.866,12.852.182A12.857,12.857,0,0,1,879.943,244.686Z" transform="translate(-873.08 -225.93)"/><g transform="translate(82.722 25.055)"><path class="b" d="M976.588,252.56a1.317,1.317,0,0,1,1.28,1.316l-.031,2.163a17.63,17.63,0,0,1,9.57,3.921,1.5,1.5,0,0,1,.739,1.255,1.385,1.385,0,0,1-1.424,1.333,1.323,1.323,0,0,1-.968-.392,15.414,15.414,0,0,0-8.061-3.63l-.215,15.139c8.194,1.848,11.611,4.978,11.536,10.277-.081,5.731-4.951,9.72-11.714,9.839L977.24,298a1.3,1.3,0,1,1-2.595-.037l.06-4.272a20.306,20.306,0,0,1-12.092-5.419,1.361,1.361,0,0,1,.793-2.475,1.364,1.364,0,0,1,.968.392,17.46,17.46,0,0,0,10.474,5.069l.218-15.41c-8.085-1.9-11.4-4.921-11.318-10.328.077-5.461,4.895-9.557,11.494-9.627l.029-2.054A1.316,1.316,0,0,1,976.588,252.56Zm-1.481,20.53.21-14.762c-5.247.035-8.752,3.121-8.807,7.016C966.457,269.019,968.155,271.316,975.107,273.09Zm2.332,3.333-.212,14.924c5.409-.032,8.969-3.117,9.026-7.227C986.306,280.389,984.446,278.091,977.439,276.423Z" transform="translate(-962.036 -252.56)"/></g></g></g></g><g transform="translate(93.236 308.77)"><path class="d" d="M715.657,467.627l48.491-.225,48.491-.082,96.982-.155,96.982.154,48.491.081,48.491.226-48.491.226-48.491.081-96.982.154-96.982-.155-48.491-.082Z" transform="translate(-715.657 -467.166)"/></g><g transform="translate(127.087 60.05)"><g transform="translate(86.883 19.858)"><g transform="translate(0.285)"><g transform="translate(4.953)"><rect class="e" width="198.343" height="95.534" transform="translate(0.007 23.023) rotate(-6.665)"/><rect class="f" width="198.343" height="95.534" transform="translate(0.007 23.023) rotate(-6.665)"/><path class="g" d="M1048.983,219.5l-5.965.7L857.959,241.828l-5.978.7.7,5.966,9.7,82.945.7,5.978,5.965-.7,185.072-21.632,5.953-.7h.013L1049,219.5Zm4.435,89.621L868.344,330.74l-9.687-82.947,185.061-21.619Z" transform="translate(-851.981 -219.498)"/><ellipse class="g" cx="27.782" cy="32.398" rx="27.782" ry="32.398" transform="translate(72.833 31.161) rotate(-6.665)"/><path class="g" d="M913.556,287.568a7.444,7.444,0,1,1-8.257-6.529A7.444,7.444,0,0,1,913.556,287.568Z" transform="translate(-855.53 -224.167)"/><path class="g" d="M1028.942,274.086a7.444,7.444,0,1,1-8.258-6.53A7.444,7.444,0,0,1,1028.942,274.086Z" transform="translate(-864.291 -223.143)"/><path class="g" d="M882.767,337.248l-13.2,1.542L868.023,325.6A13.282,13.282,0,0,1,882.767,337.248Z" transform="translate(-853.199 -227.548)"/><path class="g" d="M1067.331,302.2l1.542,13.2-13.187,1.54A13.281,13.281,0,0,1,1067.331,302.2Z" transform="translate(-867.442 -225.778)"/><path class="g" d="M1045.186,228.256l13.2-1.543,1.54,13.188A13.282,13.282,0,0,1,1045.186,228.256Z" transform="translate(-866.651 -220.046)"/><path class="g" d="M860.743,263.183l-1.543-13.2,13.187-1.54A13.281,13.281,0,0,1,860.743,263.183Z" transform="translate(-852.529 -221.696)"/><g transform="translate(90.192 35.775)"><path class="e" d="M961.057,258.221a1.359,1.359,0,0,1,1.487,1.175l.26,2.221a18.218,18.218,0,0,1,10.33,2.729,1.553,1.553,0,0,1,.926,1.186,1.433,1.433,0,0,1-1.28,1.556,1.369,1.369,0,0,1-1.044-.272,15.927,15.927,0,0,0-8.744-2.635l1.815,15.535c8.642.791,12.562,3.538,13.2,8.976.687,5.881-3.764,10.621-10.675,11.652l.506,4.329a1.341,1.341,0,0,1-2.663.311l-.513-4.385a20.978,20.978,0,0,1-13.113-3.924,1.406,1.406,0,0,1,.479-2.642,1.406,1.406,0,0,1,1.044.271,18.04,18.04,0,0,0,11.41,3.785l-1.848-15.814c-8.536-.858-12.333-3.508-12.981-9.057-.654-5.6,3.729-10.447,10.478-11.406l-.246-2.108A1.36,1.36,0,0,1,961.057,258.221Zm1.243,21.227L960.53,264.3c-5.369.741-8.544,4.375-8.076,8.37C952.893,276.442,954.941,278.566,962.3,279.448Zm2.837,3.1,1.789,15.315c5.536-.761,8.768-4.4,8.274-8.616C974.753,285.418,972.538,283.314,965.137,282.548Z" transform="translate(-949.584 -258.213)"/></g></g><g transform="translate(192.622 157)"><rect class="h" width="73.208" height="37.144"/><g transform="translate(46.746 8.584)"><ellipse class="b" cx="8.307" cy="8.307" rx="8.307" ry="8.307" transform="matrix(0.229, -0.973, 0.973, 0.229, 0, 16.173)"/><ellipse class="c" cx="4.543" cy="4.543" rx="4.543" ry="4.543" transform="translate(5.444 5.444)"/></g></g><g transform="translate(0 91.377)"><rect class="i" width="221.576" height="165.438"/><rect class="j" width="221.576" height="165.438"/></g><g transform="translate(2.859 0.31)"><path class="k" d="M1028.589,227.389l22.1,99.894a10.354,10.354,0,0,1-7.865,12.349L884.391,374.693a10.353,10.353,0,0,1-12.34-7.879l-22.106-99.894a9.635,9.635,0,0,1,7.325-11.49L1017.1,220.063A9.636,9.636,0,0,1,1028.589,227.389Z" transform="translate(-849.715 -219.833)"/><g transform="translate(16.956 19.717)"><path class="l" d="M1034.425,326.428a9.524,9.524,0,1,1-11.357-7.241A9.525,9.525,0,0,1,1034.425,326.428Z" transform="translate(-879.267 -247.077)"/><path class="m" d="M1046.816,323.687a9.524,9.524,0,1,1-11.357-7.242A9.524,9.524,0,0,1,1046.816,323.687Z" transform="translate(-880.208 -246.869)"/><rect class="n" width="34.345" height="23.735" rx="4.202" transform="translate(0 31.794) rotate(-12.478)"/><path class="o" d="M1023.937,254.036l-15.172,3.357a6.509,6.509,0,0,1-7.761-4.949h0a6.508,6.508,0,0,1,4.948-7.761l15.172-3.357a6.509,6.509,0,0,1,7.762,4.948h0A6.51,6.51,0,0,1,1023.937,254.036Z" transform="translate(-878.147 -241.17)"/><g transform="translate(6.796 42.235)"><path class="p" d="M877.195,323.732l-1.2,1.111a.325.325,0,0,1-.483-.01.329.329,0,0,1,.023-.486l1.625-1.554a.359.359,0,0,1,.486.024.406.406,0,0,1,.1.241l1.977,8.936a.336.336,0,0,1-.259.407.347.347,0,0,1-.408-.26Z" transform="translate(-875.419 -289.596)"/><path class="p" d="M882.469,331.089l3.637-5.106a2.581,2.581,0,0,0,.422-2.047A2.569,2.569,0,0,0,883.476,322a2.593,2.593,0,0,0-1.554,1.015l-.377.535a.342.342,0,0,1-.566-.384l.374-.55a3.339,3.339,0,0,1,1.973-1.3,3.273,3.273,0,0,1,3.869,2.467,3.277,3.277,0,0,1-.519,2.594l-3.112,4.376,4.6-1.017a.349.349,0,0,1,.151.681l-5.42,1.2-.056.012a.323.323,0,0,1-.272-.043A.373.373,0,0,1,882.469,331.089Z" transform="translate(-875.836 -289.485)"/><path class="p" d="M895.374,319.259,893.43,322.4a3.382,3.382,0,0,1,.765,6.683,3.323,3.323,0,0,1-2.536-.459.352.352,0,0,1,.378-.594,2.679,2.679,0,0,0,2,.345,2.708,2.708,0,0,0,1.682-1.16,2.66,2.66,0,0,0,.356-2.018,2.673,2.673,0,0,0-3.174-2.023.366.366,0,0,1-.308-.078l-.014,0a.359.359,0,0,1-.111-.5l1.868-3.023-3.725.824a.356.356,0,0,1-.153-.695L895,318.7a.352.352,0,0,1,.425.27.285.285,0,0,1-.008.163A.318.318,0,0,1,895.374,319.259Z" transform="translate(-876.54 -289.291)"/><path class="p" d="M905.871,324.412l-5.267,1.166-.014,0-.028.006a.3.3,0,0,1-.224-.024.328.328,0,0,1-.147-.463l4.079-8.249.011-.018a.329.329,0,0,1,.463-.146.434.434,0,0,1,.148.141c.005.029.023.039.027.053l.009.042,1.476,6.671.653-.144a.342.342,0,1,1,.148.666l-.654.145.37,1.668a.35.35,0,0,1-.273.41.345.345,0,0,1-.407-.26Zm-.148-.667-1.26-5.7-3.34,6.715Z" transform="translate(-877.297 -289.135)"/><path class="p" d="M919.66,322.442a.344.344,0,0,1-.108-.487.361.361,0,0,1,.5-.11,2.677,2.677,0,0,0,2,.345,2.673,2.673,0,0,0,2.023-3.174,2.622,2.622,0,0,0-3.159-2.026,2.631,2.631,0,0,0-1.679,1.173.345.345,0,0,1-.486.107.226.226,0,0,1-.109-.092l0-.014a.053.053,0,0,1-.023-.039.267.267,0,0,1-.038-.109c0-.013,0-.044,0-.071l-.4-4.024a.3.3,0,0,1,.084-.281.325.325,0,0,1,.2-.132l4.53-1a.353.353,0,0,1,.425.271.345.345,0,0,1-.271.424l-4.239.938.293,2.967a3.362,3.362,0,0,1,1.554-.81,3.352,3.352,0,0,1,4.009,2.568,3.334,3.334,0,0,1-.442,2.547,3.462,3.462,0,0,1-2.122,1.476A3.379,3.379,0,0,1,919.66,322.442Z" transform="translate(-878.666 -288.82)"/><path class="p" d="M928.191,313.615a4.041,4.041,0,0,1,2.937-2.866.346.346,0,0,1,.419.242.373.373,0,0,1-.253.436,3.371,3.371,0,0,0-2.444,2.391,6.523,6.523,0,0,0-.265,2.1,3.275,3.275,0,1,1-.314,2.4,5.009,5.009,0,0,1-.168-.633A8.212,8.212,0,0,1,928.191,313.615Zm.748,4.5a.726.726,0,0,0,.068.174.223.223,0,0,1,.007.1,2.653,2.653,0,1,0-.088-.332Z" transform="translate(-879.403 -288.687)"/><path class="p" d="M939.444,318.566l1.71-9.329-4.7,1.04a.341.341,0,1,1-.147-.666l5.141-1.138a.376.376,0,0,1,.212-.033.391.391,0,0,1,.227.168.34.34,0,0,1,.053.105.283.283,0,0,1-.016.193l-1.785,9.783a.357.357,0,0,1-.26.276.257.257,0,0,1-.145,0A.377.377,0,0,1,939.444,318.566Z" transform="translate(-880.022 -288.512)"/><path class="p" d="M947.761,307.077a2.069,2.069,0,0,1,2,3.39,3.223,3.223,0,1,1-2.4.531,2.1,2.1,0,0,1-1.169-1.461A2.057,2.057,0,0,1,947.761,307.077Zm2.005,9.06a2.548,2.548,0,1,0-3.039-1.937A2.535,2.535,0,0,0,949.766,316.137Zm-1.255-5.67a1.418,1.418,0,0,0,1.057-1.677,1.388,1.388,0,0,0-2.709.6A1.406,1.406,0,0,0,948.511,310.467Z" transform="translate(-880.777 -288.405)"/><path class="p" d="M966.4,302.934a3.274,3.274,0,0,1,3.824,2.127c.02.025.023.039.043.064.073.261.148.535.212.827a8.251,8.251,0,0,1-.073,4.083,4.121,4.121,0,0,1-2.938,2.866l-.014,0a.338.338,0,0,1-.419-.244.362.362,0,0,1,.254-.434,3.376,3.376,0,0,0,2.444-2.392,6.3,6.3,0,0,0,.265-2.1,3.292,3.292,0,1,1-3.6-4.8Zm3.251,2.633a2.6,2.6,0,1,0-1.984,3.092A2.582,2.582,0,0,0,969.656,305.567Z" transform="translate(-882.132 -288.088)"/><path class="p" d="M973.927,306.375a6.339,6.339,0,0,1,.177-3.61,2.823,2.823,0,0,1,4.864-1.077,6.487,6.487,0,0,1,1.7,3.2,6.386,6.386,0,0,1-.2,3.6,2.811,2.811,0,0,1-4.864,1.077A6.262,6.262,0,0,1,973.927,306.375Zm.681-.151a5.649,5.649,0,0,0,1.487,2.834,2.119,2.119,0,0,0,3.724-.824,6.005,6.005,0,0,0-1.334-6.031,2.118,2.118,0,0,0-3.724.823A5.648,5.648,0,0,0,974.608,306.225Z" transform="translate(-882.886 -287.926)"/><path class="p" d="M985.026,299.871l-1.2,1.111a.327.327,0,0,1-.484-.01.33.33,0,0,1,.023-.487l1.624-1.554a.36.36,0,0,1,.486.024.409.409,0,0,1,.1.241l1.978,8.936a.336.336,0,0,1-.26.407.347.347,0,0,1-.407-.259Z" transform="translate(-883.607 -287.784)"/><path class="p" d="M990.3,307.227l3.637-5.105a2.585,2.585,0,0,0,.422-2.046,2.57,2.57,0,0,0-3.052-1.935,2.594,2.594,0,0,0-1.554,1.016l-.377.535a.343.343,0,1,1-.566-.385l.374-.549a3.343,3.343,0,0,1,1.973-1.3,3.273,3.273,0,0,1,3.869,2.468,3.275,3.275,0,0,1-.519,2.593l-3.112,4.376,4.6-1.017a.349.349,0,0,1,.151.681l-5.42,1.2-.055.013a.324.324,0,0,1-.272-.042A.374.374,0,0,1,990.3,307.227Z" transform="translate(-884.024 -287.673)"/><path class="p" d="M1012.222,293.4l-1.944,3.141a3.382,3.382,0,0,1,.765,6.682,3.315,3.315,0,0,1-2.536-.459.352.352,0,1,1,.378-.593,2.67,2.67,0,0,0,4.039-2.833,2.672,2.672,0,0,0-3.175-2.023.37.37,0,0,1-.308-.078l-.014,0a.359.359,0,0,1-.111-.5l1.868-3.023-3.724.824a.356.356,0,1,1-.154-.695l4.544-1.005a.351.351,0,0,1,.424.27.285.285,0,0,1-.008.163A.309.309,0,0,1,1012.222,293.4Z" transform="translate(-885.412 -287.328)"/><path class="p" d="M1022.719,298.555l-5.267,1.165-.014,0-.028.006a.3.3,0,0,1-.224-.023.328.328,0,0,1-.146-.463l4.078-8.25.011-.017a.33.33,0,0,1,.464-.147.462.462,0,0,1,.148.142c.006.028.022.039.026.053l.009.042,1.476,6.671.653-.144a.342.342,0,1,1,.148.667l-.653.144.369,1.668a.349.349,0,0,1-.681.151Zm-.148-.666-1.261-5.7-3.34,6.714Z" transform="translate(-886.169 -287.172)"/><path class="p" d="M1027.491,298.58a.344.344,0,0,1-.108-.487.361.361,0,0,1,.5-.11,2.675,2.675,0,0,0,2,.345,2.662,2.662,0,1,0-2.815-4.027.344.344,0,0,1-.486.107.224.224,0,0,1-.108-.092l0-.015a.054.054,0,0,1-.023-.038.277.277,0,0,1-.038-.109c0-.014,0-.044,0-.072l-.394-4.023a.3.3,0,0,1,.083-.282.325.325,0,0,1,.2-.132l4.53-1a.353.353,0,0,1,.424.271.344.344,0,0,1-.271.424l-4.239.938.292,2.967a3.369,3.369,0,0,1,1.555-.81A3.354,3.354,0,0,1,1032.6,295a3.338,3.338,0,0,1-.443,2.547,3.461,3.461,0,0,1-2.122,1.476A3.373,3.373,0,0,1,1027.491,298.58Z" transform="translate(-886.853 -287.009)"/><path class="p" d="M1036.022,289.753a4.042,4.042,0,0,1,2.937-2.866.347.347,0,0,1,.418.243.372.372,0,0,1-.254.435,3.373,3.373,0,0,0-2.443,2.391,6.514,6.514,0,0,0-.265,2.1,3.276,3.276,0,1,1-.314,2.4,4.991,4.991,0,0,1-.168-.632A8.213,8.213,0,0,1,1036.022,289.753Zm.748,4.5a.716.716,0,0,0,.068.175.211.211,0,0,1,.007.1,2.652,2.652,0,1,0-.088-.331Z" transform="translate(-887.591 -286.875)"/></g><rect class="l" width="86.886" height="4.27" transform="translate(15.431 101.525) rotate(-12.478)"/><rect class="l" width="61.512" height="4.27" transform="matrix(0.976, -0.216, 0.216, 0.976, 17.48, 110.784)"/><rect class="l" width="43.334" height="4.27" transform="matrix(0.976, -0.216, 0.216, 0.976, 73.304, 15.573)"/></g><g transform="translate(11.214 111.439)"><rect class="q" width="193.429" height="56.619"/><rect class="r" width="193.429" height="56.619"/></g></g><g transform="translate(14.073 100.722)"><g transform="translate(5.1)"><path class="c" d="M1050.333,338.107l.266,102.31a10.354,10.354,0,0,1-10.321,10.385l-162.27.421a10.354,10.354,0,0,1-10.374-10.332l-.265-102.31a9.635,9.635,0,0,1,9.609-9.66l163.694-.424A9.635,9.635,0,0,1,1050.333,338.107Z" transform="translate(-867.37 -328.497)"/><g transform="translate(12.325 17.598)"><path class="l" d="M1035.512,433.3a9.524,9.524,0,1,1-9.549-9.5A9.525,9.525,0,0,1,1035.512,433.3Z" transform="translate(-891.016 -353.332)"/><path class="e" d="M1048.2,433.27a9.524,9.524,0,1,1-9.549-9.5A9.524,9.524,0,0,1,1048.2,433.27Z" transform="translate(-891.98 -353.329)"/><rect class="e" width="34.344" height="23.735" rx="4.202" transform="translate(3.07 0.38) rotate(-0.149)"/><path class="o" d="M1040.722,360.558l-15.539.041a6.509,6.509,0,0,1-6.526-6.492h0a6.51,6.51,0,0,1,6.493-6.526l15.539-.04a6.508,6.508,0,0,1,6.526,6.492h0A6.509,6.509,0,0,1,1040.722,360.558Z" transform="translate(-891.183 -347.541)"/><g transform="translate(0 44.364)"><path class="p" d="M882.635,396.98l-1.407.83a.325.325,0,0,1-.47-.113.328.328,0,0,1,.127-.469l1.918-1.173a.361.361,0,0,1,.47.128.414.414,0,0,1,.043.256l.023,9.152a.336.336,0,0,1-.34.342.346.346,0,0,1-.343-.34Z" transform="translate(-880.708 -395.585)"/><path class="p" d="M886.193,405.308l4.643-4.211a2.586,2.586,0,0,0,.849-1.909,2.57,2.57,0,0,0-2.569-2.541,2.594,2.594,0,0,0-1.735.659l-.483.443a.342.342,0,1,1-.47-.5l.482-.456a3.342,3.342,0,0,1,2.2-.846,3.275,3.275,0,0,1,3.254,3.237,3.279,3.279,0,0,1-1.061,2.423l-3.976,3.611,4.711-.013a.349.349,0,0,1,0,.7l-5.551.014h-.056a.32.32,0,0,1-.257-.1A.373.373,0,0,1,886.193,405.308Z" transform="translate(-881.116 -395.58)"/><path class="p" d="M901.318,396.544l-2.57,2.654a3.382,3.382,0,0,1-.68,6.691,3.321,3.321,0,0,1-2.379-.99.352.352,0,1,1,.5-.5,2.677,2.677,0,0,0,1.881.763,2.708,2.708,0,0,0,1.891-.773,2.664,2.664,0,0,0,.779-1.9,2.674,2.674,0,0,0-2.669-2.654.369.369,0,0,1-.284-.141h-.015a.36.36,0,0,1,0-.513l2.469-2.553-3.814.009a.356.356,0,1,1,0-.712l4.654-.012a.353.353,0,0,1,.358.355.289.289,0,0,1-.044.157A.309.309,0,0,1,901.318,396.544Z" transform="translate(-881.837 -395.578)"/><path class="p" d="M910.386,403.81l-5.4.015h-.042a.3.3,0,0,1-.213-.071.328.328,0,0,1-.044-.483l5.746-7.188.014-.015a.328.328,0,0,1,.484-.043.431.431,0,0,1,.114.17c0,.029.014.042.015.056v.043l.018,6.832.669,0a.342.342,0,1,1,0,.683l-.669,0,0,1.708a.348.348,0,0,1-.7,0Zm0-.683-.015-5.836-4.7,5.848Z" transform="translate(-882.523 -395.579)"/><path class="p" d="M924.365,404.838a.343.343,0,0,1,0-.5.36.36,0,0,1,.512,0,2.672,2.672,0,0,0,1.881.763,2.672,2.672,0,0,0,2.655-2.668,2.657,2.657,0,0,0-4.545-1.868.344.344,0,0,1-.5,0,.22.22,0,0,1-.087-.114v-.015a.052.052,0,0,1-.014-.043.268.268,0,0,1-.015-.114.692.692,0,0,0,.014-.071l.473-4.015a.3.3,0,0,1,.141-.257.328.328,0,0,1,.228-.085l4.64-.013a.353.353,0,0,1,.357.355.344.344,0,0,1-.355.357l-4.341.012-.348,2.962a3.345,3.345,0,0,1,1.692-.46,3.352,3.352,0,0,1,3.368,3.365,3.337,3.337,0,0,1-.976,2.393,3.457,3.457,0,0,1-2.389.989A3.373,3.373,0,0,1,924.365,404.838Z" transform="translate(-884.015 -395.572)"/><path class="p" d="M934.543,398.009a4.041,4.041,0,0,1,3.481-2.172.344.344,0,0,1,.357.325.373.373,0,0,1-.34.372,3.37,3.37,0,0,0-2.9,1.815,6.526,6.526,0,0,0-.707,1.994,3.275,3.275,0,1,1-.82,2.279,5.035,5.035,0,0,1-.03-.654A8.213,8.213,0,0,1,934.543,398.009Zm-.23,4.556a.726.726,0,0,0,.029.185.216.216,0,0,1-.014.1,2.655,2.655,0,1,0-.015-.342Z" transform="translate(-884.723 -395.572)"/><path class="p" d="M944.556,405.288l3.663-8.749-4.811.012a.341.341,0,0,1,0-.682l5.266-.014a.322.322,0,0,1,.4.225.331.331,0,0,1,.03.115.285.285,0,0,1-.057.186l-3.833,9.176a.356.356,0,0,1-.312.214.255.255,0,0,1-.142-.029A.376.376,0,0,1,944.556,405.288Z" transform="translate(-885.443 -395.572)"/><path class="p" d="M955.04,395.778a2.069,2.069,0,0,1,1.234,3.74,3.225,3.225,0,1,1-2.462.006,2.1,2.1,0,0,1-.831-1.676A2.057,2.057,0,0,1,955.04,395.778Zm.025,9.28a2.548,2.548,0,1,0-2.554-2.541A2.536,2.536,0,0,0,955.065,405.058Zm-.015-5.808a1.418,1.418,0,0,0,1.391-1.413,1.388,1.388,0,0,0-2.776.008A1.406,1.406,0,0,0,955.05,399.251Z" transform="translate(-886.108 -395.567)"/><path class="p" d="M974.2,395.728a3.274,3.274,0,0,1,3.281,2.9c.015.029.015.042.029.07.016.271.03.555.031.854a8.26,8.26,0,0,1-.943,3.974,4.121,4.121,0,0,1-3.482,2.172H973.1a.339.339,0,0,1-.357-.327.361.361,0,0,1,.34-.371,3.378,3.378,0,0,0,2.9-1.815,6.291,6.291,0,0,0,.707-2,3.292,3.292,0,1,1-2.492-5.459Zm2.614,3.267a2.6,2.6,0,1,0-2.6,2.6A2.582,2.582,0,0,0,976.812,398.995Z" transform="translate(-887.558 -395.564)"/><path class="p" d="M980.79,400.693a6.343,6.343,0,0,1,.944-3.489,2.823,2.823,0,0,1,4.982-.014,6.479,6.479,0,0,1,.978,3.486,6.4,6.4,0,0,1-.959,3.475,2.811,2.811,0,0,1-4.982.013A6.268,6.268,0,0,1,980.79,400.693Zm.7,0a5.663,5.663,0,0,0,.847,3.086,2.12,2.12,0,0,0,3.815-.01,6.01,6.01,0,0,0-.016-6.177,2.119,2.119,0,0,0-3.815.009A5.649,5.649,0,0,0,981.487,400.691Z" transform="translate(-888.308 -395.562)"/><path class="p" d="M993.074,396.694l-1.407.83a.343.343,0,0,1-.171.056.347.347,0,0,1-.3-.169.33.33,0,0,1,.127-.47l1.919-1.173a.363.363,0,0,1,.47.128.413.413,0,0,1,.043.256l.024,9.153a.336.336,0,0,1-.34.341.346.346,0,0,1-.344-.34Z" transform="translate(-889.094 -395.564)"/><path class="p" d="M996.632,405.022l4.643-4.212a2.584,2.584,0,0,0,.849-1.908,2.57,2.57,0,0,0-2.568-2.542,2.593,2.593,0,0,0-1.735.66l-.482.443a.342.342,0,0,1-.471-.5l.482-.456a3.339,3.339,0,0,1,2.2-.845,3.271,3.271,0,0,1,3.253,3.237,3.277,3.277,0,0,1-1.061,2.422l-3.975,3.611,4.711-.012a.348.348,0,0,1,0,.7l-5.552.015h-.056a.324.324,0,0,1-.257-.1A.373.373,0,0,1,996.632,405.022Z" transform="translate(-889.502 -395.559)"/><path class="p" d="M1020.993,396.234l-2.57,2.653a3.341,3.341,0,0,1,2.7,3.3,3.328,3.328,0,0,1-.99,2.393,3.382,3.382,0,0,1-2.389,1,3.317,3.317,0,0,1-2.38-.99.352.352,0,1,1,.5-.5,2.679,2.679,0,0,0,1.881.763,2.706,2.706,0,0,0,1.891-.774,2.663,2.663,0,0,0,.779-1.9,2.674,2.674,0,0,0-2.67-2.655.369.369,0,0,1-.285-.142h-.014a.359.359,0,0,1,0-.512l2.47-2.554-3.814.01a.356.356,0,0,1,0-.712l4.655-.011a.351.351,0,0,1,.357.354.287.287,0,0,1-.042.157A.329.329,0,0,1,1020.993,396.234Z" transform="translate(-890.925 -395.554)"/><path class="p" d="M1030.06,403.5l-5.395.014h-.043a.294.294,0,0,1-.214-.071.327.327,0,0,1-.043-.483l5.745-7.188.015-.015a.33.33,0,0,1,.484-.043.457.457,0,0,1,.114.17c0,.029.014.043.015.057v.042l.016,6.833.669,0a.342.342,0,1,1,0,.683l-.669,0,0,1.709a.349.349,0,0,1-.7,0Zm0-.683-.015-5.836-4.7,5.847Z" transform="translate(-891.61 -395.556)"/><path class="p" d="M1034.8,404.552a.345.345,0,0,1,0-.5.362.362,0,0,1,.512,0,2.678,2.678,0,0,0,1.881.764,2.672,2.672,0,0,0,2.655-2.669,2.657,2.657,0,0,0-4.546-1.867.343.343,0,0,1-.5,0,.226.226,0,0,1-.087-.113v-.015a.052.052,0,0,1-.014-.043.268.268,0,0,1-.015-.115.621.621,0,0,0,.014-.07l.474-4.015a.3.3,0,0,1,.141-.257.327.327,0,0,1,.228-.086l4.641-.012a.353.353,0,0,1,.357.355.344.344,0,0,1-.355.357l-4.341.011-.349,2.962a3.358,3.358,0,0,1,1.692-.46,3.351,3.351,0,0,1,3.368,3.365,3.333,3.333,0,0,1-.975,2.393,3.457,3.457,0,0,1-2.389.989A3.371,3.371,0,0,1,1034.8,404.552Z" transform="translate(-892.4 -395.55)"/><path class="p" d="M1044.982,397.723a4.042,4.042,0,0,1,3.481-2.172.346.346,0,0,1,.358.326.373.373,0,0,1-.341.372,3.373,3.373,0,0,0-2.9,1.815,6.522,6.522,0,0,0-.707,1.994,3.276,3.276,0,1,1-.819,2.28,5.047,5.047,0,0,1-.03-.654A8.223,8.223,0,0,1,1044.982,397.723Zm-.23,4.556a.688.688,0,0,0,.03.184.214.214,0,0,1-.015.1,2.652,2.652,0,1,0-.015-.342Z" transform="translate(-893.109 -395.55)"/></g><rect class="l" width="86.886" height="4.27" transform="matrix(1, -0.003, 0.003, 1, 3.256, 71.798)"/><rect class="l" width="61.512" height="4.27" transform="translate(3.28 81.281) rotate(-0.149)"/><rect class="l" width="43.334" height="4.27" transform="translate(78.147 0.185) rotate(-0.149)"/></g></g><g transform="translate(0 29.173)"><rect class="m" width="193.429" height="94.803"/><rect class="s" width="193.429" height="94.803"/></g></g><g transform="translate(14.073 146.742)"><rect class="q" width="193.429" height="94.803"/><rect class="r" width="193.429" height="94.803"/></g></g><g transform="translate(0 91.377)"><path class="i" d="M1048.15,512.514,846.621,483.822V318.384l6.464,4.793a21.714,21.714,0,0,0,10.624,4.15l184.441,19.749Z" transform="translate(-846.336 -318.384)"/><g transform="translate(0 7.11)"><rect class="o" width="0.924" height="1.848" transform="translate(0 0.728) rotate(-51.972)"/><path class="o" d="M1035.358,355.307l-3.727-.417.1-.919,3.727.417Zm-6.522-.729-3.727-.416.1-.919,3.728.416Zm-6.521-.728-3.728-.417.1-.919,3.727.417Zm-6.522-.729-3.727-.416.1-.919,3.727.417Zm-6.523-.728-3.727-.417.1-.919,3.727.418Zm-6.521-.729-3.727-.417.1-.919,3.727.417Zm-6.522-.728-3.727-.418.1-.918,3.728.417Zm-6.521-.729-3.728-.417.1-.919,3.727.416Zm-6.523-.729-3.726-.417.1-.919,3.726.417Zm-6.522-.729-3.727-.416.1-.919,3.727.416Zm-6.521-.728-3.727-.417.1-.919,3.727.417Zm-6.522-.729-3.727-.416.1-.919,3.727.416Zm-6.521-.728-3.728-.417.1-.919,3.727.417Zm-6.523-.729-3.726-.416.1-.919,3.726.416Zm-6.522-.728-3.727-.417.1-.919,3.728.417Zm-6.521-.729-3.727-.416.1-.919,3.727.416Zm-6.522-.728-3.727-.417.1-.919,3.727.417Zm-6.522-.729-3.727-.416.1-.919,3.726.417Zm-6.522-.728-3.727-.417.1-.919,3.726.418Zm-6.522-.729-3.727-.417.1-.918,3.728.416Zm-6.521-.728-3.728-.418.1-.919,3.727.417ZM898.4,340l-3.728-.416.1-.918,3.727.416Zm-6.522-.728-3.727-.417.1-.919,3.727.417Zm-6.522-.729-3.727-.416.1-.918,3.727.416Zm-6.522-.728-3.727-.416.1-.919,3.728.417Zm-6.522-.728-3.727-.417.1-.919,3.726.417Zm-6.522-.729-2.22-.248q-.771-.087-1.531-.226l.166-.908q.728.133,1.468.215l2.221.249Zm-6.535-1.172a22.358,22.358,0,0,1-3.528-1.479l.43-.819a21.188,21.188,0,0,0,3.38,1.417Zm-5.978-2.975q-.463-.326-.909-.675l-2.08-1.626.569-.729,2.08,1.627q.428.335.872.648Z" transform="translate(-846.614 -326.314)"/><path class="o" d="M1055.944,359.311h-.924v-1.435l-1.427-.16.1-.919,2.248.252Z" transform="translate(-862.052 -328.411)"/><path class="o" d="M1056.061,503.741h-.924V500h.924Zm0-6.545h-.924v-3.741h.924Zm0-6.545h-.924V486.91h.924Zm0-6.545h-.924v-3.741h.924Zm0-6.545h-.924V473.82h.924Zm0-6.545h-.924v-3.741h.924Zm0-6.545h-.924V460.73h.924Zm0-6.545h-.924v-3.741h.924Zm0-6.545h-.924v-3.74h.924Zm0-6.545h-.924V441.1h.924Zm0-6.545h-.924v-3.74h.924Zm0-6.545h-.924V428h.924Zm0-6.545h-.924v-3.74h.924Zm0-6.545h-.924v-3.74h.924Zm0-6.545h-.924v-3.74h.924Zm0-6.545h-.924v-3.74h.924Zm0-6.545h-.924v-3.74h.924Zm0-6.545h-.924v-3.74h.924Zm0-6.545h-.924v-3.74h.924Zm0-6.545h-.924v-3.74h.924Zm0-6.544h-.924V369.1h.924Zm0-6.545h-.924v-3.741h.924Z" transform="translate(-862.169 -328.848)"/><path class="o" d="M1055.943,520.762l-2.358-.351.135-.913,1.3.192v-1.312h.924Z" transform="translate(-862.052 -340.68)"/><path class="o" d="M1035.482,517.814l-3.679-.547.135-.913,3.68.546Zm-6.439-.956-3.68-.546.135-.914,3.68.546Zm-6.439-.957-3.68-.545.136-.914,3.679.546Zm-6.439-.955-3.68-.547.136-.913,3.679.547Zm-6.439-.956-3.679-.547.135-.913,3.68.547Zm-6.439-.956-3.68-.547.135-.913,3.68.547Zm-6.439-.956-3.68-.546.136-.913,3.679.545Zm-6.439-.956-3.68-.546.136-.914,3.679.546Zm-6.439-.956-3.679-.546.135-.914,3.679.547Zm-6.439-.956-3.68-.547.135-.913,3.681.547Zm-6.44-.956-3.679-.547.135-.913,3.68.547Zm-6.438-.956-3.68-.546.136-.913,3.679.546Zm-6.439-.956-3.68-.546.136-.913,3.679.545Zm-6.439-.955-3.68-.547.135-.913,3.681.546Zm-6.44-.957-3.679-.546.135-.914,3.68.547Zm-6.438-.956-3.68-.547.136-.913,3.679.547Zm-6.439-.956-3.68-.546.136-.913,3.68.546Zm-6.439-.956-3.68-.546.135-.913,3.68.546Zm-6.44-.956-3.679-.547.137-.913,3.679.546Zm-6.439-.956-3.68-.547.137-.913,3.68.546Zm-6.439-.957-3.68-.546.137-.914,3.679.547Zm-6.439-.956-3.679-.546.135-.913,3.68.546Zm-6.439-.956-3.679-.546.135-.913,3.68.546Zm-6.439-.956-3.68-.547.137-.913,3.679.547Zm-6.439-.956-3.68-.547.137-.913,3.679.547Zm-6.439-.956-3.68-.547.136-.913,3.68.546Zm-6.439-.956-3.679-.546.135-.914,3.68.546Zm-6.439-.957-3.68-.545.136-.914,3.68.546Zm-6.439-.956-3.679-.547.136-.913,3.679.547Z" transform="translate(-846.708 -338.493)"/><rect class="o" width="0.923" height="1.848" transform="translate(0.217 151.315) rotate(-81.548)"/></g><g transform="translate(167.797 101.279)"><ellipse class="b" cx="8.034" cy="9.15" rx="8.034" ry="9.15"/><path class="c" d="M1040.021,437.538a3.767,3.767,0,1,1-3.736-4.255A4.021,4.021,0,0,1,1040.021,437.538Z" transform="translate(-1028.251 -428.388)"/></g></g></g><g transform="translate(158.512 259.875)"><path class="c" d="M955.736,480.3c33.219,5.96,24.445,55.171-8.828,49.2C913.692,523.537,922.465,474.326,955.736,480.3Z" transform="translate(-923.989 -479.28)"/><path class="b" d="M952.455,479.694c31.659,5.681,22.883,54.891-8.827,49.2C911.971,523.214,920.747,474,952.455,479.694Z" transform="translate(-923.827 -479.237)"/><path class="c" d="M928.3,505.827c.17,8.767,5.275,17.262,16.419,19.261,26.314,4.721,33.6-36.122,7.328-40.836-.173-.031-.345-.061-.518-.082,24.637,4.933,17.576,43.583-7.514,39.08C933.784,521.414,928.847,513.848,928.3,505.827Z" transform="translate(-924.167 -479.612)"/><g transform="translate(13.067 8.213)"><path class="c" d="M950.975,488.139a.847.847,0,0,1,.668.974l-.255,1.369a11.355,11.355,0,0,1,5.643,3.529.969.969,0,0,1,.333.876.892.892,0,0,1-1.049.689.852.852,0,0,1-.572-.354,9.9,9.9,0,0,0-4.716-3.179l-1.785,9.577c5,2.064,6.823,4.422,6.2,7.774-.676,3.626-4.2,5.624-8.5,4.965l-.5,2.668a.835.835,0,0,1-1.642-.306l.5-2.7a13.075,13.075,0,0,1-7.079-4.751.877.877,0,0,1,.771-1.485.875.875,0,0,1,.571.355,11.246,11.246,0,0,0,6.091,4.355l1.816-9.75c-4.922-2.084-6.692-4.361-6.054-7.782.643-3.455,4.144-5.529,8.337-4.853l.242-1.3A.848.848,0,0,1,950.975,488.139ZM947.8,501l1.739-9.34c-3.331-.549-5.89,1.027-6.348,3.489C942.759,497.476,943.586,499.117,947.8,501Zm1.116,2.367-1.758,9.442c3.434.568,6.027-1,6.511-3.6C954.11,506.846,953.18,505.185,948.918,503.366Z" transform="translate(-937.967 -488.126)"/></g></g><g transform="translate(0)"><path class="c" d="M784.2,199.068c33.219,5.96,24.445,55.17-8.828,49.2C742.155,242.307,750.928,193.1,784.2,199.068Z" transform="translate(-752.452 -198.051)"/><path class="b" d="M780.919,198.465c31.658,5.68,22.882,54.89-8.829,49.2C740.434,241.985,749.21,192.776,780.919,198.465Z" transform="translate(-752.29 -198.009)"/><path class="c" d="M756.767,224.6c.169,8.768,5.274,17.262,16.418,19.261,26.314,4.722,33.6-36.121,7.328-40.836-.172-.031-.344-.062-.518-.082,24.637,4.933,17.576,43.582-7.513,39.08C762.248,240.185,757.31,232.618,756.767,224.6Z" transform="translate(-752.63 -198.383)"/><g transform="translate(13.067 8.213)"><path class="c" d="M779.438,206.91a.847.847,0,0,1,.668.974l-.255,1.369a11.353,11.353,0,0,1,5.643,3.528.971.971,0,0,1,.333.877.891.891,0,0,1-1.049.688.849.849,0,0,1-.572-.354,9.915,9.915,0,0,0-4.716-3.179l-1.784,9.578c5,2.063,6.822,4.421,6.2,7.773-.676,3.626-4.2,5.625-8.5,4.966l-.5,2.668a.835.835,0,0,1-1.642-.306l.5-2.7a13.071,13.071,0,0,1-7.079-4.752.876.876,0,0,1,.772-1.484.885.885,0,0,1,.572.354,11.235,11.235,0,0,0,6.09,4.356l1.816-9.75c-4.922-2.085-6.692-4.362-6.054-7.782.643-3.455,4.144-5.529,8.337-4.854l.242-1.3A.847.847,0,0,1,779.438,206.91Zm-3.173,12.859L778,210.431c-3.331-.55-5.89,1.027-6.348,3.489C771.222,216.247,772.049,217.887,776.265,219.769Zm1.116,2.367-1.759,9.442c3.434.568,6.027-1,6.511-3.6C782.573,225.616,781.644,223.956,777.381,222.136Z" transform="translate(-766.43 -206.896)"/></g></g></g></g></svg>