<svg xmlns="http://www.w3.org/2000/svg" xmlns:xlink="http://www.w3.org/1999/xlink" width="427.466" height="259.664" viewBox="0 0 427.466 259.664">
  <defs>
    <linearGradient id="linear-gradient" x1="1.003" y1="0.483" x2="-0.299" y2="0.538" gradientUnits="objectBoundingBox">
      <stop offset="0" stop-color="#6840d5"/>
      <stop offset="1" stop-color="#256ae5"/>
    </linearGradient>
    <linearGradient id="linear-gradient-2" x1="1.062" y1="0.49" x2="-0.07" y2="0.509" xlink:href="#linear-gradient"/>
    <linearGradient id="linear-gradient-3" x1="8.895" y1="0.5" x2="9.895" y2="0.5" gradientUnits="objectBoundingBox">
      <stop offset="0" stop-color="#6840d5"/>
      <stop offset="1" stop-color="#3996f7"/>
    </linearGradient>
  </defs>
  <g id="Group_130" data-name="Group 130" transform="translate(-427 -2691.086)">
    <g id="Group_135" data-name="Group 135" transform="translate(469.308 2713.973)">
      <g id="Group_126" data-name="Group 126" transform="translate(0 0)">
        <path id="Path_258" data-name="Path 258" d="M279.459,552.347l1.213-.851a.353.353,0,0,1,.5.1.379.379,0,0,1-.091.517h0l-.008.006-1.2.838-.008.006a.353.353,0,0,1-.5-.1A.378.378,0,0,1,279.459,552.347Z" transform="translate(-264.847 -357.404)" fill="#256ae5"/>
        <path id="Path_259" data-name="Path 259" d="M287.545,547.123l1.275-.747a.359.359,0,0,1,.495.145.381.381,0,0,1-.132.512h0l-.007,0-1.262.738-.007,0a.358.358,0,0,1-.493-.145A.379.379,0,0,1,287.545,547.123Z" transform="translate(-268.813 -354.892)" fill="#256ae5"/>
        <path id="Path_260" data-name="Path 260" d="M296,542.543l1.322-.653a.363.363,0,0,1,.489.181.382.382,0,0,1-.167.505h0l-.006,0-1.31.645-.006,0a.362.362,0,0,1-.487-.181A.38.38,0,0,1,296,542.543Z" transform="translate(-272.96 -352.691)" fill="#256ae5"/>
        <path id="Path_261" data-name="Path 261" d="M304.741,538.554l1.359-.566a.368.368,0,0,1,.482.213.383.383,0,0,1-.2.5h0l-.006,0-1.347.559-.006,0a.368.368,0,0,1-.48-.213A.381.381,0,0,1,304.741,538.554Z" transform="translate(-277.249 -350.776)" fill="#256ae5"/>
        <path id="Path_262" data-name="Path 262" d="M313.706,535.115l1.389-.484a.374.374,0,0,1,.473.243.383.383,0,0,1-.227.488h0l-.006,0-1.378.479-.006,0a.373.373,0,0,1-.472-.244A.383.383,0,0,1,313.706,535.115Z" transform="translate(-281.649 -349.128)" fill="#256ae5"/>
        <path id="Path_263" data-name="Path 263" d="M322.854,532.2l1.412-.406a.379.379,0,0,1,.464.271.385.385,0,0,1-.254.478h0l-.006,0-1.4.4-.006,0a.378.378,0,0,1-.463-.271A.384.384,0,0,1,322.854,532.2Z" transform="translate(-286.139 -347.734)" fill="#256ae5"/>
        <path id="Path_264" data-name="Path 264" d="M332.146,529.783l1.431-.331a.393.393,0,0,1,.175.765h-.006l-1.421.327-.005,0a.392.392,0,0,1-.174-.764Z" transform="translate(-290.7 -346.585)" fill="#256ae5"/>
        <path id="Path_265" data-name="Path 265" d="M341.554,527.856,343,527.6a.4.4,0,0,1,.14.779h-.006l-1.435.253h-.006a.395.395,0,0,1-.139-.777Z" transform="translate(-295.318 -345.675)" fill="#256ae5"/>
        <path id="Path_266" data-name="Path 266" d="M351.051,526.41l1.458-.184a.393.393,0,0,1,.432.347.388.388,0,0,1-.328.443h-.006l-1.447.181h-.006a.392.392,0,0,1-.43-.347A.387.387,0,0,1,351.051,526.41Z" transform="translate(-299.98 -345.001)" fill="#256ae5"/>
        <path id="Path_267" data-name="Path 267" d="M360.611,525.416l1.462-.126a.4.4,0,0,1,.422.366.39.39,0,0,1-.346.433h0l-1.456.125h0a.4.4,0,0,1-.421-.366A.389.389,0,0,1,360.611,525.416Z" transform="translate(-304.675 -344.542)" fill="#256ae5"/>
        <path id="Path_268" data-name="Path 268" d="M370.2,524.717l1.465-.086a.4.4,0,0,1,.416.379.392.392,0,0,1-.36.426h0l-1.459.085h0a.4.4,0,0,1-.415-.38A.391.391,0,0,1,370.2,524.717Z" transform="translate(-309.385 -344.218)" fill="#256ae5"/>
        <path id="Path_269" data-name="Path 269" d="M379.8,524.274l1.467-.048a.4.4,0,0,1,.409.393.393.393,0,0,1-.372.419h0l-1.462.047h0a.4.4,0,0,1-.408-.393A.391.391,0,0,1,379.8,524.274Z" transform="translate(-314.104 -344.019)" fill="#256ae5"/>
        <path id="Path_270" data-name="Path 270" d="M389.42,524.078l1.468-.011a.409.409,0,0,1,.4.406.4.4,0,0,1-.385.411h0l-1.462.01h0a.407.407,0,0,1-.4-.406A.394.394,0,0,1,389.42,524.078Z" transform="translate(-318.829 -343.941)" fill="#256ae5"/>
        <path id="Path_271" data-name="Path 271" d="M399.042,524.1l1.469.024a.412.412,0,0,1,.4.418.4.4,0,0,1-.4.4h0l-1.463-.025h0a.411.411,0,0,1-.395-.418A.4.4,0,0,1,399.042,524.1Z" transform="translate(-323.558 -343.956)" fill="#256ae5"/>
        <path id="Path_272" data-name="Path 272" d="M408.665,524.336l1.468.058a.415.415,0,0,1,.389.429.4.4,0,0,1-.407.4h0l-1.463-.06h0a.414.414,0,0,1-.388-.429A.4.4,0,0,1,408.665,524.336Z" transform="translate(-328.286 -344.073)" fill="#256ae5"/>
        <path id="Path_273" data-name="Path 273" d="M418.284,524.793l1.467.091a.418.418,0,0,1,.383.44.4.4,0,0,1-.418.391h0l-1.462-.092h0a.419.419,0,0,1-.382-.44A.4.4,0,0,1,418.284,524.793Z" transform="translate(-333.012 -344.298)" fill="#256ae5"/>
        <path id="Path_274" data-name="Path 274" d="M427.894,525.459l1.465.121a.422.422,0,0,1,.377.451.4.4,0,0,1-.429.385h0l-1.46-.122a.421.421,0,0,1-.378-.448A.4.4,0,0,1,427.894,525.459Z" transform="translate(-337.734 -344.625)" fill="#256ae5"/>
        <path id="Path_275" data-name="Path 275" d="M437.491,526.322l1.463.15a.425.425,0,0,1,.371.461.4.4,0,0,1-.438.378h0l-1.458-.151a.424.424,0,0,1-.372-.458A.4.4,0,0,1,437.491,526.322Z" transform="translate(-342.451 -345.049)" fill="#256ae5"/>
        <path id="Path_276" data-name="Path 276" d="M447.074,527.371l1.46.177a.428.428,0,0,1,.365.47.405.405,0,0,1-.448.372h0l-1.456-.178a.428.428,0,0,1-.366-.468A.406.406,0,0,1,447.074,527.371Z" transform="translate(-347.16 -345.565)" fill="#256ae5"/>
        <path id="Path_277" data-name="Path 277" d="M456.64,528.594l1.458.2a.432.432,0,0,1,.36.48.407.407,0,0,1-.457.366h0l-1.453-.2a.431.431,0,0,1-.361-.478A.408.408,0,0,1,456.64,528.594Z" transform="translate(-351.861 -346.166)" fill="#256ae5"/>
        <path id="Path_278" data-name="Path 278" d="M466.187,529.978l1.455.227a.434.434,0,0,1,.355.488.409.409,0,0,1-.465.361h0l-1.45-.228a.434.434,0,0,1-.356-.486A.409.409,0,0,1,466.187,529.978Z" transform="translate(-356.553 -346.847)" fill="#256ae5"/>
        <path id="Path_279" data-name="Path 279" d="M475.714,531.514l1.452.248a.438.438,0,0,1,.35.5.411.411,0,0,1-.473.356h0l-1.448-.25a.437.437,0,0,1-.351-.494A.411.411,0,0,1,475.714,531.514Z" transform="translate(-361.236 -347.601)" fill="#256ae5"/>
        <path id="Path_280" data-name="Path 280" d="M485.221,533.188l1.448.268a.441.441,0,0,1,.345.5.413.413,0,0,1-.48.352h0l-1.445-.269a.44.44,0,0,1-.346-.5A.414.414,0,0,1,485.221,533.188Z" transform="translate(-365.909 -348.425)" fill="#256ae5"/>
        <path id="Path_281" data-name="Path 281" d="M494.709,534.99l1.445.286a.443.443,0,0,1,.341.512.415.415,0,0,1-.487.347h0l-1.442-.288a.443.443,0,0,1-.342-.509A.415.415,0,0,1,494.709,534.99Z" transform="translate(-370.572 -349.31)" fill="#256ae5"/>
        <path id="Path_282" data-name="Path 282" d="M504.176,536.907l1.442.3a.446.446,0,0,1,.338.518.417.417,0,0,1-.494.344h0l-1.439-.3a.447.447,0,0,1-.339-.517A.418.418,0,0,1,504.176,536.907Z" transform="translate(-375.226 -350.253)" fill="#256ae5"/>
        <path id="Path_283" data-name="Path 283" d="M513.624,538.928l1.439.318a.449.449,0,0,1,.336.525.42.42,0,0,1-.5.34h0l-1.437-.319a.448.448,0,0,1-.336-.523A.419.419,0,0,1,513.624,538.928Z" transform="translate(-379.87 -351.247)" fill="#256ae5"/>
        <path id="Path_284" data-name="Path 284" d="M523.054,541.041l1.437.331a.452.452,0,0,1,.333.531.422.422,0,0,1-.506.338h0l-1.434-.331a.453.453,0,0,1-.333-.53A.422.422,0,0,1,523.054,541.041Z" transform="translate(-384.506 -352.286)" fill="#256ae5"/>
        <path id="Path_285" data-name="Path 285" d="M532.468,543.236l1.434.342a.455.455,0,0,1,.331.536.424.424,0,0,1-.512.336h0l-1.432-.343a.454.454,0,0,1-.331-.535A.424.424,0,0,1,532.468,543.236Z" transform="translate(-389.134 -353.365)" fill="#256ae5"/>
        <path id="Path_286" data-name="Path 286" d="M541.866,545.5l1.432.352a.458.458,0,0,1,.33.542.426.426,0,0,1-.517.334h0l-1.43-.353a.458.458,0,0,1-.33-.541A.426.426,0,0,1,541.866,545.5Z" transform="translate(-393.755 -354.48)" fill="#256ae5"/>
        <path id="Path_287" data-name="Path 287" d="M551.252,547.826l1.43.359a.461.461,0,0,1,.329.547.429.429,0,0,1-.522.333h0l-1.428-.36a.461.461,0,0,1-.329-.546A.427.427,0,0,1,551.252,547.826Z" transform="translate(-398.37 -355.622)" fill="#256ae5"/>
        <path id="Path_288" data-name="Path 288" d="M560.627,550.2l1.429.365a.464.464,0,0,1,.329.551.431.431,0,0,1-.526.332h0l-1.428-.366a.464.464,0,0,1-.328-.551A.43.43,0,0,1,560.627,550.2Z" transform="translate(-402.979 -356.789)" fill="#256ae5"/>
        <path id="Path_289" data-name="Path 289" d="M569.993,552.6l1.427.37a.467.467,0,0,1,.329.555.433.433,0,0,1-.53.333h0l-1.427-.371a.465.465,0,0,1-.328-.555A.432.432,0,0,1,569.993,552.6Z" transform="translate(-407.585 -357.973)" fill="#256ae5"/>
        <path id="Path_290" data-name="Path 290" d="M579.353,555.033l1.427.371a.469.469,0,0,1,.33.559.436.436,0,0,1-.533.334h0l-1.426-.373a.468.468,0,0,1-.329-.558A.435.435,0,0,1,579.353,555.033Z" transform="translate(-412.188 -359.168)" fill="#256ae5"/>
        <path id="Path_291" data-name="Path 291" d="M588.71,557.469l1.427.371a.472.472,0,0,1,.332.562.439.439,0,0,1-.536.336h0l-1.426-.373a.471.471,0,0,1-.331-.561A.437.437,0,0,1,588.71,557.469Z" transform="translate(-416.789 -360.366)" fill="#256ae5"/>
        <path id="Path_292" data-name="Path 292" d="M598.068,559.9l1.427.369a.474.474,0,0,1,.335.564.44.44,0,0,1-.539.339h0l-1.427-.37a.474.474,0,0,1-.334-.564A.44.44,0,0,1,598.068,559.9Z" transform="translate(-421.392 -361.561)" fill="#256ae5"/>
        <path id="Path_293" data-name="Path 293" d="M607.43,562.309l1.428.364a.478.478,0,0,1,.339.567.444.444,0,0,1-.541.343h0l-1.428-.366a.476.476,0,0,1-.337-.566A.442.442,0,0,1,607.43,562.309Z" transform="translate(-425.996 -362.747)" fill="#256ae5"/>
        <path id="Path_294" data-name="Path 294" d="M616.8,564.69l1.429.359a.479.479,0,0,1,.342.568.445.445,0,0,1-.542.347h0l-1.43-.361a.478.478,0,0,1-.341-.568A.445.445,0,0,1,616.8,564.69Z" transform="translate(-430.604 -363.918)" fill="#256ae5"/>
        <path id="Path_295" data-name="Path 295" d="M626.174,567.029l1.43.352a.482.482,0,0,1,.348.57.448.448,0,0,1-.543.352h0l-1.431-.354a.481.481,0,0,1-.345-.57A.448.448,0,0,1,626.174,567.029Z" transform="translate(-435.217 -365.069)" fill="#256ae5"/>
        <path id="Path_296" data-name="Path 296" d="M635.562,569.314l1.432.342a.484.484,0,0,1,.353.57.451.451,0,0,1-.544.358h0l-1.434-.344a.483.483,0,0,1-.351-.57A.45.45,0,0,1,635.562,569.314Z" transform="translate(-439.835 -366.194)" fill="#256ae5"/>
        <path id="Path_297" data-name="Path 297" d="M644.963,571.533l1.434.331a.487.487,0,0,1,.36.57.454.454,0,0,1-.544.364h0l-1.436-.332a.487.487,0,0,1-.357-.571A.453.453,0,0,1,644.963,571.533Z" transform="translate(-444.46 -367.286)" fill="#256ae5"/>
        <path id="Path_298" data-name="Path 298" d="M654.379,573.675l1.437.318a.49.49,0,0,1,.366.57.456.456,0,0,1-.544.372h0l-1.439-.32a.489.489,0,0,1-.364-.57A.456.456,0,0,1,654.379,573.675Z" transform="translate(-449.092 -368.34)" fill="#256ae5"/>
        <path id="Path_299" data-name="Path 299" d="M663.812,575.727l1.439.3a.492.492,0,0,1,.374.57.459.459,0,0,1-.543.379h0l-1.442-.3a.492.492,0,0,1-.371-.57A.459.459,0,0,1,663.812,575.727Z" transform="translate(-453.733 -369.35)" fill="#256ae5"/>
        <path id="Path_300" data-name="Path 300" d="M673.262,577.677l1.442.286a.494.494,0,0,1,.383.568.463.463,0,0,1-.542.388h0l-1.445-.289a.493.493,0,0,1-.379-.569A.462.462,0,0,1,673.262,577.677Z" transform="translate(-458.383 -370.31)" fill="#256ae5"/>
        <path id="Path_301" data-name="Path 301" d="M682.732,579.514l1.445.268a.5.5,0,0,1,.391.566.465.465,0,0,1-.539.4h0l-1.448-.27a.5.5,0,0,1-.388-.567A.465.465,0,0,1,682.732,579.514Z" transform="translate(-463.043 -371.214)" fill="#256ae5"/>
        <path id="Path_302" data-name="Path 302" d="M692.22,581.226l1.448.247a.5.5,0,0,1,.4.563.468.468,0,0,1-.537.407h0l-1.452-.249a.5.5,0,0,1-.4-.564A.468.468,0,0,1,692.22,581.226Z" transform="translate(-467.712 -372.057)" fill="#256ae5"/>
        <path id="Path_303" data-name="Path 303" d="M701.729,582.8l1.451.226a.5.5,0,0,1,.411.56.472.472,0,0,1-.534.418h0l-1.455-.228a.5.5,0,0,1-.407-.561A.471.471,0,0,1,701.729,582.8Z" transform="translate(-472.392 -372.832)" fill="#256ae5"/>
        <path id="Path_304" data-name="Path 304" d="M711.256,584.226l1.453.2a.5.5,0,0,1,.422.556.473.473,0,0,1-.529.429h0l-1.458-.2a.5.5,0,0,1-.418-.558A.474.474,0,0,1,711.256,584.226Z" transform="translate(-477.081 -373.534)" fill="#256ae5"/>
        <path id="Path_305" data-name="Path 305" d="M720.8,585.49l1.456.175h0a.5.5,0,0,1,.43.554.477.477,0,0,1-.527.438h0l-1.461-.178a.5.5,0,0,1-.429-.553.476.476,0,0,1,.526-.437Z" transform="translate(-481.779 -374.156)" fill="#256ae5"/>
        <path id="Path_306" data-name="Path 306" d="M730.364,586.582l1.458.148h0a.506.506,0,0,1,.442.548.48.48,0,0,1-.521.451h0l-1.464-.15a.505.505,0,0,1-.44-.548.479.479,0,0,1,.521-.449Z" transform="translate(-486.487 -374.694)" fill="#256ae5"/>
        <path id="Path_307" data-name="Path 307" d="M739.941,587.489l1.46.119h0a.508.508,0,0,1,.454.543.484.484,0,0,1-.516.463h0l-1.466-.121a.507.507,0,0,1-.453-.542.482.482,0,0,1,.515-.462Z" transform="translate(-491.201 -375.141)" fill="#256ae5"/>
        <path id="Path_308" data-name="Path 308" d="M749.529,588.2l1.462.088h0a.509.509,0,0,1,.467.536.487.487,0,0,1-.509.477h0l-1.467-.09a.508.508,0,0,1-.465-.536.485.485,0,0,1,.509-.475Z" transform="translate(-495.922 -375.492)" fill="#256ae5"/>
        <path id="Path_309" data-name="Path 309" d="M759.126,588.709l1.463.056h0a.511.511,0,0,1,.48.528.49.49,0,0,1-.5.491h0l-1.468-.058a.511.511,0,0,1-.479-.528.489.489,0,0,1,.5-.489Z" transform="translate(-500.647 -375.741)" fill="#256ae5"/>
        <path id="Path_310" data-name="Path 310" d="M768.729,589l1.462.022h0a.513.513,0,0,1,.494.52.494.494,0,0,1-.493.5h0l-1.469-.023a.513.513,0,0,1-.492-.52.493.493,0,0,1,.493-.5Z" transform="translate(-505.375 -375.885)" fill="#256ae5"/>
        <path id="Path_311" data-name="Path 311" d="M778.332,589.054l1.462-.013h0a.514.514,0,0,1,.508.511.5.5,0,0,1-.484.519h0l-1.469.011a.513.513,0,0,1-.506-.51.5.5,0,0,1,.484-.518Z" transform="translate(-510.103 -375.905)" fill="#256ae5"/>
        <path id="Path_312" data-name="Path 312" d="M787.928,588.846l1.46-.052h0a.516.516,0,0,1,.523.5.5.5,0,0,1-.473.535h0l-1.468.051a.515.515,0,0,1-.521-.5.5.5,0,0,1,.472-.533Z" transform="translate(-514.829 -375.783)" fill="#256ae5"/>
        <path id="Path_313" data-name="Path 313" d="M797.51,588.363l1.457-.1h0a.517.517,0,0,1,.539.486.5.5,0,0,1-.46.552h0l-1.466.094a.516.516,0,0,1-.537-.486.5.5,0,0,1,.46-.55Z" transform="translate(-519.549 -375.523)" fill="#256ae5"/>
        <path id="Path_314" data-name="Path 314" d="M807.073,587.6l1.453-.138h0a.518.518,0,0,1,.554.473.509.509,0,0,1-.447.568h0l-1.462.138a.517.517,0,0,1-.553-.473.507.507,0,0,1,.447-.567Z" transform="translate(-524.259 -375.124)" fill="#256ae5"/>
        <path id="Path_315" data-name="Path 315" d="M816.608,586.548l1.448-.181h0a.519.519,0,0,1,.569.459.512.512,0,0,1-.433.584h0l-1.457.181a.519.519,0,0,1-.568-.459.512.512,0,0,1,.433-.583Z" transform="translate(-528.955 -374.587)" fill="#256ae5"/>
        <path id="Path_316" data-name="Path 316" d="M826.107,585.218l1.442-.224h0a.529.529,0,0,1,.165,1.044h0l-1.451.224a.528.528,0,0,1-.164-1.043Z" transform="translate(-533.634 -373.911)" fill="#256ae5"/>
        <path id="Path_317" data-name="Path 317" d="M835.562,583.607,837,583.34h0a.532.532,0,0,1,.2,1.045h0l-1.443.267a.531.531,0,0,1-.194-1.042Z" transform="translate(-538.292 -373.095)" fill="#256ae5"/>
        <path id="Path_318" data-name="Path 318" d="M844.966,581.711l1.426-.31h0a.534.534,0,0,1,.225,1.043h0l-1.435.311a.533.533,0,0,1-.224-1.042Z" transform="translate(-542.924 -372.14)" fill="#256ae5"/>
        <path id="Path_319" data-name="Path 319" d="M854.309,579.527l1.415-.355h0a.537.537,0,0,1,.257,1.042h0l-1.425.356a.536.536,0,0,1-.255-1.041Z" transform="translate(-547.527 -371.042)" fill="#256ae5"/>
        <path id="Path_320" data-name="Path 320" d="M863.581,577.048l1.4-.4h0a.523.523,0,0,1,.642.377.533.533,0,0,1-.353.661h0l-1.413.4a.524.524,0,0,1-.641-.378.532.532,0,0,1,.354-.66Z" transform="translate(-552.095 -369.798)" fill="#256ae5"/>
        <path id="Path_321" data-name="Path 321" d="M872.77,574.27l1.39-.446,0,0a.526.526,0,0,1,.656.358.537.537,0,0,1-.334.676h0l-1.4.448a.524.524,0,0,1-.654-.358.536.536,0,0,1,.334-.675Z" transform="translate(-556.622 -368.406)" fill="#256ae5"/>
        <path id="Path_322" data-name="Path 322" d="M881.865,571.183l1.373-.494h.005a.526.526,0,0,1,.67.337.541.541,0,0,1-.314.69h0l-1.384.5a.526.526,0,0,1-.669-.337.54.54,0,0,1,.315-.689Z" transform="translate(-561.104 -366.861)" fill="#256ae5"/>
        <path id="Path_323" data-name="Path 323" d="M890.852,567.78l1.355-.542.005,0a.527.527,0,0,1,.684.314.546.546,0,0,1-.293.705h0l-1.366.545a.526.526,0,0,1-.682-.314.544.544,0,0,1,.293-.7Z" transform="translate(-565.532 -365.159)" fill="#256ae5"/>
        <path id="Path_324" data-name="Path 324" d="M899.714,564.049l1.335-.593.006,0a.528.528,0,0,1,.7.29.549.549,0,0,1-.269.719h0l-1.346.6a.527.527,0,0,1-.7-.291.549.549,0,0,1,.269-.718Z" transform="translate(-569.9 -363.295)" fill="#256ae5"/>
        <path id="Path_325" data-name="Path 325" d="M908.435,559.98l1.311-.645.006,0a.528.528,0,0,1,.71.264.554.554,0,0,1-.243.733h0l-1.323.649a.528.528,0,0,1-.709-.264.554.554,0,0,1,.244-.732Z" transform="translate(-574.198 -361.263)" fill="#256ae5"/>
        <path id="Path_326" data-name="Path 326" d="M916.994,555.56l1.284-.7.005,0a.529.529,0,0,1,.722.236.559.559,0,0,1-.216.747h0l-1.3.7a.529.529,0,0,1-.722-.236.558.558,0,0,1,.216-.745Z" transform="translate(-578.417 -359.057)" fill="#256ae5"/>
        <path id="Path_327" data-name="Path 327" d="M925.367,550.777l1.253-.755.006,0a.53.53,0,0,1,.735.2.563.563,0,0,1-.186.759h0l-1.266.762a.529.529,0,0,1-.734-.205.562.562,0,0,1,.186-.758Z" transform="translate(-582.545 -356.671)" fill="#256ae5"/>
        <path id="Path_328" data-name="Path 328" d="M933.529,545.618l1.218-.814.006,0a.53.53,0,0,1,.746.171.567.567,0,0,1-.154.771h0l-1.231.82a.53.53,0,0,1-.744-.172.567.567,0,0,1,.154-.77Z" transform="translate(-586.57 -354.097)" fill="#256ae5"/>
        <path id="Path_329" data-name="Path 329" d="M941.448,540.07l1.178-.874.007,0a.531.531,0,0,1,.755.135.573.573,0,0,1-.118.782h0l-1.191.882a.531.531,0,0,1-.754-.135.571.571,0,0,1,.119-.781Z" transform="translate(-590.475 -351.331)" fill="#256ae5"/>
        <path id="Path_330" data-name="Path 330" d="M949.092,534.12l1.131-.935.007-.006a.532.532,0,0,1,.764.1.576.576,0,0,1-.08.792h0l-1.146.945a.531.531,0,0,1-.763-.1.575.575,0,0,1,.08-.79Z" transform="translate(-594.246 -348.364)" fill="#256ae5"/>
        <path id="Path_331" data-name="Path 331" d="M956.422,527.76l1.08-1,.007-.006a.532.532,0,0,1,.771.052.58.58,0,0,1-.038.8h0l-1.094,1.01a.531.531,0,0,1-.769-.053.579.579,0,0,1,.039-.8Z" transform="translate(-597.862 -345.194)" fill="#256ae5"/>
        <path id="Path_332" data-name="Path 332" d="M963.4,520.982l1.021-1.062.007-.007a.535.535,0,0,1,.775.006.584.584,0,0,1,.006.8h0l-1.035,1.075a.534.534,0,0,1-.774-.007.584.584,0,0,1-.006-.8Z" transform="translate(-601.304 -341.817)" fill="#256ae5"/>
        <path id="Path_333" data-name="Path 333" d="M969.966,513.782l.955-1.125.007-.008a.536.536,0,0,1,.777-.044.59.59,0,0,1,.054.808h0l-.97,1.141a.535.535,0,0,1-.776.043.589.589,0,0,1-.053-.807Z" transform="translate(-604.547 -338.23)" fill="#256ae5"/>
        <path id="Path_334" data-name="Path 334" d="M976.086,506.166l.881-1.188.007-.009a.537.537,0,0,1,.775-.1.592.592,0,0,1,.1.807h0l-.9,1.205a.536.536,0,0,1-.774.1.59.59,0,0,1-.1-.805Z" transform="translate(-607.569 -334.438)" fill="#256ae5"/>
        <path id="Path_335" data-name="Path 335" d="M981.708,498.145l.8-1.248.006-.01a.539.539,0,0,1,.77-.151.6.6,0,0,1,.158.8h0l-.816,1.266a.539.539,0,0,1-.769.15.594.594,0,0,1-.156-.8Z" transform="translate(-610.345 -330.446)" fill="#256ae5"/>
        <path id="Path_336" data-name="Path 336" d="M986.8,489.746l.717-1.3.006-.01a.542.542,0,0,1,.761-.206.6.6,0,0,1,.21.793h0l-.73,1.321a.542.542,0,0,1-.76.205.6.6,0,0,1-.209-.793Z" transform="translate(-612.857 -326.27)" fill="#256ae5"/>
        <path id="Path_337" data-name="Path 337" d="M991.322,481.006l.63-1.351,0-.011a.545.545,0,0,1,.748-.26.6.6,0,0,1,.262.781h0l-.642,1.371a.544.544,0,0,1-.747.259.6.6,0,0,1-.261-.78Z" transform="translate(-615.093 -321.929)" fill="#256ae5"/>
        <path id="Path_338" data-name="Path 338" d="M995.269,471.965l.542-1.393,0-.011a.549.549,0,0,1,.732-.314.6.6,0,0,1,.314.765h0l-.551,1.414a.548.548,0,0,1-.732.312.6.6,0,0,1-.311-.765Z" transform="translate(-617.043 -317.442)" fill="#256ae5"/>
        <path id="Path_339" data-name="Path 339" d="M998.627,462.669l.452-1.429,0-.011a.553.553,0,0,1,.713-.365.6.6,0,0,1,.362.746h0l-.459,1.449a.552.552,0,0,1-.713.364.6.6,0,0,1-.361-.746Z" transform="translate(-618.701 -312.833)" fill="#256ae5"/>
        <path id="Path_340" data-name="Path 340" d="M1001.391,453.161l.361-1.457,0-.011a.557.557,0,0,1,.691-.414.6.6,0,0,1,.41.725h0l-.368,1.478a.557.557,0,0,1-.691.413.6.6,0,0,1-.408-.724Z" transform="translate(-620.066 -308.123)" fill="#256ae5"/>
        <path id="Path_341" data-name="Path 341" d="M1003.565,443.487l.272-1.48,0-.011a.562.562,0,0,1,.668-.46.6.6,0,0,1,.454.7h0l-.278,1.5a.561.561,0,0,1-.667.459.6.6,0,0,1-.453-.7Z" transform="translate(-621.14 -303.334)" fill="#256ae5"/>
        <path id="Path_342" data-name="Path 342" d="M1005.157,433.686l.185-1.5v-.01a.567.567,0,0,1,.641-.5.6.6,0,0,1,.5.674h0l-.189,1.516a.567.567,0,0,1-.641.5.6.6,0,0,1-.494-.674Z" transform="translate(-621.926 -298.486)" fill="#256ae5"/>
        <path id="Path_343" data-name="Path 343" d="M1006.179,423.8l.1-1.506v-.01a.572.572,0,0,1,.614-.546.6.6,0,0,1,.535.646h0l-.1,1.527a.571.571,0,0,1-.613.544.6.6,0,0,1-.534-.645Z" transform="translate(-622.431 -293.599)" fill="#256ae5"/>
        <path id="Path_344" data-name="Path 344" d="M1006.646,413.862l.017-1.511v-.01a.578.578,0,0,1,.585-.584.6.6,0,0,1,.571.617h0l-.019,1.531a.576.576,0,0,1-.584.582.6.6,0,0,1-.57-.616Z" transform="translate(-622.661 -288.69)" fill="#256ae5"/>
        <path id="Path_345" data-name="Path 345" d="M1006.513,403.909l-.062-1.512v-.01a.583.583,0,0,1,.555-.619.6.6,0,0,1,.605.586h0l.062,1.531a.583.583,0,0,1-.555.618.6.6,0,0,1-.6-.586Z" transform="translate(-622.565 -283.776)" fill="#256ae5"/>
        <path id="Path_346" data-name="Path 346" d="M1005.843,393.969l-.141-1.507v-.01a.588.588,0,0,1,.524-.653.6.6,0,0,1,.637.554h0l.141,1.526a.588.588,0,0,1-.524.651.6.6,0,0,1-.635-.554Z" transform="translate(-622.196 -278.871)" fill="#256ae5"/>
        <path id="Path_347" data-name="Path 347" d="M1004.669,384.07l-.217-1.5v-.01a.593.593,0,0,1,.492-.683.6.6,0,0,1,.665.522h0l.217,1.518a.584.584,0,1,1-1.157.161Z" transform="translate(-621.579 -273.989)" fill="#256ae5"/>
        <path id="Path_348" data-name="Path 348" d="M1003.01,374.239l-.287-1.488,0-.009a.588.588,0,1,1,1.153-.223h0l.289,1.505a.587.587,0,1,1-1.151.221Z" transform="translate(-620.725 -269.142)" fill="#256ae5"/>
        <path id="Path_349" data-name="Path 349" d="M1000.893,364.495l-.356-1.472,0-.009a.59.59,0,1,1,1.145-.281h0l.359,1.49a.589.589,0,1,1-1.144.28Z" transform="translate(-619.646 -264.34)" fill="#256ae5"/>
        <path id="Path_350" data-name="Path 350" d="M998.328,354.86l-.423-1.455,0-.008a.61.61,0,0,1,.4-.762.6.6,0,0,1,.74.422h0l.427,1.471a.61.61,0,0,1-.4.761.6.6,0,0,1-.739-.423Z" transform="translate(-618.347 -259.594)" fill="#256ae5"/>
        <path id="Path_351" data-name="Path 351" d="M995.328,345.354l-.489-1.433,0-.008a.615.615,0,0,1,.361-.784.6.6,0,0,1,.76.387h0l.493,1.45a.615.615,0,0,1-.362.783.6.6,0,0,1-.759-.388Z" transform="translate(-616.835 -254.913)" fill="#256ae5"/>
        <path id="Path_352" data-name="Path 352" d="M991.9,336l-.552-1.409,0-.008a.621.621,0,0,1,.327-.8.6.6,0,0,1,.78.352h0l.557,1.426a.62.62,0,0,1-.328.8.6.6,0,0,1-.778-.352Z" transform="translate(-615.115 -250.307)" fill="#256ae5"/>
        <path id="Path_353" data-name="Path 353" d="M988.072,326.808l-.613-1.382,0-.008a.626.626,0,0,1,.292-.823.6.6,0,0,1,.8.317h0l.618,1.4a.625.625,0,0,1-.293.822.6.6,0,0,1-.8-.316Z" transform="translate(-613.194 -245.784)" fill="#256ae5"/>
        <path id="Path_354" data-name="Path 354" d="M983.846,317.8l-.672-1.353,0-.008a.631.631,0,0,1,.257-.84.6.6,0,0,1,.813.28h0l.678,1.37a.63.63,0,0,1-.258.839.6.6,0,0,1-.812-.281Z" transform="translate(-611.079 -241.353)" fill="#256ae5"/>
        <path id="Path_355" data-name="Path 355" d="M979.239,308.993l-.728-1.323,0-.007a.636.636,0,0,1,.222-.856.6.6,0,0,1,.827.244h0l.735,1.338a.635.635,0,0,1-.223.854.6.6,0,0,1-.826-.244Z" transform="translate(-608.778 -237.022)" fill="#256ae5"/>
        <path id="Path_356" data-name="Path 356" d="M974.268,300.4l-.783-1.289,0-.007a.64.64,0,0,1,.186-.868.6.6,0,0,1,.839.207h0l.789,1.3a.64.64,0,0,1-.187.867.6.6,0,0,1-.838-.208Z" transform="translate(-606.299 -232.796)" fill="#256ae5"/>
        <path id="Path_357" data-name="Path 357" d="M968.946,292.025l-.835-1.254,0-.007a.645.645,0,0,1,.151-.88.6.6,0,0,1,.85.17h0l.842,1.269a.644.644,0,0,1-.152.879.6.6,0,0,1-.848-.171Z" transform="translate(-603.649 -228.681)" fill="#256ae5"/>
        <path id="Path_358" data-name="Path 358" d="M963.291,283.889l-.884-1.218-.005-.006a.649.649,0,0,1,.116-.89.6.6,0,0,1,.859.134h0l.892,1.231a.649.649,0,0,1-.116.889.6.6,0,0,1-.858-.134Z" transform="translate(-600.834 -224.684)" fill="#256ae5"/>
        <path id="Path_359" data-name="Path 359" d="M957.316,276l-.932-1.179-.005-.006a.653.653,0,0,1,.08-.9.6.6,0,0,1,.866.1h0l.94,1.192a.653.653,0,0,1-.081.9.6.6,0,0,1-.866-.1Z" transform="translate(-597.863 -220.81)" fill="#256ae5"/>
        <path id="Path_360" data-name="Path 360" d="M951.037,268.369l-.977-1.14-.005-.006a.657.657,0,0,1,.045-.905.6.6,0,0,1,.872.06h0l.986,1.152a.657.657,0,0,1-.046.9.6.6,0,0,1-.872-.061Z" transform="translate(-594.744 -217.064)" fill="#256ae5"/>
        <path id="Path_361" data-name="Path 361" d="M944.469,261l-1.02-1.1-.006-.006a.662.662,0,0,1,.01-.911.6.6,0,0,1,.877.024h0l1.029,1.111a.661.661,0,0,1-.011.909.6.6,0,0,1-.876-.025Z" transform="translate(-591.482 -213.448)" fill="#256ae5"/>
        <path id="Path_362" data-name="Path 362" d="M937.627,253.911l-1.06-1.056-.006-.006a.665.665,0,0,1-.025-.915.606.606,0,0,1,.88-.012h0l1.069,1.068a.664.664,0,0,1,.024.913.605.605,0,0,1-.88.011Z" transform="translate(-588.088 -209.97)" fill="#256ae5"/>
        <path id="Path_363" data-name="Path 363" d="M930.525,247.1l-1.1-1.013-.006-.005a.669.669,0,0,1-.06-.917.608.608,0,0,1,.883-.048h0l1.109,1.024a.668.668,0,0,1,.059.916.607.607,0,0,1-.881.047Z" transform="translate(-584.565 -206.63)" fill="#256ae5"/>
        <path id="Path_364" data-name="Path 364" d="M923.177,240.577l-1.135-.969-.006,0a.673.673,0,0,1-.094-.919.611.611,0,0,1,.883-.084h0l1.146.98a.671.671,0,0,1,.093.918.61.61,0,0,1-.882.083Z" transform="translate(-580.923 -203.432)" fill="#256ae5"/>
        <path id="Path_365" data-name="Path 365" d="M915.6,234.347l-1.169-.924-.006,0a.675.675,0,0,1-.129-.918.612.612,0,0,1,.882-.119h0l1.18.934a.675.675,0,0,1,.128.918.612.612,0,0,1-.881.118Z" transform="translate(-577.168 -200.38)" fill="#256ae5"/>
        <path id="Path_366" data-name="Path 366" d="M907.8,228.416l-1.2-.878-.006,0a.677.677,0,0,1-.162-.917.614.614,0,0,1,.88-.154h0l1.212.888a.677.677,0,0,1,.162.915.614.614,0,0,1-.88.153Z" transform="translate(-573.306 -197.475)" fill="#256ae5"/>
        <path id="Path_367" data-name="Path 367" d="M899.8,222.789l-1.231-.832-.006,0a.68.68,0,0,1-.2-.913.616.616,0,0,1,.877-.189h0l1.242.841a.679.679,0,0,1,.195.913.616.616,0,0,1-.876.188Z" transform="translate(-569.345 -194.721)" fill="#256ae5"/>
        <path id="Path_368" data-name="Path 368" d="M891.608,217.469l-1.259-.785-.006,0a.683.683,0,0,1-.228-.91.619.619,0,0,1,.872-.223h0l1.27.794a.682.682,0,0,1,.228.909.619.619,0,0,1-.872.222Z" transform="translate(-565.291 -192.118)" fill="#256ae5"/>
        <path id="Path_369" data-name="Path 369" d="M883.243,212.453l-1.284-.739-.006,0a.685.685,0,0,1-.26-.9.622.622,0,0,1,.867-.256h0l1.3.747a.684.684,0,0,1,.259.9.621.621,0,0,1-.867.255Z" transform="translate(-561.153 -189.665)" fill="#256ae5"/>
        <path id="Path_370" data-name="Path 370" d="M874.719,207.74l-1.308-.693-.006,0a.687.687,0,0,1-.291-.9.624.624,0,0,1,.861-.288h0l1.318.7a.686.686,0,0,1,.29.9.624.624,0,0,1-.861.287Z" transform="translate(-556.938 -187.361)" fill="#256ae5"/>
        <path id="Path_371" data-name="Path 371" d="M866.051,203.325l-1.329-.648-.006,0a.689.689,0,0,1-.32-.892.628.628,0,0,1,.854-.32h0l1.34.655a.689.689,0,0,1,.319.892.627.627,0,0,1-.854.318Z" transform="translate(-552.653 -185.204)" fill="#256ae5"/>
        <path id="Path_372" data-name="Path 372" d="M857.251,199.205l-1.347-.6-.006,0a.691.691,0,0,1-.349-.885.631.631,0,0,1,.847-.349h0l1.359.61a.69.69,0,0,1,.348.884.631.631,0,0,1-.846.348Z" transform="translate(-548.305 -183.193)" fill="#256ae5"/>
        <path id="Path_373" data-name="Path 373" d="M848.334,195.377l-1.365-.559-.006,0a.693.693,0,0,1-.377-.877.635.635,0,0,1,.839-.378h0l1.375.565a.693.693,0,0,1,.376.876.634.634,0,0,1-.838.377Z" transform="translate(-543.899 -181.325)" fill="#256ae5"/>
        <path id="Path_374" data-name="Path 374" d="M839.309,191.837l-1.38-.516-.006,0a.7.7,0,0,1-.4-.868.637.637,0,0,1,.83-.406h0l1.391.522a.694.694,0,0,1,.4.867.636.636,0,0,1-.829.405Z" transform="translate(-539.442 -179.599)" fill="#256ae5"/>
        <path id="Path_375" data-name="Path 375" d="M830.189,188.582l-1.394-.472-.006,0a.7.7,0,0,1-.431-.859.641.641,0,0,1,.821-.434h0l1.4.478a.7.7,0,0,1,.429.858.64.64,0,0,1-.82.433Z" transform="translate(-534.938 -178.013)" fill="#256ae5"/>
        <path id="Path_376" data-name="Path 376" d="M820.982,185.61l-1.406-.43-.006,0a.7.7,0,0,1-.457-.849.645.645,0,0,1,.811-.461h0l1.417.435a.7.7,0,0,1,.455.848.644.644,0,0,1-.81.46Z" transform="translate(-530.393 -176.567)" fill="#256ae5"/>
        <path id="Path_377" data-name="Path 377" d="M811.7,182.917l-1.417-.388-.006,0a.7.7,0,0,1-.482-.838.647.647,0,0,1,.8-.488h0l1.428.392a.7.7,0,0,1,.481.838.648.648,0,0,1-.8.486Z" transform="translate(-525.812 -175.258)" fill="#256ae5"/>
        <path id="Path_378" data-name="Path 378" d="M802.351,180.5l-1.427-.346h-.006a.7.7,0,0,1-.506-.827.651.651,0,0,1,.789-.513h0l1.437.35a.7.7,0,0,1,.505.827.651.651,0,0,1-.789.512Z" transform="translate(-521.198 -174.086)" fill="#256ae5"/>
        <path id="Path_379" data-name="Path 379" d="M792.945,178.362l-1.435-.3H791.5a.7.7,0,0,1-.53-.815.655.655,0,0,1,.777-.538h0l1.445.308a.7.7,0,0,1,.529.815.655.655,0,0,1-.777.537Z" transform="translate(-516.556 -173.049)" fill="#256ae5"/>
        <path id="Path_380" data-name="Path 380" d="M783.487,176.495l-1.441-.263h-.005a.7.7,0,0,1-.554-.8.659.659,0,0,1,.765-.563h0l1.453.266a.7.7,0,0,1,.552.8.658.658,0,0,1-.765.561Z" transform="translate(-511.891 -172.147)" fill="#256ae5"/>
        <path id="Path_381" data-name="Path 381" d="M773.989,174.9l-1.448-.221h-.006a.7.7,0,0,1-.577-.791.663.663,0,0,1,.752-.587h0l1.458.225a.7.7,0,0,1,.575.79.662.662,0,0,1-.752.585Z" transform="translate(-507.205 -171.378)" fill="#256ae5"/>
        <path id="Path_382" data-name="Path 382" d="M764.456,173.574l-1.452-.18H763a.706.706,0,0,1-.6-.777.667.667,0,0,1,.739-.611h0l1.463.183a.705.705,0,0,1,.6.776.666.666,0,0,1-.739.609Z" transform="translate(-502.502 -170.742)" fill="#256ae5"/>
        <path id="Path_383" data-name="Path 383" d="M754.9,172.517l-1.456-.139h-.006a.707.707,0,0,1-.622-.763.672.672,0,0,1,.725-.634h0l1.467.142a.705.705,0,0,1,.62.763.67.67,0,0,1-.724.632Z" transform="translate(-497.787 -170.239)" fill="#256ae5"/>
        <path id="Path_384" data-name="Path 384" d="M745.315,171.73l-1.459-.1h-.006a.708.708,0,0,1-.643-.748.675.675,0,0,1,.711-.656h0l1.469.1a.707.707,0,0,1,.642.748.675.675,0,0,1-.711.655Z" transform="translate(-493.063 -169.869)" fill="#256ae5"/>
        <path id="Path_385" data-name="Path 385" d="M735.721,171.21l-1.46-.058h-.006a.708.708,0,0,1-.665-.733.679.679,0,0,1,.7-.679h0l1.471.06a.708.708,0,0,1,.663.733.678.678,0,0,1-.7.678Z" transform="translate(-488.332 -169.63)" fill="#256ae5"/>
        <path id="Path_386" data-name="Path 386" d="M726.12,170.959l-1.46-.017h-.005a.71.71,0,0,1-.686-.717.683.683,0,0,1,.68-.7h0l1.471.019a.708.708,0,0,1,.684.717.682.682,0,0,1-.68.7Z" transform="translate(-483.599 -169.524)" fill="#256ae5"/>
        <path id="Path_387" data-name="Path 387" d="M716.521,170.953l-1.46.024h-.006a.71.71,0,0,1-.706-.7.688.688,0,0,1,.664-.723h0l1.47-.022a.71.71,0,0,1,.705.7.687.687,0,0,1-.664.721Z" transform="translate(-478.867 -169.528)" fill="#256ae5"/>
        <path id="Path_388" data-name="Path 388" d="M706.931,171.2l-1.458.065h-.006a.711.711,0,0,1-.726-.683.691.691,0,0,1,.647-.744h0l1.469-.064a.71.71,0,0,1,.725.683.69.69,0,0,1-.647.742Z" transform="translate(-474.139 -169.646)" fill="#256ae5"/>
        <path id="Path_389" data-name="Path 389" d="M697.484,171.713l-1.321.095h-.005a.712.712,0,0,1-.746-.665.7.7,0,0,1,.63-.765h0l1.331-.095a.712.712,0,0,1,.745.666.7.7,0,0,1-.629.763Z" transform="translate(-469.55 -169.897)" fill="#256ae5"/>
      </g>
    </g>
    <g id="Group_136" data-name="Group 136" transform="translate(666.698 2691.086)">
      <path id="Path_390" data-name="Path 390" d="M682.528,152.117l3.613,10.193-8.457-1.935Z" transform="translate(-634.619 -137.037)" fill="#2c66cc"/>
      <path id="Path_391" data-name="Path 391" d="M601.238,150.826l36.086,14.387a2.738,2.738,0,0,0,3.592-1.625L654,126.813a1.1,1.1,0,0,0-1.521-1.351Z" transform="translate(-601.238 -125.348)" fill="#256ae5"/>
      <path id="Path_392" data-name="Path 392" d="M649.144,152.121l-47.906,10.4,45.814-4.454,1.122,2.784Z" transform="translate(-601.238 -137.038)" fill="#4d8bf8"/>
      <path id="Path_393" data-name="Path 393" d="M680.313,166.181l6.976.736-5.709-4.249Z" transform="translate(-635.767 -141.644)" fill="#2c66cc"/>
    </g>
    <g id="Group_133" data-name="Group 133" transform="translate(149.042 2448.601)">
      <g id="Group_131" data-name="Group 131" transform="translate(291.404 269.558)">
        <path id="Path_394" data-name="Path 394" d="M703.834,478.106l62.9-120.5H753.846a2.815,2.815,0,0,1-2.176-4.6L818.708,271.3a4.728,4.728,0,0,1,8.375,3.277l-4.713,79.9a7.983,7.983,0,0,1-8.878,7.461l-8.985-1.028L742.1,496.063a9.938,9.938,0,0,1-9.022,5.772h-21.63Z" transform="translate(-492.538 -269.558)" fill="#6840d5"/>
        <path id="Path_395" data-name="Path 395" d="M605.289,489.362,649.694,588a16.286,16.286,0,0,0,14.849,9.6h22.892a8.358,8.358,0,0,0,7.309-4.3l.814-1.468h0a6.545,6.545,0,0,1-5.83-3.569L630.564,472.337Z" transform="translate(-445.997 -365.328)" fill="url(#linear-gradient)"/>
        <path id="Path_396" data-name="Path 396" d="M557.532,473.792h0a9.711,9.711,0,0,0-14.1,2.241l-65.288,98.091A28.2,28.2,0,0,1,454.662,586.7h-9.186L438,565.163s60.7-93.066,76.34-107.144c0,0,15.579-14.041,30.94-3.425a25.634,25.634,0,0,1,9.021,11.368Z" transform="translate(-366.989 -355.073)" fill="url(#linear-gradient-2)"/>
        <path id="Path_397" data-name="Path 397" d="M303.437,543.778s10.929-13.661,32.107-15.786c0,0,10.058,3.426,30.1,39.334s33.34,52.281,48.948,43.338l-1.292,2.145A23.538,23.538,0,0,1,393.133,624.2H384.5a29.533,29.533,0,0,1-23.977-12.285C344.928,590.237,313.018,547.143,303.437,543.778Z" transform="translate(-303.437 -391.613)" fill="#6840d5"/>
        <path id="Path_398" data-name="Path 398" d="M922.344,322.352a.859.859,0,0,1-.09,0,.792.792,0,0,1-.7-.876l.442-3.9a.792.792,0,0,1,1.573.178l-.442,3.9A.791.791,0,0,1,922.344,322.352Z" transform="translate(-595.363 -291.902)" fill="#fff"/>
        <path id="Path_399" data-name="Path 399" d="M816.3,354.194a.792.792,0,0,1-.627-1.275l55.357-71.928a2.49,2.49,0,0,1,4.448,1.8l-.977,8.622a.792.792,0,0,1-1.573-.178l.977-8.622a.907.907,0,0,0-1.621-.655l-55.357,71.929A.791.791,0,0,1,816.3,354.194Z" transform="translate(-545.281 -274.497)" fill="#d4d4d4"/>
        <path id="Path_400" data-name="Path 400" d="M578.326,522.329a.791.791,0,0,1-.655-1.234l28.63-42.436a5.214,5.214,0,0,1,9.036.686.791.791,0,1,1-1.431.677,3.632,3.632,0,0,0-6.294-.477l-28.63,42.436A.789.789,0,0,1,578.326,522.329Z" transform="translate(-432.889 -367.227)" fill="#d4d4d4"/>
        <path id="Path_401" data-name="Path 401" d="M564.228,580.515a.791.791,0,0,1-.655-1.234l1.836-2.721a.791.791,0,1,1,1.312.885l-1.835,2.721A.79.79,0,0,1,564.228,580.515Z" transform="translate(-426.231 -414.386)" fill="#d4d4d4"/>
      </g>
      <g id="Group_132" data-name="Group 132" transform="translate(277.958 357.72)">
        <path id="Path_402" data-name="Path 402" d="M349.963,535.125l-68.549,24.949a5.248,5.248,0,0,0-2.983,7.1l.208.458a4.88,4.88,0,0,0,6.49,2.409l66.56-30.791Z" transform="translate(-277.958 -483.143)" fill="#3996f7"/>
        <ellipse id="Ellipse_57" data-name="Ellipse 57" cx="33.839" cy="33.229" rx="33.839" ry="33.229" transform="translate(69.673 3.746)" opacity="0.29" fill="url(#linear-gradient-3)"/>
        <path id="Path_403" data-name="Path 403" d="M440.412,436.621c-20.8,0-37.654,16.554-37.654,36.974s16.858,36.974,37.654,36.974,37.654-16.554,37.654-36.974S461.207,436.621,440.412,436.621Zm0,68.518c-17.741,0-32.123-14.122-32.123-31.543s14.382-31.543,32.123-31.543,32.123,14.123,32.123,31.543S458.152,505.139,440.412,505.139Z" transform="translate(-336.899 -436.621)" fill="#3996f7"/>
        <path id="Path_404" data-name="Path 404" d="M407.738,480.225a.264.264,0,0,1-.262-.23c-.111-.875-.19-1.767-.234-2.652a.264.264,0,0,1,.527-.026c.043.872.121,1.75.231,2.612a.264.264,0,0,1-.228.3ZM408,469.886a.28.28,0,0,1-.047,0,.264.264,0,0,1-.213-.307,34.034,34.034,0,0,1,2.032-6.954v0a35.2,35.2,0,0,1,32.76-21.682,35.689,35.689,0,0,1,18.97,5.421.264.264,0,1,1-.281.448,35.16,35.16,0,0,0-18.69-5.341,34.674,34.674,0,0,0-32.272,21.357,33.521,33.521,0,0,0-2,6.847A.264.264,0,0,1,408,469.886Z" transform="translate(-339.017 -438.66)" fill="#fff"/>
        <path id="Path_405" data-name="Path 405" d="M283.982,589.777a.274.274,0,0,1-.086-.014c-2.684-.928-3.307-2.515-3.358-3.682a4.089,4.089,0,0,1,2.667-3.94l8.23-3.21a.264.264,0,1,1,.192.491l-8.231,3.21a3.561,3.561,0,0,0-2.33,3.426c.063,1.46,1.073,2.538,3,3.205a.264.264,0,0,1-.086.513Z" transform="translate(-279.175 -503.824)" fill="#fff"/>
        <path id="Path_406" data-name="Path 406" d="M305.942,577.2a.264.264,0,0,1-.1-.51l1.067-.416a.264.264,0,1,1,.192.491l-1.067.416A.254.254,0,0,1,305.942,577.2Z" transform="translate(-291.05 -502.566)" fill="#fff"/>
      </g>
    </g>
  </g>
</svg>
