<svg xmlns="http://www.w3.org/2000/svg" width="16.601" height="20.188" viewBox="0 0 16.601 20.188"><defs><style>.a{fill:#256ae5;}</style></defs><g transform="translate(-0.5 0)"><path class="a" d="M163.212,196.936h5.137a.3.3,0,0,0,0-.6h-5.137a.3.3,0,1,0,0,.6Zm0,0" transform="translate(-156.01 -188.598)"/><path class="a" d="M169.816,160.008h-6.6a.3.3,0,1,0,0,.6h6.6a.3.3,0,1,0,0-.6Zm0,0" transform="translate(-156.01 -153.699)"/><path class="a" d="M66.492,151.214a.3.3,0,0,0-.421.023l-1.4,1.557-.605-.559a.3.3,0,0,0-.4.438l.827.764a.3.3,0,0,0,.2.079h.014a.3.3,0,0,0,.208-.1l1.6-1.782A.3.3,0,0,0,66.492,151.214Zm0,0" transform="translate(-60.58 -145.178)"/><path class="a" d="M70.544,223.906a.3.3,0,0,0-.421.023l-1.374,1.531-.44-.509a.3.3,0,1,0-.451.39l.661.764a.3.3,0,0,0,.223.1h0a.3.3,0,0,0,.222-.1l1.6-1.782a.3.3,0,0,0-.023-.421Zm0,0" transform="translate(-64.633 -215.004)"/><path class="a" d="M163.212,269.628h5.137a.3.3,0,0,0,0-.6h-5.137a.3.3,0,1,0,0,.6Zm0,0" transform="translate(-156.01 -258.424)"/><path class="a" d="M268.344,233a.3.3,0,0,0-.3-.3h-2.572a.3.3,0,1,0,0,.6h2.572A.3.3,0,0,0,268.344,233Zm0,0" transform="translate(-254.24 -223.524)"/><path class="a" d="M163.212,233.3h2.668a.3.3,0,0,0,0-.6h-2.668a.3.3,0,1,0,0,.6Zm0,0" transform="translate(-156.01 -223.524)"/><path class="a" d="M17.1,4.479s0-.01,0-.015,0-.019,0-.029a2.431,2.431,0,0,0-.867-2.014L14.94,1.015c-.074-.08-.14-.154-.2-.221A1.777,1.777,0,0,0,13.031,0H1.793A1.3,1.3,0,0,0,.5,1.294V8.4a.3.3,0,0,0,.6,0V1.294a.7.7,0,0,1,.7-.7h10.94V3.468a1.295,1.295,0,0,0,1.293,1.294H16.5V18.895a.7.7,0,0,1-.7.7H1.793a.7.7,0,0,1-.7-.7V9.769a.3.3,0,0,0-.6,0v9.125a1.3,1.3,0,0,0,1.293,1.294H15.808A1.3,1.3,0,0,0,17.1,18.895V4.809c0-.119,0-.228,0-.331Zm-3.074-.313a.7.7,0,0,1-.7-.7V.6c.463.028.575.153.967.589.062.069.13.145.205.226l1.292,1.406a1.871,1.871,0,0,1,.7,1.342H14.025Zm0,0" transform="translate(0 0)"/><path class="a" d="M264.181,350.37a.347.347,0,0,0-.117.107.77.77,0,0,0-.074.145c-.017.046-.035.091-.053.135l-.515,1.307c-.017.043-.034.085-.047.128a.346.346,0,0,0-.017.107.247.247,0,0,0,.081.181.264.264,0,0,0,.187.076.224.224,0,0,0,.19-.083.973.973,0,0,0,.106-.222l.078-.21h.716l.079.207h0l.047.11a.568.568,0,0,0,.059.106.266.266,0,0,0,.083.067.259.259,0,0,0,.116.025.267.267,0,0,0,.193-.079.253.253,0,0,0,.079-.181.748.748,0,0,0-.067-.244l-.526-1.3c-.019-.051-.04-.1-.061-.156a.653.653,0,0,0-.067-.123.344.344,0,0,0-.115-.105.359.359,0,0,0-.18-.043A.346.346,0,0,0,264.181,350.37Zm.372,1.219h-.391l.194-.54Zm0,0" transform="translate(-252.495 -336.515)"/><path class="a" d="M222.641,317.326a2.664,2.664,0,1,0,2.664-2.666A2.668,2.668,0,0,0,222.641,317.326Zm4.731,0a2.068,2.068,0,1,1-2.067-2.07A2.07,2.07,0,0,1,227.372,317.326Zm0,0" transform="translate(-213.382 -302.253)"/></g></svg>