<svg xmlns="http://www.w3.org/2000/svg" width="20.256" height="20.256" viewBox="0 0 20.256 20.256"><defs><style>.a{fill:#fff;}</style></defs><g transform="translate(0 6.752)"><path class="a" d="M12.491,165.064H12.12a.332.332,0,0,1-.313-.218c-.041-.108-.085-.214-.133-.318a.333.333,0,0,1,.068-.377l.265-.265a1.015,1.015,0,0,0,0-1.431l-.954-.954a1.015,1.015,0,0,0-1.431,0l-.265.264a.334.334,0,0,1-.377.068c-.1-.048-.21-.092-.319-.135a.332.332,0,0,1-.219-.313v-.371A1.013,1.013,0,0,0,7.427,160H6.077a1.013,1.013,0,0,0-1.013,1.013v.371a.332.332,0,0,1-.218.313c-.108.041-.214.085-.318.133a.334.334,0,0,1-.377-.068l-.265-.265a1.015,1.015,0,0,0-1.431,0l-.954.957a1.015,1.015,0,0,0,0,1.431l.264.265a.333.333,0,0,1,.068.377c-.048.1-.092.21-.133.319a.332.332,0,0,1-.315.218H1.013A1.013,1.013,0,0,0,0,166.077v1.35a1.013,1.013,0,0,0,1.013,1.013h.371a.332.332,0,0,1,.313.218c.041.108.085.214.133.318a.333.333,0,0,1-.068.377l-.265.265a1.015,1.015,0,0,0,0,1.431l.954.954a1.015,1.015,0,0,0,1.431,0l.265-.264a.334.334,0,0,1,.377-.068c.1.048.21.092.319.135a.332.332,0,0,1,.221.313v.371A1.013,1.013,0,0,0,6.077,173.5h1.35a1.013,1.013,0,0,0,1.013-1.013v-.371a.332.332,0,0,1,.218-.313c.108-.041.214-.085.318-.133a.334.334,0,0,1,.377.068l.265.265a1.015,1.015,0,0,0,1.431,0l.954-.954a1.015,1.015,0,0,0,0-1.431l-.264-.265a.333.333,0,0,1-.068-.377c.048-.1.092-.21.135-.319a.332.332,0,0,1,.313-.219h.371a1.013,1.013,0,0,0,1.013-1.013v-1.35A1.013,1.013,0,0,0,12.491,165.064Zm.338,2.363a.338.338,0,0,1-.338.338H12.12a1.016,1.016,0,0,0-.945.653q-.054.142-.116.279a1.016,1.016,0,0,0,.2,1.133l.264.264a.338.338,0,0,1,0,.477h0l-.954.954a.338.338,0,0,1-.477,0l-.265-.264a1.015,1.015,0,0,0-1.133-.2c-.091.042-.185.08-.279.116a1.016,1.016,0,0,0-.653.945v.371a.338.338,0,0,1-.338.338H6.077a.338.338,0,0,1-.338-.338v-.371a1.016,1.016,0,0,0-.653-.945q-.142-.054-.279-.116a1.016,1.016,0,0,0-1.133.2l-.264.264a.338.338,0,0,1-.477,0h0l-.954-.953a.338.338,0,0,1,0-.477l.264-.265a1.016,1.016,0,0,0,.2-1.133c-.042-.091-.08-.185-.116-.279a1.016,1.016,0,0,0-.945-.654H1.013a.338.338,0,0,1-.338-.338v-1.35a.338.338,0,0,1,.338-.338h.371a1.016,1.016,0,0,0,.945-.653q.054-.142.116-.279a1.016,1.016,0,0,0-.2-1.133l-.265-.264a.338.338,0,0,1,0-.477h0l.954-.954a.338.338,0,0,1,.477,0l.265.264a1.015,1.015,0,0,0,1.133.2c.091-.042.185-.08.279-.116a1.016,1.016,0,0,0,.654-.945v-.371a.338.338,0,0,1,.338-.338h1.35a.338.338,0,0,1,.338.338v.371a1.016,1.016,0,0,0,.653.945q.142.054.279.116a1.015,1.015,0,0,0,1.133-.2l.264-.264a.34.34,0,0,1,.478,0l.954.954a.338.338,0,0,1,0,.477l-.264.265a1.016,1.016,0,0,0-.2,1.133c.042.091.08.185.116.279a1.016,1.016,0,0,0,.945.653h.371a.338.338,0,0,1,.338.338Z" transform="translate(0 -160)"/></g><g transform="translate(3.712 10.466)"><path class="a" d="M94.03,250.9c0-.081-.009-.162-.019-.242s-.024-.172-.042-.256c-.012-.055-.027-.109-.042-.164s-.04-.138-.064-.206c-.017-.047-.034-.094-.051-.14a3.006,3.006,0,0,0-.149-.316c0-.008-.007-.016-.011-.024a2.993,2.993,0,0,0-.3-.443l-.031-.035c-.047-.055-.095-.108-.145-.159-.026-.027-.054-.053-.082-.079s-.068-.062-.1-.092-.083-.07-.125-.1l-.055-.041A3.017,3.017,0,0,0,91,248c-.034,0-.068.005-.1.006-.072,0-.144.006-.217.013l-.115.014a3.091,3.091,0,0,0-.327.061,3.04,3.04,0,0,0,0,5.887l.017,0a3.226,3.226,0,0,0,.354.068c.079.01.157.012.236.016.053,0,.1.01.156.01.1,0,.2-.006.3-.017a.326.326,0,0,0,.034,0c.082-.009.165-.021.25-.038.034-.006.065-.015.1-.022.059-.014.118-.028.179-.046s.093-.031.139-.047l.142-.052c.048-.018.088-.039.132-.059s.113-.052.169-.082h0a4,4,0,0,0,.865-.625,1.063,1.063,0,0,0,.181-.221A3.6,3.6,0,0,0,94,251.477c.009-.065.018-.13.023-.2s.008-.122.009-.183c0-.019,0-.037,0-.057C94.037,250.993,94.032,250.949,94.03,250.9Zm-.673.221c0,.028,0,.056,0,.084-.006.082-.017.163-.03.245a2.368,2.368,0,0,1-1.186,1.654c-.042.022-.083.043-.124.061l-.028.014a2.439,2.439,0,0,1-.616.186l-.045.007c-.042.006-.084.011-.125.015s-.109.007-.165.008h-.071a2.37,2.37,0,0,1-.239-.015l-.041,0a2.5,2.5,0,0,1-.276-.052,2.363,2.363,0,0,1,0-4.578h0a2.445,2.445,0,0,1,.593-.074,2.329,2.329,0,0,1,.289.02l.076.011c.073.011.145.026.216.044l.07.018a2.384,2.384,0,0,1,.515.217l.077.047c.053.034.105.068.156.106.027.02.055.04.081.061a2.438,2.438,0,0,1,.19.169c.024.024.046.051.069.076.039.042.077.085.113.131s.049.064.073.1c.034.049.068.1.1.151l.051.084a2.315,2.315,0,0,1,.116.247c.014.034.025.068.037.1.022.062.041.125.057.188.008.034.018.064.025.1a2.381,2.381,0,0,1,.043.276c0,.025,0,.05,0,.074C93.359,250.968,93.361,251.046,93.358,251.124Z" transform="translate(-87.959 -248)"/></g><g transform="translate(3.682)"><path class="a" d="M102.822,7.09H101.76a.33.33,0,0,1-.315-.221,7.03,7.03,0,0,0-.379-.915.331.331,0,0,1,.065-.381l.753-.754a1.013,1.013,0,0,0,0-1.432l-1.435-1.433a1.013,1.013,0,0,0-1.432,0l-.753.752a.331.331,0,0,1-.381.065,7.014,7.014,0,0,0-.916-.381.329.329,0,0,1-.223-.315V1.013A1.013,1.013,0,0,0,95.732,0H93.707a1.013,1.013,0,0,0-1.013,1.013V2.075a.329.329,0,0,1-.221.315,7.037,7.037,0,0,0-.915.381.33.33,0,0,1-.381-.065l-.754-.753a1.015,1.015,0,0,0-1.432,0L87.558,3.385a1.013,1.013,0,0,0,0,1.432l1.107,1.109a.338.338,0,0,0,.478-.477L88.035,4.341a.338.338,0,0,1,0-.477l1.433-1.433a.338.338,0,0,1,.477,0l.754.753a1,1,0,0,0,1.16.19,6.387,6.387,0,0,1,.827-.344,1,1,0,0,0,.682-.955V1.013a.338.338,0,0,1,.338-.338h2.026a.338.338,0,0,1,.338.338V2.075a1,1,0,0,0,.682.955,6.368,6.368,0,0,1,.828.344,1.006,1.006,0,0,0,1.16-.191l.754-.753a.338.338,0,0,1,.477,0L101.4,3.864a.338.338,0,0,1,0,.477l-.753.754a1,1,0,0,0-.19,1.16,6.386,6.386,0,0,1,.344.827,1,1,0,0,0,.955.682h1.062a.338.338,0,0,1,.338.338v2.026a.338.338,0,0,1-.338.338H101.76a1,1,0,0,0-.955.682,6.362,6.362,0,0,1-.344.828,1,1,0,0,0,.191,1.16l.753.754a.338.338,0,0,1,0,.477L99.971,15.8a.338.338,0,0,1-.477,0l-1.109-1.107a.338.338,0,1,0-.485.47l.008.008,1.109,1.107a1.013,1.013,0,0,0,1.432,0l1.433-1.432a1.013,1.013,0,0,0,0-1.432l-.752-.753a.331.331,0,0,1-.065-.381,7.013,7.013,0,0,0,.381-.916.33.33,0,0,1,.315-.223h1.062a1.013,1.013,0,0,0,1.013-1.013V8.1A1.013,1.013,0,0,0,102.822,7.09Z" transform="translate(-87.261)"/></g><g transform="translate(7.943 4.728)"><path class="a" d="M194.52,113.333a4.393,4.393,0,0,0-6.206,0,.338.338,0,0,0,.477.477,3.714,3.714,0,0,1,5.287,5.217l-.035.035a.338.338,0,0,0,.469.486l.008-.008A4.393,4.393,0,0,0,194.52,113.333Z" transform="translate(-188.219 -112.049)"/></g></svg>