<?xml version="1.0" encoding="utf-8"?>
<!-- Generator: Adobe Illustrator 24.2.1, SVG Export Plug-In . SVG Version: 6.00 Build 0)  -->
<svg version="1.1" id="Layer_1" xmlns="http://www.w3.org/2000/svg" xmlns:xlink="http://www.w3.org/1999/xlink" x="0px" y="0px"
	 viewBox="0 0 851 988" style="enable-background:new 0 0 851 988;" xml:space="preserve">
<style type="text/css">
	.st0{opacity:0.26;fill-rule:evenodd;clip-rule:evenodd;fill:#72DD97;enable-background:new    ;}
	.st1{fill:none;stroke:#FFFFFF;stroke-width:1.0005;stroke-dasharray:5,5;}
	.st2{fill:none;stroke:#FFFFFF;stroke-dasharray:5,5;}
	.st3{fill:#959595;}
	.st4{fill:#FFFFFF;}
	.st5{fill:#D5D5D5;}
	.st6{opacity:0.83;fill:#FFFFFF;fill-opacity:0.63;enable-background:new    ;}
	.st7{opacity:0.54;fill:#FFFFFF;enable-background:new    ;}
</style>
<g id="Group_2">
	<path id="Path_456" class="st0" d="M660.9,734H730c37.2,0,70,64.6,70,112.5c0,95.6-30.5,141.5-67.7,141.5h-584
		C88,988,36.5,844.7,36.5,767.2s49.3-141,109.4-141c25.5,0,46.3-26.8,46.3-59.6S171.4,507,145.9,507H90.2c-26.5,0-48.1-27.9-48.1-62
		s21.6-62,48.1-62h70.4c10.3,0,18.7-10.9,18.7-24.1s-8.4-24.1-18.7-24.1h-12.4c-7.1,0-12.9-7.5-12.9-16.7s5.8-16.7,12.9-16.7h81.5
		c17.2,0,19.1,26.1,62.4,26.1h100.5c9.3,0,16.9,9.8,16.9,21.7c0,11.9-7.6,21.7-16.9,21.7h-16.2c-13.4,0-24.4,14.2-24.4,31.5
		s11,31.5,24.4,31.5h48.8c65.8,0,75.1,22.2,86.7,66.2s71.4,47.6,71.4,47.6h81.9c20.3,0,36.8,21.3,36.8,47.4
		c0,26.1-16.6,47.4-36.8,47.4H661c-19.5,0-35.4,20.5-35.4,45.6C625.4,713.5,641.4,734,660.9,734L660.9,734z M111.9,334.7
		c7.1,0,12.9-7.5,12.9-16.7s-5.8-16.7-12.9-16.7S99,308.9,99,318.1S104.8,334.7,111.9,334.7z"/>
	<g id="Group_1">
		<path id="Path_169" class="st1" d="M435.9,988c63.4-16,110.2-59.2,124.4-107.2c20.3-45.6,20.2-152-45.7-211.7
			c-48.8-35-92.3-9.5-173.6-54.7s-71.8-126.9-71.8-126.9"/>
		<path id="Vector" class="st2" d="M441.5,646.5c26.5,0,48-21.5,48-48s-21.5-48-48-48s-48,21.5-48,48S415,646.5,441.5,646.5z"/>
		<path id="Vector_2" class="st2" d="M523.5,871.5c26.5,0,48-21.5,48-48s-21.5-48-48-48s-48,21.5-48,48S497,871.5,523.5,871.5z"/>
		<path id="Path_390" class="st3" d="M263.7,487.8l6.3,4.8l0.6-6.3L263.7,487.8z"/>
		<path id="Path_391" class="st4" d="M281.7,456.9l1.8,28.3c0,0.3,0,0.5-0.1,0.8s-0.2,0.5-0.4,0.7c-0.2,0.2-0.4,0.4-0.6,0.5
			s-0.5,0.2-0.8,0.2l-28.4,0.8c-0.2,0-0.3,0-0.5-0.1c-0.1-0.1-0.2-0.2-0.3-0.4c-0.1-0.1-0.1-0.3-0.1-0.5s0.1-0.3,0.2-0.4
			L281.7,456.9z"/>
		<path id="Path_392" class="st5" d="M263.7,487.8l18-30.9l-13.4,30.8l1.7,1.4L263.7,487.8z"/>
		<path id="Path_393" class="st3" d="M271,487.6l-1.1,5l-1.7-4.9L271,487.6z"/>
	</g>
	<path id="Cloud6" class="st6" d="M478.8,484.9c0.7-5.6-5.7-13.6-17.3-6.5c-0.3-2.7-14.8-10.9-21.6,6.5c-1.2-4.2-11.7-2.1-13.6,5
		c-4-1.8-13.5,7.1-0.9,8.6c16.1,2,53,1.4,59.6-8.3C491.7,480.5,478.8,484.9,478.8,484.9z"/>
	<path id="Cloud5" class="st7" d="M409.7,511c0.4-3.1-3.2-7.5-9.6-3.6c-0.2-1.5-8.2-6-11.9,3.6c-0.6-2.3-6.5-1.2-7.5,2.8
		c-2.2-1-7.5,3.9-0.5,4.8c8.9,1.1,29.3,0.8,33-4.6C416.8,508.6,409.7,511,409.7,511z"/>
	<path id="Cloud4" class="st7" d="M248.4,626.9c0.9-7.9-8.1-19.1-24.5-9.2c-0.4-3.8-21-15.5-30.5,9.1c-1.6-6-16.5-3-19.2,7.1
		c-5.6-2.5-19.1,10-1.2,12.2c22.7,2.8,74.9,2,84.2-11.7C266.6,620.8,248.4,626.9,248.4,626.9z"/>
	<path id="Cloud3" class="st7" d="M381.6,763.3c0.7-4.7-5.9-11.3-17.8-5.5c-0.3-2.2-15.2-9.1-22.1,5.4c-1.2-3.5-12-1.8-13.9,4.2
		c-4.1-1.5-13.9,5.9-0.9,7.2c16.5,1.6,54.4,1.2,61.2-6.9C394.9,759.7,381.6,763.3,381.6,763.3z"/>
	<path id="Cloud2" class="st7" d="M286.6,912.3c0.7-4.7-5.9-11.3-17.8-5.5c-0.3-2.2-15.2-9.1-22.1,5.4c-1.2-3.5-12-1.8-13.9,4.2
		c-4.1-1.5-13.9,5.9-0.9,7.2c16.5,1.6,54.4,1.2,61.2-6.9C299.9,908.7,286.6,912.3,286.6,912.3z"/>
	<path id="Cloud1" class="st7" d="M207.7,394.6c0.4-3.1-3.2-7.5-9.6-3.6c-0.2-1.5-8.2-6-11.9,3.6c-0.6-2.3-6.5-1.2-7.5,2.8
		c-2.2-1-7.5,3.9-0.5,4.8c8.9,1.1,29.3,0.8,33-4.6S207.7,394.6,207.7,394.6z"/>
</g>
</svg>
