<svg xmlns="http://www.w3.org/2000/svg" width="20.577" height="19.719" viewBox="0 0 20.577 19.719"><defs><style>.a{fill:#256ae5;}</style></defs><path class="a" d="M4.606,20.211A1.1,1.1,0,0,1,3.54,18.874l1.324-5.831L.375,9.106a1.094,1.094,0,0,1,.62-1.914l5.94-.539,2.348-5.5a1.094,1.094,0,0,1,2.011,0l2.348,5.5,5.939.539A1.095,1.095,0,0,1,20.2,9.106l-4.489,3.936,1.324,5.831a1.093,1.093,0,0,1-1.627,1.182l-5.122-3.061L5.167,20.056a1.1,1.1,0,0,1-.561.155Zm5.683-4.536a1.1,1.1,0,0,1,.561.155l4.834,2.891-1.249-5.5a1.094,1.094,0,0,1,.346-1.066l4.239-3.718-5.608-.509a1.092,1.092,0,0,1-.909-.663L10.289,2.076,8.072,7.263a1.089,1.089,0,0,1-.906.66l-5.609.509L5.8,12.15a1.091,1.091,0,0,1,.346,1.067l-1.248,5.5,4.834-2.89a1.1,1.1,0,0,1,.561-.155Zm-3.4-8.916v0Zm6.8,0v0Zm0,0" transform="translate(-0.001 -0.492)"/></svg>