<svg xmlns="http://www.w3.org/2000/svg" width="56.399" height="56.399" viewBox="0 0 56.399 56.399"><defs><style>.a{fill:none;}.b{fill:#fbfbfb;}</style></defs><path class="a" d="M0,0H56.4V56.4H0Z"/><path class="b" d="M25.5,2A23.5,23.5,0,1,0,49,25.5,23.508,23.508,0,0,0,25.5,2Zm0,7.05a7.05,7.05,0,1,1-7.05,7.05A7.04,7.04,0,0,1,25.5,9.05Zm0,33.37a16.921,16.921,0,0,1-14.1-7.567c.07-4.676,9.4-7.238,14.1-7.238,4.676,0,14.029,2.561,14.1,7.238A16.921,16.921,0,0,1,25.5,42.42Z" transform="translate(2.7 2.7)"/></svg>