<svg xmlns="http://www.w3.org/2000/svg" xmlns:xlink="http://www.w3.org/1999/xlink" width="73" height="73" viewBox="0 0 73 73"><defs><style>.a{fill:none;}.b{fill:url(#a);}</style><linearGradient id="a" x1="0.255" y1="0.233" x2="0.825" y2="1" gradientUnits="objectBoundingBox"><stop offset="0" stop-color="#6840d5"/><stop offset="1" stop-color="#256ae5"/></linearGradient></defs><path class="a" d="M0,0H73V73H0Z"/><path class="b" d="M32.417,2A30.417,30.417,0,1,0,62.833,32.417,30.428,30.428,0,0,0,32.417,2Zm0,9.125a9.125,9.125,0,1,1-9.125,9.125A9.113,9.113,0,0,1,32.417,11.125Zm0,43.192a21.9,21.9,0,0,1-18.25-9.794c.091-6.053,12.167-9.368,18.25-9.368,6.053,0,18.159,3.315,18.25,9.368A21.9,21.9,0,0,1,32.417,54.317Z" transform="translate(4.083 4.083)"/></svg>