<svg xmlns="http://www.w3.org/2000/svg" width="20.351" height="20.477" viewBox="0 0 20.351 20.477"><defs><style>.a{fill:#256ae5;}</style></defs><g transform="translate(-1.528)"><g transform="translate(6.482 1.321)"><g transform="translate(0)"><path class="a" d="M125.491,34.642H124.9L124.084,32h-1.149l-.813,2.642h-.594V35.3h.391l-.377,1.224.631.194.437-1.418h1.8l.436,1.418.631-.194L125.1,35.3h.391Zm-2.678,0,.61-1.982h.172l.61,1.982Z" transform="translate(-121.528 -32)"/></g></g><g transform="translate(11.436 1.321)"><path class="a" d="M243.722,34.312A1.321,1.321,0,0,0,242.849,32h-1.321v4.624h1.321a1.321,1.321,0,0,0,.873-2.312Zm-.873,1.651h-.661V34.642h.661a.661.661,0,0,1,0,1.321Zm0-1.982h-.661V32.661h.661a.661.661,0,0,1,0,1.321Z" transform="translate(-241.528 -32)"/></g><g transform="translate(14.739 1.321)"><path class="a" d="M323.84,32.661V32a2.312,2.312,0,1,0,0,4.624v-.661a1.651,1.651,0,0,1,0-3.3Z" transform="translate(-321.528 -32)"/></g><g transform="translate(5.491 6.606)"><path class="a" d="M97.528,160v5.945h12.551V160Zm11.89,5.284H98.189v-4.624h11.229Z" transform="translate(-97.528 -160)"/></g><g transform="translate(5.825 13.11)"><g transform="translate(0 0)"><rect class="a" width="11" height="1" transform="translate(0.406 0.129)"/></g></g><g transform="translate(5.825 14.546)"><g transform="translate(0 0)"><rect class="a" width="11" height="1" transform="translate(0.406 -0.307)"/></g></g><g transform="translate(17.024 15.982)"><g transform="translate(0 0)"><rect class="a" transform="translate(0.208 0.257)"/></g></g><g transform="translate(5.825 15.982)"><g transform="translate(0 0)"><rect class="a" width="10" transform="translate(0.406 0.257)"/></g></g><g transform="translate(1.528)"><path class="a" d="M21.879,1.321H19.363V0H3.179A1.653,1.653,0,0,0,1.528,1.651V18.826a1.653,1.653,0,0,0,1.651,1.651H19.363v-.661h-.991a.991.991,0,1,1,0-1.982h.991V4.624h2.516l-.826-1.651Zm-4.819,18.5H3.179a.991.991,0,0,1,0-1.982H17.06a1.618,1.618,0,0,0,0,1.982ZM18.7,17.174H4.831V15.853H4.17v1.321H3.179a1.645,1.645,0,0,0-.991.331V1.651A.992.992,0,0,1,3.179.661H4.17V15.193h.661V.661H18.7ZM20.81,3.963H19.363V1.982H20.81l-.5.991Z" transform="translate(-1.528)"/></g><g transform="translate(4.102 18.566)"><g transform="translate(0 0)"><rect class="a" width="12" height="1" transform="translate(0.13 -0.327)"/></g></g><g transform="translate(2.954 18.566)"><g transform="translate(0 0)"><rect class="a" height="1" transform="translate(0.278 -0.327)"/></g></g></g></svg>